<svg width="233" height="125" fill="none" xmlns="http://www.w3.org/2000/svg"><g clip-path="url(#clip0)"><path d="M233-.535H119.038V125H233V-.535z" fill="#4E4E50"/><path d="M113.962-.535H0V125h113.962V-.535z" fill="#E7E8E9"/><path d="M83.11 37.456c-.435-.3-1.002-.467-1.704-.467-.868 0-1.569.267-2.103.802-.501.534-.768 1.303-.768 2.272 0 .969.267 1.737.768 2.272.5.534 1.202.835 2.07.835.768 0 1.37-.167 1.837-.535.467-.367.768-.902.934-1.603l-1.535-.268c-.067.401-.2.702-.401.87a1.1 1.1 0 01-.735.267c-.4 0-.7-.134-.935-.435-.233-.3-.367-.802-.367-1.504 0-.634.1-1.069.334-1.336.234-.267.534-.401.935-.401.3 0 .534.067.701.234.2.167.3.4.367.701l1.536-.267c-.2-.668-.5-1.136-.935-1.437zm-11.287 5.58h1.503l2.438-3.775v3.775h1.502v-5.914H75.73l-2.404 3.71v-3.71h-1.503v5.914zm-5.409-2.505h.802c.667 0 1.135.066 1.369.167.233.1.367.3.367.601 0 .267-.1.468-.3.568-.201.1-.535.167-.97.167h-1.234v-1.503h-.034zm0-2.406h1.002c.534 0 .868.067 1.068.167.2.1.3.267.3.534 0 .268-.1.468-.333.568-.234.134-.568.2-1.069.2h-1.001v-1.47h.033zm-1.57 4.911h3.74c.668 0 1.17-.133 1.503-.434.334-.3.5-.668.5-1.136 0-.334-.1-.635-.3-.902-.2-.267-.5-.468-.901-.568.3-.067.534-.234.734-.501.2-.234.3-.535.3-.87 0-.5-.166-.901-.533-1.169-.334-.267-.868-.4-1.57-.4h-3.439v5.98h-.033zm-5.108-4.377c.267-.3.568-.434.968-.434.368 0 .668.167.935.468.234.3.367.768.367 1.37 0 .668-.133 1.136-.367 1.436a1.075 1.075 0 01-.901.435c-.368 0-.702-.167-.969-.468-.267-.334-.4-.802-.4-1.47 0-.602.133-1.036.367-1.337zm-1.903 6.65h1.569v-2.974c.3.3.568.534.835.668s.567.2.901.2c.702 0 1.27-.267 1.77-.835.468-.534.735-1.303.735-2.305 0-.97-.234-1.704-.735-2.239-.467-.535-1.068-.802-1.736-.802-.4 0-.768.1-1.069.267-.334.2-.567.435-.768.736v-.87h-1.469v8.154h-.033zm-5.142-5.747c0-.435.1-.769.333-1.003.234-.234.501-.367.835-.367.334 0 .601.133.802.367.233.234.334.568.367 1.036H52.69v-.033zm1.87 2.238c-.168.134-.368.2-.635.2-.367 0-.668-.133-.902-.4-.233-.268-.367-.635-.367-1.07h3.94c.034-1.202-.233-2.105-.734-2.673-.501-.568-1.202-.868-2.07-.868-.769 0-1.436.267-1.937.835-.501.568-.768 1.337-.768 2.306 0 .835.2 1.503.6 2.038.502.668 1.27 1.002 2.271 1.002.635 0 1.202-.134 1.636-.434.435-.3.735-.735.935-1.303l-1.569-.268c-.1.301-.234.502-.4.635zm-6.745-.434a1.716 1.716 0 01-1.136.434 1.79 1.79 0 01-1.436-.668c-.367-.434-.567-1.17-.567-2.205 0-.97.2-1.671.567-2.105.368-.435.868-.669 1.47-.669.434 0 .801.134 1.135.368.3.234.5.568.6 1.002l1.637-.4c-.2-.669-.467-1.17-.835-1.504-.634-.602-1.435-.902-2.437-.902-1.136 0-2.07.367-2.772 1.136-.7.768-1.068 1.804-1.068 3.174 0 1.303.334 2.305 1.035 3.04.701.736 1.603 1.103 2.671 1.103.868 0 1.603-.2 2.17-.635.568-.434.969-1.102 1.236-1.971l-1.603-.501c-.1.568-.334 1.002-.667 1.303zm-15.527 1.67l1.636-6.114 1.636 6.114h1.736l1.97-8.186h-1.67l-1.268 5.714-1.436-5.714h-1.97l-1.502 5.614-1.236-5.614h-1.703l1.937 8.186h1.87zm-10.952 0v-6.448l1.602 6.448h1.603l1.636-6.448v6.448h1.536V34.85h-2.47l-1.503 5.58-1.47-5.58h-2.47v8.186h1.536zm-6.779-3.541c.735 0 1.236.033 1.47.133.233.067.4.2.5.368.134.167.167.367.167.635 0 .3-.066.534-.233.701a1.335 1.335 0 01-.601.335c-.167.033-.535.066-1.136.066H13.19v-2.171h1.37v-.067zm-.367-3.275c.768 0 1.236 0 1.402.034.268.033.468.133.635.3.133.167.2.368.2.602 0 .267-.067.468-.233.635-.167.167-.368.267-.668.3-.167.034-.568.034-1.202.034h-1.069V36.22h.935zm-2.604 6.816h2.771c1.069 0 1.703-.033 2.003-.066.435-.034.802-.167 1.102-.401.3-.2.535-.502.702-.836.166-.367.267-.701.267-1.069 0-.468-.134-.869-.401-1.236a2.115 2.115 0 00-1.135-.735c.367-.167.634-.401.834-.735.2-.334.301-.669.301-1.07 0-.367-.067-.668-.267-.969a2.024 2.024 0 00-.634-.668 2.477 2.477 0 00-.869-.334c-.334-.067-.801-.067-1.435-.067h-3.273v8.186h.034zm75.496-22.42c-.167.134-.4.2-.701.2-.3 0-.535-.066-.702-.2-.166-.134-.267-.334-.267-.601h-.768c.034.5.234.902.535 1.203.3.3.7.434 1.202.434.5 0 .901-.134 1.202-.434.3-.301.5-.702.534-1.203h-.768c-.033.267-.133.467-.267.601zm-3.473 7.752h1.503l2.437-3.776v3.776h1.503V22.42h-1.536l-2.404 3.71v-3.71H83.61v5.948zm-3.105 0h1.57V22.42h-1.57v5.948zm-5.042-2.506h1.002c.567 0 .968.067 1.202.167.233.1.334.3.334.602 0 .267-.1.467-.267.568-.167.133-.434.167-.835.167h-1.436v-1.504zm-1.57 2.506h3.34c.801 0 1.369-.134 1.77-.434.4-.301.6-.735.6-1.303 0-.401-.1-.736-.334-1.036a1.57 1.57 0 00-.834-.568c-.334-.1-.802-.134-1.403-.134h-1.569V22.42h-1.57v5.948zm-8.414 0h1.336v-3.91l1.369 3.91h1.335l1.436-3.91v3.91h1.336V22.42h-1.937l-1.469 4.144-1.47-4.144H65.48v5.948zm-7.112 0h1.503l2.437-3.776v3.776h1.503V22.42h-1.536l-2.404 3.71v-3.71h-1.503v5.948zm-2.037-5.613c-.434-.301-1.002-.468-1.736-.468-.868 0-1.57.267-2.104.802-.5.534-.768 1.303-.768 2.272 0 .969.267 1.737.768 2.272.501.535 1.202.835 2.07.835.768 0 1.37-.167 1.837-.534.467-.368.768-.902.935-1.604l-1.536-.267c-.067.4-.2.701-.4.868a1.1 1.1 0 01-.735.268c-.401 0-.702-.134-.935-.435-.234-.3-.368-.802-.368-1.503 0-.635.1-1.07.334-1.337.234-.267.535-.4.935-.4.3 0 .534.066.701.233.2.167.301.4.368.702l1.536-.268c-.2-.634-.501-1.102-.902-1.436zm-11.32 5.613h1.503l2.438-3.776v3.776h1.502V22.42h-1.536l-2.404 3.71v-3.71h-1.502v5.948zm-5.375-2.54h.801c.668 0 1.136.067 1.37.168.233.1.333.3.333.601 0 .267-.1.468-.3.568-.2.1-.535.167-.969.167h-1.235V25.83zm0-2.405h1.002c.5 0 .868.067 1.068.167.2.1.3.267.3.535 0 .267-.1.467-.333.567-.2.134-.568.201-1.069.201h-1.002v-1.47h.034zm-1.603 4.945h3.74c.668 0 1.169-.134 1.502-.434.334-.301.501-.669.501-1.136 0-.334-.1-.635-.3-.903-.2-.267-.501-.467-.902-.568.3-.066.535-.234.735-.5.2-.235.3-.535.3-.87 0-.5-.167-.902-.534-1.169-.334-.267-.868-.401-1.57-.401h-3.438v5.981h-.034zm-3.072-2.54c0 .368-.033.636-.067.77-.066.2-.2.367-.367.534-.267.2-.534.267-.801.267s-.468-.067-.635-.234a.733.733 0 01-.234-.568c0-.234.1-.4.301-.568.134-.1.4-.167.868-.267.434-.1.768-.167.968-.234v.3h-.033zm-1.736-2.171c.167-.1.367-.167.668-.167.4 0 .7.067.834.2.134.134.234.334.234.635v.167c-.267.134-.801.234-1.536.401-.534.1-.968.234-1.235.368-.3.133-.501.334-.668.601-.167.267-.234.568-.234.902 0 .501.167.936.534 1.27.368.334.835.501 1.436.501a2.4 2.4 0 00.968-.2c.301-.134.602-.335.869-.602 0 .034.033.1.066.2.067.201.1.368.167.468h1.536a2.52 2.52 0 01-.267-.802c-.066-.233-.066-.634-.066-1.136v-1.837c0-.669-.067-1.136-.2-1.404-.134-.267-.368-.467-.735-.635-.334-.167-.869-.233-1.57-.233-.768 0-1.335.133-1.736.4-.4.268-.668.702-.835 1.27l1.436.268c.067-.335.2-.535.334-.635zm-5.21 2.272c.301 0 .535.067.736.2.2.134.267.301.267.535 0 .2-.1.4-.267.535a1.109 1.109 0 01-.702.233c-.534 0-.901-.3-1.135-.868l-1.436.267c.3 1.103 1.169 1.67 2.605 1.67.801 0 1.435-.166 1.87-.5.434-.335.634-.736.634-1.203 0-.368-.1-.669-.334-.903-.2-.233-.534-.434-.968-.534.367-.167.634-.368.801-.568.167-.2.267-.468.267-.769 0-.5-.2-.902-.6-1.236-.401-.334-.936-.501-1.67-.501-.568 0-1.069.133-1.503.4a1.929 1.929 0 00-.868 1.17l1.336.3c.133-.333.267-.534.434-.634.167-.1.333-.134.567-.134.267 0 .468.067.601.234.134.167.2.334.2.502a.799.799 0 01-.166.467.784.784 0 01-.334.268 2.487 2.487 0 01-.601.066v1.036h.267v-.033zm-7.045-1.036c0-.434.1-.768.334-1.002.234-.234.501-.368.835-.368.334 0 .601.134.801.368.234.234.334.568.368 1.035h-2.338v-.033zm1.904 2.239c-.167.133-.368.2-.635.2-.367 0-.668-.133-.901-.4-.234-.268-.368-.636-.368-1.07h3.94c.034-1.203-.233-2.105-.734-2.673-.5-.568-1.202-.869-2.07-.869-.802 0-1.436.267-1.937.835-.5.569-.768 1.337-.768 2.306 0 .835.2 1.504.601 2.038.501.669 1.269 1.003 2.27 1.003.668 0 1.203-.134 1.637-.435.434-.3.734-.735.935-1.303l-1.57-.267c-.133.267-.233.501-.4.635zm-9.65 1.236v-3.575h3.239v3.575h1.636v-8.186h-1.636v3.207h-3.24v-3.207h-1.635v8.186h1.636zm53.024 83.768c0 .367-.033.635-.067.768-.067.201-.2.368-.367.535-.267.2-.534.267-.801.267s-.468-.067-.635-.234a.733.733 0 01-.233-.568c0-.234.1-.401.3-.568.134-.1.434-.167.868-.267s.768-.167.969-.234v.301h-.034zm-1.703-2.139c.167-.1.368-.167.668-.167.4 0 .701.067.835.201.133.133.234.334.234.635v.167c-.268.133-.802.234-1.537.401-.534.1-.968.233-1.235.367-.3.134-.5.334-.668.602-.167.267-.233.568-.233.902 0 .501.167.935.534 1.269.367.335.834.502 1.436.502.334 0 .667-.067.968-.201.3-.133.6-.334.868-.601 0 .033.033.1.067.2.067.201.1.368.133.468h1.536a2.522 2.522 0 01-.267-.802c-.066-.234-.066-.635-.066-1.136l.033-1.838c0-.668-.067-1.136-.2-1.403-.134-.267-.368-.468-.735-.635-.334-.167-.868-.234-1.57-.234-.767 0-1.335.134-1.736.401-.4.267-.668.702-.834 1.27l1.435.267c.034-.334.167-.534.334-.635zm-6.845 2.172h.802c.667 0 1.135.067 1.369.167.233.1.367.301.367.602 0 .267-.1.467-.3.568-.201.1-.535.167-.97.167h-1.234v-1.504h-.034zm0-2.406h1.002c.5 0 .868.067 1.068.167.2.101.3.268.3.535s-.1.468-.333.568c-.234.134-.568.201-1.069.201h-1.001v-1.471h.033zm-1.57 4.912h3.74c.668 0 1.17-.133 1.503-.434.334-.301.5-.668.5-1.136 0-.334-.1-.635-.3-.902-.2-.268-.5-.468-.901-.568.3-.067.534-.234.734-.502.2-.234.301-.534.301-.868 0-.502-.167-.903-.534-1.17-.334-.267-.868-.401-1.57-.401h-3.439v5.981h-.033zm-5.308-4.31a1.368 1.368 0 011.035-.468c.4 0 .768.167 1.035.468.267.301.4.768.4 1.336 0 .602-.133 1.036-.4 1.37a1.368 1.368 0 01-1.035.468c-.401 0-.768-.167-1.035-.468-.267-.3-.434-.768-.434-1.336 0-.568.133-1.069.434-1.37zm-1.67 3.007c.267.468.634.835 1.135 1.069a3.61 3.61 0 001.57.368c.868 0 1.602-.301 2.17-.869.568-.601.868-1.336.868-2.239 0-.902-.3-1.637-.868-2.205-.568-.568-1.302-.869-2.204-.869-.567 0-1.102.134-1.569.401a2.915 2.915 0 00-1.102 1.103c-.267.501-.4 1.002-.4 1.504.033.668.166 1.269.4 1.737zm-6.979 1.303h1.57v-2.472h2.237v2.472h1.57v-5.914h-1.57v2.172h-2.237v-2.172h-1.57v5.914zm-5.008-4.377a1.2 1.2 0 01.968-.434c.367 0 .668.133.935.467.234.301.367.769.367 1.37 0 .669-.133 1.136-.367 1.437a1.076 1.076 0 01-.901.435c-.368 0-.702-.168-.969-.468-.267-.334-.4-.802-.4-1.47-.034-.602.1-1.036.367-1.337zm-1.937 6.649h1.57v-3.007c.3.301.567.535.834.668.267.134.568.201.902.201.701 0 1.269-.267 1.77-.835.467-.535.734-1.304.734-2.306 0-.969-.234-1.704-.734-2.239-.468-.534-1.069-.802-1.737-.802-.4 0-.768.101-1.068.268-.334.2-.568.434-.768.735v-.869h-1.47v8.186h-.033zm-7.012-2.272h1.503l2.437-3.776v3.776h1.503v-5.914h-1.536l-2.404 3.709v-3.709h-1.503v5.914zm-8.348 0h1.336v-3.909l1.37 3.909h1.335l1.435-3.909v3.909h1.336v-5.914h-1.936l-1.47 4.143-1.469-4.143h-1.936v5.914zm-3.74-1.67c-.3.267-.7.434-1.135.434a1.79 1.79 0 01-1.435-.668c-.368-.435-.568-1.17-.568-2.206 0-.969.2-1.67.568-2.105.367-.434.868-.668 1.469-.668.434 0 .801.134 1.102.368.3.233.5.568.6 1.002l1.637-.401c-.2-.668-.468-1.169-.835-1.504-.634-.601-1.436-.902-2.437-.902-1.136 0-2.07.368-2.772 1.136-.701.769-1.068 1.805-1.068 3.175 0 1.303.334 2.305 1.035 3.04.701.735 1.602 1.103 2.671 1.103.868 0 1.603-.201 2.17-.635.568-.434.969-1.103 1.236-2.005l-1.603-.501c-.1.601-.334 1.036-.634 1.337zm53.426-15.337h-1.035c-.434 0-.735-.067-.935-.167-.2-.134-.3-.301-.3-.602 0-.267.066-.468.266-.568.167-.133.468-.167.868-.167h1.136v1.504zm-1.503-2.54c-.6 0-1.035.067-1.335.134-.301.1-.535.267-.735.568a1.828 1.828 0 00-.267.97c0 .467.133.868.4 1.169.268.3.635.467 1.069.5-.267.068-.534.368-.868.836l-1.135 1.704h1.836l1.035-1.67.1-.134c.2-.267.368-.468.535-.568.166-.1.4-.134.734-.134h.134v2.473h1.57v-5.914H68.05v.066zm-7.179 2.44c0-.435.1-.769.334-1.003.234-.234.5-.367.835-.367.334 0 .6.133.801.367.234.234.334.568.367 1.036h-2.337v-.033zm1.87 2.238c-.167.134-.367.201-.634.201-.368 0-.668-.134-.902-.401-.234-.267-.367-.635-.367-1.07h3.94c.033-1.202-.234-2.105-.735-2.672-.5-.569-1.202-.87-2.07-.87-.768 0-1.436.268-1.937.836-.5.568-.768 1.337-.768 2.306 0 .835.2 1.503.602 2.038.5.668 1.268 1.002 2.27 1.002.634 0 1.202-.133 1.636-.434.434-.301.735-.735.935-1.303l-1.57-.268c-.1.301-.233.502-.4.635zm-7.847 1.237h1.57v-4.645H58.9v-1.27h-4.007v5.915zm-5.042-4.378c.267-.3.568-.434.969-.434.367 0 .667.167.934.468.234.3.368.768.368 1.37 0 .668-.134 1.136-.367 1.437-.234.3-.535.434-.902.434s-.701-.167-.968-.468c-.268-.334-.401-.802-.401-1.47 0-.602.1-1.036.367-1.337zm-1.936 6.616h1.569v-2.973c.3.3.568.534.835.668.267.133.567.2.901.2.702 0 1.27-.267 1.77-.835.467-.535.735-1.303.735-2.306 0-.969-.234-1.704-.735-2.238-.468-.535-1.069-.802-1.736-.802-.401 0-.768.1-1.069.267-.334.2-.568.434-.768.735v-.869H47.95v8.153h-.033zm-5.11-5.713c0-.435.101-.769.335-1.003.233-.234.5-.367.834-.367.334 0 .602.133.802.367.234.234.334.568.334 1.036h-2.304v-.033zm1.87 2.238c-.166.134-.367.201-.634.201-.367 0-.668-.134-.901-.401-.234-.267-.368-.635-.368-1.07h3.94c.034-1.202-.233-2.105-.734-2.672-.5-.569-1.202-.87-2.07-.87-.802 0-1.436.268-1.937.836-.5.568-.768 1.337-.768 2.306 0 .835.2 1.503.601 2.038.501.668 1.269 1.002 2.27 1.002.668 0 1.203-.133 1.637-.434.434-.301.734-.735.935-1.303l-1.57-.268c-.1.301-.233.502-.4.635zm-6.744-.468c-.3.268-.701.435-1.136.435a1.79 1.79 0 01-1.435-.668c-.368-.435-.568-1.17-.568-2.206 0-.969.2-1.67.568-2.105.367-.434.868-.668 1.469-.668.434 0 .801.134 1.135.367.3.234.501.569.601 1.003l1.636-.401c-.2-.668-.467-1.17-.834-1.504-.635-.601-1.436-.902-2.438-.902-1.135 0-2.07.368-2.771 1.136-.702.769-1.069 1.805-1.069 3.175 0 1.303.334 2.305 1.035 3.04.702.735 1.603 1.103 2.672 1.103.868 0 1.602-.201 2.17-.635.568-.434.968-1.103 1.235-1.971l-1.602-.502c-.134.602-.368 1.036-.668 1.303zm-9.35.134h-1.569v1.571h1.57v-1.57zm-9.95 1.571h1.336v-3.91l1.369 3.91h1.335l1.436-3.91v3.91h1.336v-5.915h-1.937l-1.47 4.11-1.468-4.143h-1.937v5.948zm-7.112 0h1.502l2.438-3.776v3.776h1.502v-5.915h-1.535l-2.405 3.71v-3.71H11.52v5.915z" fill="#4E4E50"/><path d="M130.984 20.387h3.914c.457 0 .854.062 1.19.187.34.125.621.307.844.545.222.238.388.527.498.867.109.34.164.727.164 1.16 0 .403-.065.774-.194 1.114a2.472 2.472 0 01-.562.873 2.54 2.54 0 01-.891.568 3.27 3.27 0 01-1.195.205h-1.969V29h-1.799v-8.613zm1.799 4.031h1.705c.407 0 .725-.1.955-.299.235-.2.352-.523.352-.973 0-.226-.031-.42-.094-.58a.945.945 0 00-.258-.392.957.957 0 00-.41-.229 1.8 1.8 0 00-.545-.076h-1.705v2.549zm7.201 1.904a2.019 2.019 0 00.088.551c.035.113.086.229.153.346.066.113.154.216.263.31.114.094.25.17.41.229.164.058.36.088.586.088a1.3 1.3 0 00.346-.047 1.097 1.097 0 00.574-.38.846.846 0 00.158-.317h1.717c0 .117-.025.252-.076.404a1.98 1.98 0 01-.234.457 2.627 2.627 0 01-.944.85 3.348 3.348 0 01-.732.275c-.27.07-.57.105-.902.105-.426 0-.827-.064-1.202-.193a2.554 2.554 0 01-.978-.598 2.9 2.9 0 01-.656-1.072c-.16-.437-.241-.969-.241-1.594 0-.433.057-.85.17-1.248a3.07 3.07 0 01.539-1.06c.247-.305.559-.547.938-.727.383-.183.842-.275 1.377-.275.566 0 1.043.094 1.43.281.386.184.697.445.931.785.239.34.408.75.51 1.23a7.73 7.73 0 01.152 1.6h-4.377zm2.655-1.101c0-.282-.043-.516-.129-.703a1.204 1.204 0 00-.317-.446 1.027 1.027 0 00-.416-.234 1.485 1.485 0 00-.439-.07c-.137 0-.281.023-.434.07a1.083 1.083 0 00-.422.234 1.3 1.3 0 00-.316.446 1.759 1.759 0 00-.123.703h2.596zm6.58-.352a1.991 1.991 0 00-.129-.44.959.959 0 00-.217-.322.777.777 0 00-.322-.199 1.309 1.309 0 00-.457-.07c-.278 0-.5.064-.668.193a1.302 1.302 0 00-.381.487c-.09.195-.15.408-.182.638a5.611 5.611 0 00-.006 1.319c.024.23.079.443.164.638.086.192.213.35.381.475s.399.187.692.187c.191 0 .357-.037.498-.11.14-.08.258-.175.351-.288.094-.113.162-.234.205-.363.047-.13.071-.246.071-.352h1.728c0 .106-.019.242-.058.41a2.526 2.526 0 01-.182.534 3.055 3.055 0 01-.346.568c-.14.187-.318.357-.533.51-.211.148-.459.27-.744.363a3.054 3.054 0 01-.99.146c-.489 0-.92-.074-1.295-.222a2.458 2.458 0 01-.938-.65 2.973 2.973 0 01-.574-1.067 4.953 4.953 0 01-.193-1.447c0-.543.07-1.024.211-1.442.144-.422.347-.775.609-1.06.262-.29.576-.508.943-.657a3.31 3.31 0 011.237-.222c.195 0 .396.015.603.047.211.03.418.086.621.164.203.074.397.172.58.293.188.12.354.273.498.457.149.18.27.392.364.638.097.243.16.524.187.844h-1.728zm4.318-.908h-1.933v-1.348h5.519v1.348h-1.934V29h-1.652v-5.04zm9.779 3.78c0 .19.01.349.03.474.023.12.052.219.088.293.035.07.074.123.117.158a.554.554 0 00.146.07V29h-1.834a3.847 3.847 0 01-.105-.293 1.688 1.688 0 01-.053-.451 8.356 8.356 0 01-.381.369 2.13 2.13 0 01-.41.299 2.139 2.139 0 01-.527.193c-.199.051-.44.076-.721.076a2.35 2.35 0 01-.791-.129 1.722 1.722 0 01-.621-.369 1.658 1.658 0 01-.41-.615 2.302 2.302 0 01-.147-.855c0-.262.041-.504.123-.727.082-.227.198-.424.346-.592a1.85 1.85 0 01.551-.422 2.28 2.28 0 01.732-.228l1.623-.24c.059-.008.121-.02.188-.035a.493.493 0 00.34-.229.518.518 0 00.058-.264.736.736 0 00-.053-.287.49.49 0 00-.164-.228.793.793 0 00-.316-.153 1.887 1.887 0 00-.486-.052c-.223 0-.403.023-.539.07a.744.744 0 00-.317.187.69.69 0 00-.17.282c-.035.105-.06.218-.076.34h-1.658a2.08 2.08 0 01.176-.78c.07-.164.166-.33.287-.498.125-.168.287-.32.486-.457.203-.14.449-.256.738-.346a3.64 3.64 0 011.038-.14c.57 0 1.031.058 1.382.176.356.113.631.263.826.45.2.184.333.391.399.622.07.226.105.453.105.68v3.386zm-1.658-1.858a5.53 5.53 0 01-.304.152c-.102.043-.237.08-.405.111l-.439.082c-.192.036-.36.077-.504.124a1.12 1.12 0 00-.363.187.748.748 0 00-.217.275 1.04 1.04 0 00-.071.41c0 .137.022.256.065.358.043.098.101.18.176.246.078.063.168.11.269.14.102.032.211.048.328.048.063 0 .143-.006.241-.018a1.745 1.745 0 00.638-.24c.11-.07.207-.16.293-.27a1.38 1.38 0 00.211-.398c.055-.16.082-.348.082-.563v-.644zm4.881-.762h1.277c.188 0 .344-.014.469-.04a.785.785 0 00.293-.13.444.444 0 00.152-.21.854.854 0 000-.557.425.425 0 00-.146-.206.724.724 0 00-.281-.134 1.554 1.554 0 00-.44-.053h-1.324v1.33zm-1.658-2.508h3.305c.293 0 .574.026.843.076.274.051.514.141.721.27.207.125.371.297.492.516.125.214.188.488.188.82 0 .191-.022.357-.065.498a1.2 1.2 0 01-.164.363c-.07.098-.152.182-.246.252-.09.067-.184.123-.281.17.32.113.564.295.732.545.168.246.252.541.252.885 0 .3-.053.574-.158.82a1.78 1.78 0 01-.439.627 2.01 2.01 0 01-.692.404 2.75 2.75 0 01-.908.141h-3.58v-6.387zm1.658 5.21h1.277c.239 0 .43-.026.575-.077a.872.872 0 00.339-.193.54.54 0 00.159-.258.956.956 0 00.041-.264.998.998 0 00-.065-.386.517.517 0 00-.193-.252.8.8 0 00-.346-.13 3.141 3.141 0 00-.51-.035h-1.277v1.594zm5.408-5.21h1.582v.914h.024c.113-.191.232-.355.357-.492a1.74 1.74 0 01.92-.545 2.853 2.853 0 011.236.006c.207.047.409.123.604.229.199.101.387.236.562.404.176.164.33.367.463.61.133.241.239.525.317.849.078.32.117.687.117 1.101 0 .516-.057.989-.17 1.418-.109.43-.277.8-.504 1.108a2.301 2.301 0 01-.85.72c-.339.172-.74.258-1.201.258-.16 0-.322-.015-.486-.047a1.888 1.888 0 01-.926-.457 1.923 1.923 0 01-.363-.48h-.024v3.264h-1.658v-8.86zm3.024 1.301a1.26 1.26 0 00-.674.17 1.39 1.39 0 00-.44.44c-.109.18-.189.382-.24.609a3.06 3.06 0 00-.076.674 2.938 2.938 0 00.1.832c.039.144.091.285.158.422a1.293 1.293 0 00.644.621c.149.062.325.093.528.093s.379-.03.527-.093a1.271 1.271 0 00.639-.621 2.18 2.18 0 00.164-.422 2.57 2.57 0 00.076-.434 3.06 3.06 0 00-.053-1.072 1.931 1.931 0 00-.246-.61 1.315 1.315 0 00-.439-.439 1.25 1.25 0 00-.668-.17zm9.521 3.826c0 .192.01.35.029.475.024.12.053.219.088.293a.49.49 0 00.118.158.54.54 0 00.146.07V29h-1.834a3.847 3.847 0 01-.105-.293 1.649 1.649 0 01-.053-.451 8.356 8.356 0 01-.381.369 2.13 2.13 0 01-.41.299 2.132 2.132 0 01-.528.193 2.938 2.938 0 01-.72.076 2.35 2.35 0 01-.791-.129 1.658 1.658 0 01-1.031-.984 2.302 2.302 0 01-.147-.855c0-.262.041-.504.123-.727.082-.227.197-.424.346-.592a1.85 1.85 0 01.551-.422c.218-.113.462-.19.732-.228l1.623-.24c.059-.008.121-.02.188-.035a.651.651 0 00.193-.077.49.49 0 00.146-.152.518.518 0 00.059-.264.754.754 0 00-.053-.287.497.497 0 00-.164-.228.793.793 0 00-.316-.153 1.89 1.89 0 00-.487-.052c-.222 0-.402.023-.539.07a.746.746 0 00-.316.187.69.69 0 00-.17.282c-.035.105-.06.218-.076.34h-1.658c0-.079.011-.186.035-.323a2.5 2.5 0 01.14-.457 2.62 2.62 0 01.288-.498c.125-.168.287-.32.486-.457.203-.14.449-.256.738-.346a3.64 3.64 0 011.037-.14c.571 0 1.032.058 1.383.176.356.113.631.263.826.45.2.184.332.391.399.622.07.226.105.453.105.68v3.386zm-1.658-1.857a5.555 5.555 0 01-.305.152c-.101.043-.236.08-.404.111l-.439.082c-.192.036-.36.077-.504.124a1.124 1.124 0 00-.364.187.745.745 0 00-.216.275 1.04 1.04 0 00-.071.41c0 .137.022.256.065.358.043.098.101.18.175.246a.78.78 0 00.27.14c.102.032.211.048.328.048.063 0 .143-.006.24-.018a1.732 1.732 0 00.639-.24 1.2 1.2 0 00.293-.27 1.38 1.38 0 00.211-.398c.055-.16.082-.348.082-.563v-.644zm3.176-3.27h1.658v5.045h2.437v-5.045h1.653v5.045h.779v2.877h-1.535V29h-4.992v-6.387zm7.336 0h1.658v3.938h.023l2.327-3.938h1.74V29h-1.653v-3.85h-.029L195.156 29h-1.81v-6.387zM206.441 29h-1.664v-2.35h-1.084c-.238 0-.443.01-.615.03a.966.966 0 00-.416.123.617.617 0 00-.252.281 1.426 1.426 0 00-.094.51l-.023.615-.035.352a1.422 1.422 0 01-.112.439h-1.751a2 2 0 00.123-.246 1.64 1.64 0 00.07-.235c.019-.078.033-.156.041-.234.012-.078.021-.16.029-.246l.082-.768c.02-.171.043-.32.071-.445a.816.816 0 01.392-.563c.109-.066.256-.126.44-.181a2.352 2.352 0 01-.2-.064 2.606 2.606 0 01-.228-.118 1.935 1.935 0 01-.24-.187 1.537 1.537 0 01-.223-.287 1.099 1.099 0 01-.123-.235 1.872 1.872 0 01-.094-.475 3.263 3.263 0 01-.006-.18c0-.227.028-.429.082-.604a1.86 1.86 0 01.211-.47c.086-.132.184-.245.293-.339a1.784 1.784 0 01.75-.387 3.24 3.24 0 01.446-.082 3.83 3.83 0 01.404-.035c.125-.004.223-.006.293-.006h3.433V29zm-1.664-5.139h-1.336c-.14 0-.281.004-.421.012a.993.993 0 00-.381.094c-.11.05-.2.133-.27.246-.066.11-.099.265-.099.469 0 .199.033.351.099.457.07.105.158.183.264.234.109.05.23.08.363.088.133.008.266.012.399.012h1.382V23.86zm-69.759 86.516a2.295 2.295 0 01-.376.191 3.234 3.234 0 01-.513.13l-.438.082c-.41.073-.704.162-.881.267-.301.178-.452.453-.452.827 0 .333.092.574.274.725.187.145.412.218.677.218a1.97 1.97 0 001.155-.369c.355-.246.54-.695.554-1.346v-.725zm-1.183-.909c.36-.046.617-.103.772-.171.278-.119.417-.303.417-.554 0-.305-.107-.515-.321-.629-.21-.118-.519-.177-.93-.177-.46 0-.786.113-.977.341-.137.169-.228.397-.274.684h-1.879c.041-.652.223-1.187.546-1.607.515-.656 1.4-.984 2.653-.984.816 0 1.54.162 2.174.485.633.324.95.935.95 1.832v3.418c0 .237.004.525.013.862.014.255.053.428.117.519a.697.697 0 00.287.226V114h-2.119a2.065 2.065 0 01-.123-.424 5.115 5.115 0 01-.055-.451c-.269.292-.579.54-.93.745a2.79 2.79 0 01-1.422.362c-.674 0-1.232-.191-1.674-.574-.438-.387-.657-.934-.657-1.64 0-.916.354-1.58 1.06-1.99.387-.223.957-.382 1.709-.478l.663-.082zm9.461-2.919h2.092L142.701 114h-2.057l-2.673-7.451h2.187l1.552 5.496 1.586-5.496zm2.433 1.456v-1.388h1.04v-2.078h1.927v2.078h1.21v1.388h-1.21v3.937c0 .306.039.497.116.575.078.073.315.109.711.109h.185l.198-.014v1.456l-.923.035c-.92.031-1.549-.128-1.886-.479-.219-.223-.328-.567-.328-1.032v-4.587h-1.04zm8.771 4.621c.57 0 1.007-.203 1.312-.608.306-.406.459-.983.459-1.73s-.153-1.322-.459-1.723c-.305-.405-.742-.608-1.312-.608-.57 0-1.009.203-1.319.608-.306.401-.458.976-.458 1.723 0 .747.152 1.324.458 1.73.31.405.749.608 1.319.608zm3.814-2.338c0 1.094-.314 2.03-.943 2.81-.629.774-1.584 1.162-2.864 1.162-1.281 0-2.236-.388-2.864-1.162-.629-.78-.944-1.716-.944-2.81 0-1.075.315-2.007.944-2.796.628-.788 1.583-1.182 2.864-1.182 1.28 0 2.235.394 2.864 1.182.629.789.943 1.721.943 2.796zm5.449-3.917c.036 0 .066.002.089.007.027 0 .084.002.17.007v1.996a4.64 4.64 0 00-.56-.034c-.784 0-1.31.255-1.579.765-.151.287-.226.729-.226 1.326V114h-1.962v-7.451h1.86v1.299c.3-.497.563-.837.786-1.019.364-.305.838-.458 1.422-.458zm4.347 1.586c-.451 0-.802.141-1.052.424-.246.282-.401.665-.465 1.148h3.028c-.032-.515-.189-.904-.472-1.169-.278-.269-.624-.403-1.039-.403zm0-1.606c.62 0 1.178.116 1.675.348.497.233.907.6 1.231 1.101.291.442.48.955.567 1.538.05.342.071.834.062 1.476h-5.1c.027.748.262 1.272.704 1.573.269.187.592.28.971.28.401 0 .727-.114.977-.342.137-.123.258-.294.363-.513h1.989c-.05.443-.28.891-.691 1.347-.638.725-1.531 1.087-2.679 1.087a3.778 3.778 0 01-2.509-.916c-.725-.611-1.087-1.604-1.087-2.98 0-1.29.326-2.279.978-2.967.656-.688 1.506-1.032 2.549-1.032zm9.448.198h2.091L176.963 114h-2.058l-2.673-7.451h2.188l1.552 5.496 1.586-5.496zm5.202-.889h-1.976v-1.798h1.976v1.798zm-1.976.889h1.976V114h-1.976v-7.451zm3.445 1.586v-1.586h6.043v1.62l-3.78 4.231h3.91v1.6h-6.432v-1.518l3.821-4.347h-3.562zm10.767 4.491c.57 0 1.007-.203 1.313-.608.305-.406.458-.983.458-1.73s-.153-1.322-.458-1.723c-.306-.405-.743-.608-1.313-.608s-1.009.203-1.319.608c-.306.401-.458.976-.458 1.723 0 .747.152 1.324.458 1.73.31.405.749.608 1.319.608zm3.815-2.338c0 1.094-.315 2.03-.944 2.81-.629.774-1.583 1.162-2.864 1.162s-2.235-.388-2.864-1.162c-.629-.78-.944-1.716-.944-2.81 0-1.075.315-2.007.944-2.796.629-.788 1.583-1.182 2.864-1.182s2.235.394 2.864 1.182c.629.789.944 1.721.944 2.796zm5.448-3.917c.036 0 .066.002.089.007.027 0 .084.002.171.007v1.996a4.665 4.665 0 00-.561-.034c-.784 0-1.31.255-1.579.765-.15.287-.226.729-.226 1.326V114h-1.962v-7.451h1.86v1.299c.301-.497.563-.837.786-1.019.364-.305.838-.458 1.422-.458zm5.455 0c.036 0 .066.002.089.007.027 0 .084.002.171.007v1.996a4.689 4.689 0 00-.561-.034c-.784 0-1.31.255-1.579.765-.15.287-.226.729-.226 1.326V114h-1.962v-7.451h1.86v1.299c.301-.497.563-.837.786-1.019.365-.305.839-.458 1.422-.458zm4.751 6.255c.57 0 1.007-.203 1.312-.608.306-.406.458-.983.458-1.73s-.152-1.322-.458-1.723c-.305-.405-.742-.608-1.312-.608-.57 0-1.01.203-1.319.608-.306.401-.458.976-.458 1.723 0 .747.152 1.324.458 1.73.309.405.749.608 1.319.608zm3.814-2.338c0 1.094-.314 2.03-.943 2.81-.629.774-1.584 1.162-2.864 1.162-1.281 0-2.236-.388-2.865-1.162-.628-.78-.943-1.716-.943-2.81 0-1.075.315-2.007.943-2.796.629-.788 1.584-1.182 2.865-1.182 1.28 0 2.235.394 2.864 1.182.629.789.943 1.721.943 2.796z" fill="#fff"/></g><defs><clipPath id="clip0"><path fill="#fff" d="M0 0h233v125H0z"/></clipPath></defs></svg>