<svg width="173" height="36" fill="none" xmlns="http://www.w3.org/2000/svg"><path d="M14.32 21.234l1.899-6.843h-3.89L10.5 21.234h3.82zm-13.265 0h4.758l1.851-6.843H2.883l1.054-3.938H8.72l2.554-9.445h4.665l-2.555 9.445h3.89l2.485-9.445h4.664l-2.485 9.445h4.711l-1.054 3.938h-4.711l-1.899 6.843h4.782l-1.055 3.938H17.93l-2.508 9.375h-4.664l2.508-9.375H9.422l-2.555 9.375H2.203l2.555-9.375H0l1.055-3.938zM43.71 8.39c.126 0 .227.008.306.024.093 0 .289.008.586.024v6.843a18.157 18.157 0 00-1.922-.117c-2.688 0-4.492.875-5.414 2.625-.516.984-.774 2.5-.774 4.547v12.21h-6.726V9h6.375v4.453c1.03-1.703 1.93-2.867 2.695-3.492 1.25-1.047 2.875-1.57 4.875-1.57zm14.907 5.438c-1.547 0-2.75.485-3.61 1.453-.843.969-1.374 2.281-1.593 3.938h10.383c-.11-1.766-.649-3.102-1.617-4.008-.953-.922-2.14-1.383-3.563-1.383zm0-5.508c2.125 0 4.04.399 5.742 1.196 1.704.796 3.11 2.054 4.22 3.773 1 1.516 1.648 3.274 1.944 5.274.172 1.171.243 2.859.211 5.062H53.25c.094 2.563.898 4.36 2.414 5.39.922.641 2.031.962 3.328.962 1.375 0 2.492-.391 3.352-1.172.468-.422.883-1.008 1.242-1.758h6.82c-.172 1.515-.96 3.055-2.367 4.617-2.187 2.484-5.25 3.727-9.187 3.727-3.25 0-6.118-1.047-8.602-3.141-2.484-2.094-3.727-5.5-3.727-10.219 0-4.422 1.118-7.812 3.352-10.172 2.25-2.359 5.164-3.539 8.742-3.539zM74.906 0h4.102v12.492c.922-1.203 2.023-2.117 3.305-2.742 1.28-.64 2.671-.96 4.171-.96 3.125 0 5.657 1.077 7.594 3.233 1.953 2.141 2.93 5.305 2.93 9.493 0 3.968-.961 7.265-2.883 9.89-1.922 2.625-4.586 3.938-7.992 3.938-1.906 0-3.516-.461-4.828-1.383-.782-.547-1.618-1.422-2.508-2.625v3.21h-3.89V0zm10.969 31.617c2.281 0 3.984-.906 5.11-2.719 1.14-1.812 1.71-4.203 1.71-7.171 0-2.641-.57-4.829-1.71-6.563-1.126-1.734-2.79-2.601-4.993-2.601-1.922 0-3.61.71-5.062 2.132-1.438 1.422-2.157 3.766-2.157 7.032 0 2.359.297 4.273.891 5.742 1.11 2.765 3.18 4.148 6.211 4.148zm16.078-22.172h4.172v3.563c1-1.235 1.906-2.133 2.719-2.695 1.39-.954 2.968-1.43 4.734-1.43 2 0 3.61.492 4.828 1.476.688.563 1.313 1.391 1.875 2.485.938-1.344 2.039-2.336 3.305-2.977 1.266-.656 2.687-.984 4.266-.984 3.375 0 5.671 1.219 6.89 3.656.656 1.313.985 3.078.985 5.297v16.71h-4.383V17.11c0-1.672-.422-2.82-1.266-3.445-.828-.625-1.844-.937-3.047-.937-1.656 0-3.086.554-4.289 1.664-1.187 1.109-1.781 2.96-1.781 5.554v14.602h-4.289V18.164c0-1.703-.203-2.945-.61-3.727-.64-1.171-1.835-1.757-3.585-1.757-1.594 0-3.047.617-4.36 1.851-1.297 1.235-1.945 3.469-1.945 6.703v13.313h-4.219V9.445zm41.93 0l4.828 19.782 4.898-19.782h4.735l4.922 19.664 5.132-19.664h4.219l-7.289 25.102h-4.383l-5.109-19.43-4.945 19.43h-4.383l-7.242-25.102h4.617z" fill="#232529"/></svg>