<svg width="20" height="16" fill="none" xmlns="http://www.w3.org/2000/svg"><path d="M19.672 12.36c0 1.104-.36 1.992-1.08 2.664-.72.624-1.632.936-2.736.936-1.296 0-2.376-.432-3.24-1.296-.816-.864-1.224-2.136-1.224-3.816 0-1.584.216-2.928.648-4.032.48-1.152 1.032-2.112 1.656-2.88.672-.816 1.344-1.464 2.016-1.944.72-.48 1.344-.816 1.872-1.008l1.8 2.52a7.117 7.117 0 00-2.592 2.16c-.624.864-.936 1.968-.936 3.312.192-.048.456-.072.792-.072.96 0 1.704.336 2.232 1.008.528.672.792 1.488.792 2.448zm-10.512 0c0 1.104-.36 1.992-1.08 2.664-.72.624-1.632.936-2.736.936-1.296 0-2.376-.432-3.24-1.296C1.288 13.8.88 12.528.88 10.848c0-1.584.216-2.928.648-4.032.48-1.152 1.032-2.112 1.656-2.88.672-.816 1.344-1.464 2.016-1.944.72-.48 1.344-.816 1.872-1.008l1.8 2.52a7.117 7.117 0 00-2.592 2.16c-.624.864-.936 1.968-.936 3.312.192-.048.456-.072.792-.072.96 0 1.704.336 2.232 1.008.528.672.792 1.488.792 2.448z" fill="#3873DC"/></svg>