<svg width="155" height="58" fill="none" xmlns="http://www.w3.org/2000/svg"><rect opacity=".5" width="155" height="58" rx="4" fill="#000"/><path d="M61.348 19.401c0 .45.057.857.17 1.221.114.361.274.669.48.923.207.254.456.45.746.59.293.137.615.206.967.206.306 0 .58-.056.82-.166.244-.11.454-.256.63-.435.176-.182.317-.387.425-.615.107-.228.179-.459.215-.693h.927a2.945 2.945 0 01-.136.64 3.364 3.364 0 01-.708 1.206 2.892 2.892 0 01-1.299.786 3.103 3.103 0 01-.874.117c-.218 0-.453-.023-.703-.069a3.292 3.292 0 01-1.45-.66 2.78 2.78 0 01-.596-.683 3.65 3.65 0 01-.415-.966 4.882 4.882 0 01-.156-1.304c0-.485.045-.918.136-1.299a3.97 3.97 0 01.381-.996c.163-.286.352-.529.567-.727a3.086 3.086 0 011.47-.752 3.916 3.916 0 011.684.02 2.875 2.875 0 011.284.673c.16.153.293.316.4.488.111.17.196.344.254.523.062.179.1.353.113.522h-.938a2.102 2.102 0 00-.273-.62 1.738 1.738 0 00-.44-.459 1.84 1.84 0 00-.576-.288 2.21 2.21 0 00-.684-.103 2.39 2.39 0 00-1 .205 2.16 2.16 0 00-.762.587 2.682 2.682 0 00-.488.922c-.114.358-.171.76-.171 1.206zm6.92-3.579h2.57c.282 0 .53.008.741.025.212.013.41.044.596.093.176.048.34.12.493.214.156.091.293.209.41.352.117.14.209.304.274.493a1.815 1.815 0 01.053 1.03 1.698 1.698 0 01-.16.425 1.634 1.634 0 01-.299.386c-.12.117-.27.213-.449.288.147.049.296.117.45.205.153.088.29.202.415.342.127.136.23.304.312.503.081.195.122.43.122.703 0 .156-.02.319-.059.488a2.026 2.026 0 01-.498.928 1.93 1.93 0 01-.473.366 2.63 2.63 0 01-.645.25c-.24.058-.516.087-.825.087H68.27v-7.178zm2.886 6.338c.313 0 .575-.03.787-.088.215-.062.387-.146.517-.254a.95.95 0 00.288-.395c.059-.153.088-.324.088-.513s-.03-.36-.088-.512a.916.916 0 00-.288-.391 1.329 1.329 0 00-.517-.254 2.845 2.845 0 00-.787-.093h-1.928v2.5h1.928zm-.136-3.281c.316 0 .57-.03.761-.088.196-.062.346-.143.45-.244a.769.769 0 00.215-.366c.035-.14.053-.29.053-.45 0-.169-.026-.319-.078-.449a.745.745 0 00-.249-.337 1.251 1.251 0 00-.459-.21 2.807 2.807 0 00-.693-.073h-1.792v2.217h1.792zM80.898 23h-.962v-3.052h-1.787c-.199 0-.366.003-.503.01a2.516 2.516 0 00-.347.03 1.12 1.12 0 00-.434.15.975.975 0 00-.196.167.84.84 0 00-.146.224c-.04.091-.072.204-.098.337a4.041 4.041 0 00-.058.493l-.05.782c-.006.094-.014.18-.024.258a1.858 1.858 0 01-.097.406 1.72 1.72 0 01-.078.195h-1.104c.04-.042.077-.09.112-.142a.988.988 0 00.098-.185 1.79 1.79 0 00.078-.264c.023-.1.04-.221.054-.361l.083-.977c.013-.163.032-.319.059-.469.025-.15.073-.29.141-.42a1.1 1.1 0 01.298-.35 1.64 1.64 0 01.542-.26 5.326 5.326 0 01-.366-.156 1.476 1.476 0 01-.406-.288 1.633 1.633 0 01-.327-.498c-.088-.208-.132-.472-.132-.791 0-.228.026-.435.079-.62.052-.186.12-.35.205-.493a1.693 1.693 0 01.625-.625c.12-.069.258-.122.415-.161.16-.04.32-.067.483-.084.163-.016.32-.026.469-.029.153-.003.286-.005.4-.005h2.974V23zm-.962-6.328h-2.197a7.713 7.713 0 00-.523.019c-.088.01-.172.026-.254.05a.902.902 0 00-.474.293 1.209 1.209 0 00-.263.57 1.67 1.67 0 00-.015.538 1.196 1.196 0 00.2.522c.06.085.137.163.235.234.085.066.17.116.254.152a1.51 1.51 0 00.59.093c.115 0 .24-.002.377-.005h2.07v-2.466zm4.582 2.158h1.294c.205 0 .383-.03.532-.093a1.017 1.017 0 00.586-.61c.05-.133.073-.269.073-.405a1.15 1.15 0 00-.131-.572 1.067 1.067 0 00-.362-.38 1.594 1.594 0 00-.547-.22 3.199 3.199 0 00-.683-.069c-.31 0-.583.044-.82.132a1.73 1.73 0 00-.591.347 1.38 1.38 0 00-.352.503 1.52 1.52 0 00-.102.605h-.904c0-.306.036-.58.108-.82.075-.24.177-.45.307-.63.13-.179.284-.33.46-.454.175-.124.366-.225.57-.303a3.16 3.16 0 01.655-.166c.231-.036.464-.053.698-.053.384 0 .734.042 1.05.127.319.08.592.205.82.37a1.7 1.7 0 01.532.616c.127.244.191.529.191.854 0 .371-.073.686-.22.943-.143.254-.392.446-.747.576v.024a1.8 1.8 0 01.508.23 1.61 1.61 0 01.664.894c.065.201.098.432.098.693 0 .364-.08.685-.24.962-.16.276-.372.508-.64.693a2.868 2.868 0 01-.932.415c-.351.095-.72.142-1.103.142-.41 0-.793-.04-1.148-.117a2.739 2.739 0 01-.937-.377 1.998 1.998 0 01-.645-.693c-.163-.29-.255-.644-.278-1.064h.942c.016.205.064.394.142.566.081.173.2.322.356.45.16.123.36.22.6.292.245.069.538.103.88.103.309 0 .589-.026.84-.078a1.84 1.84 0 00.644-.25c.18-.113.316-.26.41-.439.098-.182.147-.4.147-.654 0-.189-.031-.361-.093-.518a1.04 1.04 0 00-.273-.405 1.263 1.263 0 00-.464-.264 1.995 1.995 0 00-.66-.097h-1.235v-.806zm8.928 1.211l-1.094-3.193-1.21 3.193h2.304zM89.081 23l2.69-7.29h1.167L95.541 23h-1.065l-.757-2.197h-2.822l-.8 2.197H89.08zm7.053-7.178h5.84v.84h-2.442V23h-.962v-6.338h-2.436v-.84zm7.014 0h.962v2.96h1.909c.429 0 .802.048 1.118.146.316.097.576.237.781.42.205.182.358.403.459.664.101.26.152.553.152.879 0 .319-.051.608-.152.869a1.825 1.825 0 01-.444.664 1.99 1.99 0 01-.713.425c-.28.1-.601.151-.962.151h-3.11v-7.178zm2.983 6.338c.195 0 .376-.021.542-.063.169-.043.316-.113.439-.21.124-.101.22-.231.289-.39.071-.164.107-.366.107-.606 0-.238-.037-.438-.112-.601a.93.93 0 00-.313-.39 1.29 1.29 0 00-.498-.215 3.151 3.151 0 00-.664-.064h-1.811v2.54h2.021zm4.436-2.759c0 .45.057.857.171 1.221.114.361.273.669.478.923a2.2 2.2 0 00.747.59c.293.137.616.206.967.206.306 0 .58-.056.82-.166.245-.11.454-.256.63-.435a2.27 2.27 0 00.425-.615c.107-.228.179-.459.215-.693h.928a2.93 2.93 0 01-.137.64 3.354 3.354 0 01-.708 1.206 2.892 2.892 0 01-1.299.786 3.101 3.101 0 01-.874.117 3.91 3.91 0 01-.703-.069 3.297 3.297 0 01-1.45-.66 2.782 2.782 0 01-.596-.683 3.664 3.664 0 01-.415-.966 4.891 4.891 0 01-.156-1.304c0-.485.045-.918.136-1.299.095-.38.222-.713.381-.996.163-.286.352-.529.567-.727a3.091 3.091 0 011.469-.752 3.921 3.921 0 011.685.02c.27.064.511.155.723.273a2.54 2.54 0 01.962.889c.11.169.195.343.254.522.061.179.099.353.112.522h-.938a2.115 2.115 0 00-.273-.62 1.74 1.74 0 00-.44-.459 1.834 1.834 0 00-.576-.288 2.204 2.204 0 00-.683-.103 2.38 2.38 0 00-1.001.205 2.16 2.16 0 00-.762.587 2.677 2.677 0 00-.488.922c-.114.358-.171.76-.171 1.206zM123.147 23h-.962v-3.052h-1.787c-.199 0-.366.003-.503.01a2.532 2.532 0 00-.347.03 1.135 1.135 0 00-.244.058.936.936 0 00-.532.483 1.68 1.68 0 00-.098.337 4.054 4.054 0 00-.058.493l-.049.782a6.43 6.43 0 01-.024.258 1.978 1.978 0 01-.176.601h-1.104a1.018 1.018 0 00.21-.327c.03-.075.056-.163.078-.264.023-.1.041-.221.054-.361l.083-.977a5.13 5.13 0 01.059-.469c.026-.15.073-.29.141-.42.069-.13.168-.247.298-.35a1.65 1.65 0 01.542-.26 5.368 5.368 0 01-.366-.156 1.472 1.472 0 01-.733-.786c-.087-.208-.131-.472-.131-.791 0-.228.026-.435.078-.62.052-.186.12-.35.205-.493.084-.147.181-.27.288-.371a1.8 1.8 0 01.337-.254c.12-.069.259-.122.415-.161.159-.04.321-.067.483-.084a6.1 6.1 0 01.469-.029c.153-.003.287-.005.4-.005h2.974V23zm-.962-6.328h-2.197a7.604 7.604 0 00-.523.019 1.49 1.49 0 00-.253.05.893.893 0 00-.474.293c-.068.08-.125.17-.171.268a1.46 1.46 0 00-.093.303 1.713 1.713 0 00-.014.537c.009.081.03.167.063.258.033.088.078.176.137.264a.98.98 0 00.234.234c.085.066.169.116.254.152a1.52 1.52 0 00.591.093c.114 0 .239-.002.376-.005h2.07v-2.466zm5.835-.85h5.737V23h-.962v-6.338h-3.818V23h-.957v-7.178zm14.172 3.59c0 .308-.031.618-.093.927a4.082 4.082 0 01-.283.879 3.753 3.753 0 01-.479.776 3.078 3.078 0 01-.674.625 3.16 3.16 0 01-.884.41 3.638 3.638 0 01-1.083.152c-.398 0-.761-.05-1.089-.152a3.186 3.186 0 01-.884-.41 3.245 3.245 0 01-.674-.625c-.192-.24-.352-.5-.478-.776a4.085 4.085 0 01-.284-.88 4.708 4.708 0 01-.092-.927c0-.556.078-1.066.234-1.528.159-.462.389-.86.688-1.192.3-.332.666-.589 1.099-.771.433-.186.926-.278 1.48-.278.55 0 1.041.092 1.474.278.436.182.803.44 1.099.771.299.332.527.73.683 1.192.16.462.24.972.24 1.528zm-.957 0c0-.427-.057-.82-.171-1.178a2.647 2.647 0 00-.498-.927 2.196 2.196 0 00-.796-.606 2.525 2.525 0 00-1.074-.22 2.54 2.54 0 00-1.08.22 2.236 2.236 0 00-.8.606 2.69 2.69 0 00-.494.927c-.113.358-.17.75-.17 1.177 0 .436.052.835.156 1.196.104.358.262.666.473.923.212.257.476.458.791.6.319.14.694.21 1.124.21.426 0 .799-.07 1.118-.21.319-.142.582-.343.791-.6.211-.257.369-.565.473-.923.104-.36.157-.76.157-1.196zM62.224 31.089l2.434 10.503 2.918-10.503h1.899l2.918 10.503 2.434-10.503h1.916L73.351 44h-1.837l-2.98-10.705L65.537 44H63.7l-3.375-12.911h1.899zm15.934-.044h1.582v4.816c.375-.474.712-.808 1.011-1.002.51-.334 1.145-.5 1.907-.5 1.365 0 2.291.477 2.778 1.432.263.522.395 1.245.395 2.17V44h-1.626v-5.933c0-.691-.088-1.198-.264-1.52-.287-.516-.826-.774-1.617-.774-.656 0-1.25.226-1.784.677-.533.451-.8 1.304-.8 2.558V44h-1.582V31.045zm11.233 10.45c0 .457.167.818.5 1.081.335.264.73.396 1.187.396.557 0 1.096-.13 1.617-.387.88-.428 1.319-1.128 1.319-2.1V39.21a2.71 2.71 0 01-.747.308c-.305.082-.604.14-.897.175l-.958.123c-.574.077-1.005.197-1.292.36-.486.276-.73.716-.73 1.32zm3.832-3.2c.363-.046.606-.198.73-.456.07-.14.105-.343.105-.607 0-.539-.194-.928-.58-1.169-.381-.246-.93-.369-1.644-.369-.826 0-1.412.223-1.758.668-.193.246-.32.613-.378 1.099h-1.476c.029-1.16.404-1.966 1.125-2.417.726-.457 1.567-.686 2.522-.686 1.108 0 2.007.211 2.698.633.686.422 1.029 1.078 1.029 1.969v5.423a.72.72 0 00.096.395c.07.1.214.15.431.15.07 0 .15-.003.237-.01.088-.01.182-.025.282-.043v1.169a4.54 4.54 0 01-.563.132 4.109 4.109 0 01-.527.026c-.545 0-.94-.193-1.187-.58-.129-.205-.22-.495-.272-.87-.323.422-.785.788-1.389 1.099a4.296 4.296 0 01-1.995.465c-.873 0-1.588-.263-2.145-.79-.55-.534-.826-1.199-.826-1.996 0-.873.273-1.55.818-2.03.545-.48 1.26-.776 2.144-.888l2.523-.316zm5.29-6.336h1.6v2.628h1.503v1.292h-1.503v6.144c0 .328.112.547.334.659.123.064.328.096.615.096h.247c.087-.005.19-.014.307-.026V44a3.52 3.52 0 01-.571.114 5.28 5.28 0 01-.633.035c-.738 0-1.24-.187-1.503-.562-.264-.38-.395-.873-.395-1.477v-6.23h-1.275v-1.292h1.275V31.96zm5.634 9.088c.047.527.179.931.396 1.213.398.51 1.09.764 2.074.764.586 0 1.102-.126 1.547-.377.445-.258.668-.654.668-1.187 0-.404-.179-.712-.536-.923-.229-.129-.68-.278-1.354-.448l-1.256-.316c-.803-.2-1.395-.422-1.776-.669-.68-.427-1.019-1.019-1.019-1.775 0-.89.319-1.611.958-2.162.644-.55 1.508-.826 2.592-.826 1.418 0 2.441.416 3.068 1.248.392.527.583 1.096.571 1.705h-1.494a1.825 1.825 0 00-.378-.976c-.363-.416-.993-.624-1.89-.624-.597 0-1.051.115-1.362.343-.305.229-.457.53-.457.905 0 .41.202.739.606.985.235.146.581.275 1.038.386l1.045.255c1.137.276 1.899.542 2.286.8.615.404.922 1.04.922 1.907 0 .838-.319 1.562-.958 2.171-.632.61-1.599.914-2.9.914-1.4 0-2.393-.316-2.979-.949-.58-.639-.891-1.427-.932-2.364h1.52zm14.898-2.338l-1.96-5.704-2.083 5.704h4.043zm-2.874-7.62h1.977L122.833 44h-1.916l-1.31-3.867h-5.106L113.104 44h-1.793l4.86-12.911zm12.015 11.848c.738 0 1.35-.308 1.836-.923.493-.621.739-1.547.739-2.778 0-.75-.109-1.394-.325-1.933-.411-1.037-1.161-1.556-2.25-1.556-1.096 0-1.846.548-2.25 1.644-.217.586-.326 1.33-.326 2.232 0 .727.109 1.345.326 1.855.41.972 1.16 1.459 2.25 1.459zm-4.096-8.306h1.538v1.248c.316-.428.662-.759 1.037-.993.533-.352 1.16-.528 1.881-.528 1.066 0 1.972.41 2.716 1.23.744.815 1.116 1.981 1.116 3.499 0 2.05-.536 3.515-1.608 4.394-.68.557-1.471.835-2.374.835-.708 0-1.303-.155-1.784-.465-.281-.176-.594-.478-.94-.906v4.808h-1.582V34.63zm14.115 8.306c.738 0 1.351-.308 1.837-.923.492-.621.738-1.547.738-2.778 0-.75-.108-1.394-.325-1.933-.41-1.037-1.16-1.556-2.25-1.556-1.096 0-1.846.548-2.25 1.644-.217.586-.325 1.33-.325 2.232 0 .727.108 1.345.325 1.855.41.972 1.16 1.459 2.25 1.459zm-4.096-8.306h1.538v1.248c.317-.428.663-.759 1.038-.993.533-.352 1.16-.528 1.88-.528 1.067 0 1.972.41 2.716 1.23.744.815 1.116 1.981 1.116 3.499 0 2.05-.536 3.515-1.608 4.394-.68.557-1.471.835-2.373.835-.709 0-1.304-.155-1.784-.465-.281-.176-.595-.478-.941-.906v4.808h-1.582V34.63z" fill="#fff"/><g clip-path="url(#clip0)"><path d="M8.906 48a.83.83 0 01-.8-1.049l2.535-9.258a19.352 19.352 0 01-2.41-9.361C8.236 17.672 16.911 9 27.57 9a19.221 19.221 0 0113.68 5.67 19.219 19.219 0 015.658 13.677c-.005 10.66-8.68 19.332-19.338 19.332h-.008c-3.113 0-6.2-.76-8.948-2.197l-9.497 2.49a.832.832 0 01-.21.028z" fill="#E5E5E5"/><path d="M8.906 47.17l2.626-9.588a18.469 18.469 0 01-2.47-9.25C9.064 18.13 17.367 9.83 27.568 9.83a18.39 18.39 0 0113.092 5.426 18.39 18.39 0 015.416 13.09c-.005 10.202-8.308 18.504-18.508 18.504h-.008a18.492 18.492 0 01-8.844-2.253l-9.81 2.573zm10.266-5.922l.562.333a15.362 15.362 0 007.83 2.144h.005c8.479 0 15.38-6.9 15.383-15.38a15.285 15.285 0 00-4.501-10.88 15.282 15.282 0 00-10.876-4.51c-8.485 0-15.386 6.899-15.389 15.378a15.337 15.337 0 002.352 8.184l.366.582-1.554 5.675 5.822-1.526z" fill="#fff"/><path d="M9.55 46.524l2.534-9.256a17.829 17.829 0 01-2.385-8.93c.004-9.849 8.02-17.862 17.867-17.862a17.752 17.752 0 0112.639 5.239 17.752 17.752 0 015.228 12.637c-.004 9.849-8.02 17.862-17.866 17.862h-.008a17.865 17.865 0 01-8.538-2.173L9.55 46.524z" fill="#5A9B44"/><path d="M8.906 47.17l2.626-9.588a18.469 18.469 0 01-2.47-9.25C9.064 18.13 17.367 9.83 27.568 9.83a18.39 18.39 0 0113.092 5.426 18.39 18.39 0 015.416 13.09c-.005 10.202-8.308 18.504-18.508 18.504h-.008a18.492 18.492 0 01-8.844-2.253l-9.81 2.573zm10.266-5.922l.562.333a15.362 15.362 0 007.83 2.144h.005c8.479 0 15.38-6.9 15.383-15.38a15.285 15.285 0 00-4.501-10.88 15.282 15.282 0 00-10.876-4.51c-8.485 0-15.386 6.899-15.389 15.378a15.337 15.337 0 002.352 8.184l.366.582-1.554 5.675 5.822-1.526z" fill="#fff"/><path fill-rule="evenodd" clip-rule="evenodd" d="M22.944 20.597c-.347-.77-.711-.786-1.041-.8-.27-.01-.578-.01-.886-.01-.308 0-.81.116-1.233.579-.424.462-1.62 1.581-1.62 3.856 0 2.276 1.658 4.475 1.89 4.784.23.308 3.199 5.127 7.899 6.98 3.906 1.54 4.701 1.234 5.55 1.157.847-.077 2.735-1.118 3.12-2.198.386-1.08.386-2.005.27-2.2-.115-.192-.424-.307-.886-.538-.462-.232-2.736-1.35-3.16-1.505-.424-.154-.732-.231-1.04.232-.31.462-1.195 1.504-1.464 1.812-.27.31-.54.348-1.003.116-.462-.232-1.952-.72-3.718-2.295-1.375-1.226-2.303-2.74-2.573-3.203-.27-.462-.005-.69.203-.943.374-.455 1.002-1.273 1.156-1.581.154-.309.077-.579-.039-.81-.116-.232-1.014-2.519-1.425-3.433z" fill="#fff"/></g><defs><clipPath id="clip0"><path fill="#fff" transform="translate(8 9)" d="M0 0h39v39H0z"/></clipPath></defs></svg>