<svg width="18" height="18" fill="none" xmlns="http://www.w3.org/2000/svg"><path fill-rule="evenodd" clip-rule="evenodd" d="M9 0H5.217C4.46 0 3.79.18 3.286.316 3.184.344 3.088.369 3 .391c-.652.261-1.174.522-1.565 1.044C.913 1.957.652 2.478.39 3 .131 3.522 0 4.304 0 5.217v7.566c0 .758.18 1.427.316 1.931.028.102.053.198.075.286.261.652.522 1.174 1.044 1.565S2.478 17.348 3 17.61c.522.26 1.304.391 2.217.391h7.566c.758 0 1.427-.18 1.931-.316.102-.027.198-.053.286-.075.652-.261 1.174-.522 1.565-1.044.391-.521.783-1.043 1.044-1.565.26-.522.391-1.304.391-2.217V5.217c0-.758-.18-1.427-.316-1.931-.027-.102-.053-.198-.075-.286-.261-.652-.522-1.174-1.044-1.565C16.044.913 15.522.652 15 .39 14.478.131 13.696 0 12.783 0H9zm6 4.304c0 .652-.522 1.044-1.044 1.044s-1.043-.522-1.043-1.044c0-.652.521-1.043 1.043-1.043.522 0 1.044.391 1.044 1.043zM9 12.13c-1.696 0-3-1.304-3-3 0-1.695 1.304-3 3-3 1.695 0 3 1.305 3 3 0 1.696-1.305 3-3 3zm0-7.695A4.676 4.676 0 004.303 9.13a4.676 4.676 0 004.695 4.696 4.676 4.676 0 004.696-4.696 4.676 4.676 0 00-4.696-4.695z" fill="#4E4E50"/></svg>