<svg width="168" height="27" fill="none" xmlns="http://www.w3.org/2000/svg"><path fill-rule="evenodd" clip-rule="evenodd" d="M12.738.627c.336-.836 1.52-.836 1.856 0l2.976 7.411a1 1 0 00.86.625l7.969.54c.899.062 1.265 1.188.573 1.766l-6.129 5.12a1 1 0 00-.328 1.012l1.948 7.745c.22.874-.738 1.57-1.501 1.09l-6.764-4.246a1 1 0 00-1.064 0l-6.763 4.247c-.764.479-1.722-.217-1.502-1.091L6.818 17.1a1 1 0 00-.329-1.011L.36 10.969c-.69-.579-.325-1.704.574-1.765l7.968-.54a1 1 0 00.86-.626l2.976-7.41zm35 0c.336-.836 1.52-.836 1.856 0l2.976 7.411a1 1 0 00.86.625l7.969.54c.899.062 1.265 1.188.573 1.766l-6.129 5.12a1 1 0 00-.328 1.012l1.948 7.745c.22.874-.738 1.57-1.501 1.09l-6.764-4.246a1 1 0 00-1.063 0l-6.764 4.247c-.764.479-1.722-.217-1.502-1.091l1.949-7.745a1 1 0 00-.329-1.011l-6.129-5.121c-.691-.578-.325-1.704.574-1.765l7.968-.54a1 1 0 00.86-.626l2.976-7.41zm36.856 0c-.336-.836-1.52-.836-1.856 0l-2.976 7.411a1 1 0 01-.86.625l-7.968.54c-.9.062-1.265 1.188-.574 1.766l6.129 5.12a1 1 0 01.329 1.012l-1.949 7.745c-.22.874.738 1.57 1.502 1.09l6.764-4.246a1 1 0 011.063 0l6.764 4.247c.763.479 1.721-.217 1.501-1.091L90.515 17.1a1 1 0 01.329-1.011l6.128-5.121c.692-.578.326-1.704-.573-1.765l-7.968-.54a1 1 0 01-.86-.626L84.593.628zm33.144 0c.336-.836 1.52-.836 1.856 0l2.976 7.411a1 1 0 00.861.625l7.968.54c.899.062 1.265 1.188.573 1.766l-6.129 5.12a1 1 0 00-.328 1.012l1.948 7.745c.22.874-.738 1.57-1.501 1.09l-6.764-4.246a1 1 0 00-1.063 0l-6.764 4.247c-.764.479-1.722-.217-1.502-1.091l1.949-7.745a1 1 0 00-.329-1.011l-6.129-5.121c-.691-.578-.325-1.704.574-1.765l7.968-.54a1 1 0 00.86-.626l2.976-7.41zm36.856 0c-.336-.836-1.52-.836-1.856 0l-2.976 7.411a1 1 0 01-.86.625l-7.968.54c-.899.062-1.265 1.188-.574 1.766l6.129 5.12a1 1 0 01.329 1.012l-1.949 7.745c-.22.874.738 1.57 1.502 1.09l6.764-4.246a1 1 0 011.063 0l6.764 4.247c.763.479 1.721-.217 1.501-1.091l-1.948-7.745a1 1 0 01.328-1.011l6.129-5.121c.692-.578.326-1.704-.573-1.765l-7.968-.54a1 1 0 01-.861-.626l-2.976-7.41z" fill="#EAC855"/></svg>