<svg width="26" height="26" viewBox="0 0 26 26" fill="none" xmlns="http://www.w3.org/2000/svg">
<g clip-path="url(#clip0)">
<path d="M1.62469 1.76915C-0.41848 3.8914 -0.000313103 6.14582 -0.000313103 12.9947C-0.000313103 18.6822 -0.992647 24.3837 4.20085 25.726C5.8226 26.1431 20.1919 26.1431 21.8115 25.7238C23.9739 25.1659 25.7332 23.412 25.9737 20.3537C26.0073 19.9269 26.0073 6.06999 25.9726 5.63449C25.7169 2.3769 23.7117 0.499487 21.0694 0.119237C20.4639 0.0314873 20.3425 0.00548727 17.2355 7.06017e-05C6.21477 0.00548727 3.79894 -0.485263 1.62469 1.76915Z" fill="url(#paint0_linear)"/>
<path d="M12.9983 3.40062C9.0647 3.40062 5.32937 3.05071 3.90262 6.71237C3.31328 8.22471 3.39887 10.1888 3.39887 13.0011C3.39887 15.469 3.31978 17.7884 3.90262 19.2888C5.32612 22.9526 9.09178 22.6016 12.9961 22.6016C16.7629 22.6016 20.6466 22.9938 22.0907 19.2888C22.6811 17.7613 22.5945 15.8265 22.5945 13.0011C22.5945 9.25062 22.8014 6.82937 20.9825 5.01154C19.1408 3.16987 16.6502 3.40062 12.994 3.40062H12.9983ZM12.1381 5.13071C20.3433 5.11771 21.3876 4.20554 20.8113 16.8773C20.6065 21.359 17.194 20.8672 12.9994 20.8672C5.35103 20.8672 5.13112 20.6484 5.13112 12.9968C5.13112 5.25637 5.73778 5.13504 12.1381 5.12854V5.13071ZM18.1225 6.72429C17.4865 6.72429 16.9709 7.23996 16.9709 7.87587C16.9709 8.51179 17.4865 9.02746 18.1225 9.02746C18.7584 9.02746 19.274 8.51179 19.274 7.87587C19.274 7.23996 18.7584 6.72429 18.1225 6.72429ZM12.9983 8.07087C10.2759 8.07087 8.06912 10.2787 8.06912 13.0011C8.06912 15.7235 10.2759 17.9303 12.9983 17.9303C15.7207 17.9303 17.9264 15.7235 17.9264 13.0011C17.9264 10.2787 15.7207 8.07087 12.9983 8.07087ZM12.9983 9.80096C17.2287 9.80096 17.2341 16.2013 12.9983 16.2013C8.76895 16.2013 8.76245 9.80096 12.9983 9.80096Z" fill="white"/>
</g>
<defs>
<linearGradient id="paint0_linear" x1="1.67454" y1="24.3394" x2="25.8388" y2="3.42554" gradientUnits="userSpaceOnUse">
<stop stop-color="#FFDD55"/>
<stop offset="0.5" stop-color="#FF543E"/>
<stop offset="1" stop-color="#C837AB"/>
</linearGradient>
<clipPath id="clip0">
<rect width="26" height="26" fill="white"/>
</clipPath>
</defs>
</svg>
