<svg width="74" height="73" viewBox="0 0 74 73" fill="none" xmlns="http://www.w3.org/2000/svg">
<path d="M73.3396 32.6402C73.2778 32.0515 72.9749 31.5146 72.5032 31.1572L66.7442 26.7949L68.8395 19.8811C69.0112 19.3144 68.9408 18.7021 68.6448 18.1894C68.3489 17.6768 67.8538 17.3096 67.2774 17.1749L60.2417 15.5322L59.3435 8.36368C59.27 7.77638 58.9566 7.24559 58.4776 6.89784C57.999 6.54966 57.3972 6.41533 56.816 6.52708L49.7206 7.88799L45.984 1.70469C45.6778 1.19818 45.1756 0.840776 44.5966 0.717805C44.0176 0.594693 43.4135 0.716669 42.9277 1.05505L36.9997 5.18421L31.0715 1.05519C30.5856 0.716953 29.9813 0.594835 29.4026 0.717947C28.8235 0.840918 28.3214 1.19818 28.0152 1.70498L24.2791 7.88842L17.1838 6.52751C16.6024 6.41618 16.0008 6.55023 15.522 6.89827C15.0432 7.24616 14.7296 7.77666 14.6562 8.36411L13.7581 15.5326L6.72237 17.1754C6.14586 17.31 5.651 17.6772 5.35493 18.1898C5.05901 18.7026 4.98858 19.3147 5.16011 19.8811L7.25515 26.7952L1.49656 31.1572C1.0247 31.5146 0.721963 32.0514 0.660194 32.6401C0.598283 33.2288 0.782738 33.8168 1.17011 34.2645L5.89594 39.7288L2.40918 46.056C2.12348 46.5745 2.06526 47.188 2.24816 47.7511C2.43119 48.3138 2.83887 48.776 3.37477 49.0275L9.91463 52.0969L9.30276 59.2956C9.25249 59.8855 9.44873 60.4698 9.84505 60.9097C10.2409 61.3496 10.8017 61.6058 11.3934 61.6177L18.6168 61.7617L20.9856 68.5867C21.1796 69.1459 21.5965 69.6 22.1372 69.8407C22.6783 70.0817 23.2944 70.0875 23.8399 69.8577L30.4977 67.0514L35.4378 72.323C35.8426 72.7549 36.408 73 36.9999 73C37.5919 73 38.1573 72.7549 38.5621 72.323L43.5024 67.0514L50.1595 69.8577C50.705 70.0873 51.3214 70.0812 51.8621 69.8407C52.4028 69.6 52.8199 69.1462 53.0138 68.5869L55.3829 61.7617L62.6061 61.6177C63.1978 61.6059 63.7584 61.3496 64.1544 60.9097C64.5505 60.4698 64.7468 59.8856 64.6967 59.2956L64.0849 52.0969L70.6251 49.0275C71.1612 48.776 71.5689 48.3138 71.7517 47.7509C71.9346 47.1882 71.8764 46.5745 71.5906 46.0559L68.1035 39.7286L72.8298 34.2644C73.2169 33.817 73.4013 33.2288 73.3396 32.6402ZM36.9997 57.3226C25.7029 57.3226 16.5126 48.1321 16.5126 36.8354C16.5126 25.5388 25.7031 16.3482 36.9997 16.3482C48.2964 16.3482 57.4869 25.5389 57.4869 36.8354C57.4869 48.1319 48.2964 57.3226 36.9997 57.3226Z" fill="#1F72E4"/>
<path d="M37.002 20.6302C28.0665 20.6302 20.7969 27.8998 20.7969 36.8353C20.7969 45.7708 28.0666 53.0404 37.002 53.0404C45.9377 53.0404 53.2071 45.7708 53.2071 36.8353C53.2071 27.8998 45.9376 20.6302 37.002 20.6302ZM45.3957 33.7629L36.2228 42.9358C35.8046 43.3538 35.2568 43.563 34.7088 43.563C34.161 43.563 33.613 43.3538 33.1951 42.9358L28.6083 38.3493C27.7724 37.5133 27.7724 36.1577 28.6083 35.3214C29.4443 34.4855 30.8001 34.4852 31.6361 35.3214L34.7088 38.394L42.3679 30.735C43.204 29.8991 44.5597 29.8988 45.3959 30.735C46.2318 31.5711 46.2318 32.9268 45.3957 33.7629Z" fill="#1F72E4"/>
</svg>
