<svg width="82" height="47" viewBox="0 0 82 47" fill="none" xmlns="http://www.w3.org/2000/svg">
<path d="M51.0465 29.0876C48.9853 27.9617 46.6214 27.3227 44.1085 27.3227H38.1363C35.5529 27.3227 33.1282 27.9986 31.0285 29.1821C26.613 31.6678 23.6309 36.4004 23.6309 41.8281V46.3029H58.6139V41.8281C58.6139 36.3299 55.5549 31.5476 51.0465 29.0876Z" fill="#1F72E4"/>
<path d="M67.5388 23.3476H62.5739C59.6751 23.3476 56.9732 24.2045 54.707 25.6811C55.7961 26.3954 56.8195 27.2298 57.7628 28.1732C61.4096 31.8199 63.418 36.6695 63.418 41.8281V43.9326H82.0009V37.8098C82.0009 29.8356 75.513 23.3476 67.5388 23.3476Z" fill="#1F72E4"/>
<path d="M19.427 23.3476H14.4622C6.48795 23.3476 0 29.8356 0 37.8098V43.9326H18.8248V41.8281C18.8248 36.6695 20.8348 31.8199 24.4816 28.1732C25.3896 27.2651 26.3714 26.4579 27.4156 25.7612C25.1254 24.2365 22.3787 23.3476 19.427 23.3476Z" fill="#1F72E4"/>
<path d="M65.0487 1.59693C65.0233 1.59693 64.9969 1.59709 64.9712 1.59741C59.5967 1.64178 55.2622 6.28712 55.309 11.9523C55.3556 17.5907 59.7237 22.1466 65.0635 22.1466C65.0891 22.1466 65.1154 22.1465 65.141 22.1462C67.7764 22.1244 70.2356 21.0142 72.0658 19.0197C73.8535 17.0716 74.8257 14.5046 74.8034 11.7912C74.7568 6.15291 70.3887 1.59693 65.0487 1.59693Z" fill="#1F72E4"/>
<path d="M16.9374 1.59693C16.9119 1.59693 16.8855 1.59709 16.8599 1.59741C11.4854 1.64178 7.15087 6.28712 7.19764 11.9523C7.24409 17.5907 11.6124 22.1466 16.9521 22.1466C16.9778 22.1466 17.004 22.1465 17.0297 22.1462C19.6649 22.1244 22.1242 21.0142 23.9545 19.0197C25.7423 17.0716 26.7145 14.5046 26.6921 11.7912C26.6455 6.15291 22.2774 1.59693 16.9374 1.59693Z" fill="#1F72E4"/>
<path d="M41.1214 0C34.9249 0 29.8848 5.32521 29.8848 11.8724C29.8848 16.6034 32.5177 20.6971 36.3183 22.6029C37.7757 23.3348 39.4045 23.7432 41.1214 23.7432C42.8382 23.7432 44.467 23.3348 45.9245 22.6029C49.725 20.6971 52.358 16.6034 52.358 11.8724C52.358 5.32521 47.3178 0 41.1214 0Z" fill="#1F72E4"/>
</svg>
