<svg width="70" height="67" viewBox="0 0 70 67" fill="none" xmlns="http://www.w3.org/2000/svg">
<path d="M16.2786 12.7296L44.0504 5.1491L42.5797 2.17634C41.6174 0.244047 39.2705 -0.553905 37.3382 0.408331L12.4766 12.7296H16.2786Z" fill="#1F72E4"/>
<path d="M52.6738 5.36815C52.3297 5.36815 51.9854 5.41509 51.6412 5.50896L45.1168 7.29262L25.1914 12.7296H47.8079H57.6649L56.4445 8.25486C55.9751 6.51031 54.3949 5.36815 52.6738 5.36815Z" fill="#1F72E4"/>
<path d="M61.7396 15.4677H60.8477H59.6352H58.4226H49.1679H15.1611H10.7019H6.94687H6.25062H3.91935C2.68331 15.4677 1.58026 16.0388 0.860536 16.9385C0.531968 17.3531 0.28163 17.8303 0.140815 18.3544C0.0547614 18.683 0 19.0272 0 19.3793V19.8486V24.3078V62.9615C0 65.1207 1.75236 66.873 3.91153 66.873H61.7317C63.891 66.873 65.6433 65.1207 65.6433 62.9615V52.0483H42.4323C38.7632 52.0483 35.7827 49.0678 35.7827 45.3987V41.8158V40.6032V39.3906V36.6995C35.7827 34.9002 36.5023 33.2653 37.668 32.0683C38.7007 31.0043 40.0853 30.2846 41.6343 30.1047C41.8925 30.0735 42.1584 30.0577 42.4244 30.0577H62.3889H63.6014H64.814H65.6433V19.3793C65.6511 17.2201 63.8987 15.4677 61.7396 15.4677Z" fill="#1F72E4"/>
<path d="M68.3879 33.7971C67.9968 33.4373 67.5352 33.1635 67.0189 32.9835C66.6199 32.8506 66.1975 32.7724 65.7516 32.7724H65.6499H65.5716H64.3591H59.986H42.4311C40.2718 32.7724 38.5195 34.5247 38.5195 36.6839V38.6318V39.8444V41.0569V45.3909C38.5195 47.5501 40.2718 49.3024 42.4311 49.3024H65.6499H65.7516C66.1975 49.3024 66.6199 49.2242 67.0189 49.0912C67.5352 48.9191 67.9968 48.6375 68.3879 48.2776C69.1703 47.5657 69.6631 46.5331 69.6631 45.391V36.6839C69.6631 35.5417 69.1703 34.509 68.3879 33.7971ZM50.5983 41.8158C50.5983 42.8954 49.7221 43.7715 48.6426 43.7715H47.3439C46.2644 43.7715 45.3882 42.8954 45.3882 41.8158V40.5171C45.3882 39.8913 45.6776 39.3358 46.1392 38.9837C46.4756 38.7256 46.8903 38.5614 47.3439 38.5614H47.6725H48.6426C49.7221 38.5614 50.5983 39.4375 50.5983 40.5171V41.8158Z" fill="#1F72E4"/>
</svg>
