<svg width="70" height="70" viewBox="0 0 70 70" fill="none" xmlns="http://www.w3.org/2000/svg">
<path d="M69.3648 14.0378L60.7143 22.6571H54.2389H50.6923L49.1113 24.2324L43.0976 30.2243L39.3506 33.9577L36.1822 37.1147C35.7082 37.587 35.0873 37.8231 34.4661 37.8231C33.8222 37.8231 33.1776 37.5691 32.6978 37.0614C31.7868 36.0974 31.8823 34.5595 32.8217 33.6231L39.1258 27.3418L39.6086 26.8608L45.6483 20.843L47.2597 19.2373V15.7946V9.25155L50.2508 6.2713L55.9103 0.632279C55.9851 0.55773 56.0636 0.492627 56.1439 0.431909C56.1632 0.417404 56.1821 0.403236 56.2018 0.389406C56.282 0.332736 56.3639 0.280451 56.4479 0.236599C56.4547 0.232888 56.4618 0.230527 56.4689 0.226817C56.5484 0.186675 56.6294 0.152943 56.7113 0.123596C56.7319 0.116175 56.7523 0.108754 56.7729 0.102007C56.8599 0.0740094 56.9479 0.0503968 57.0366 0.0342053C57.0488 0.031844 57.0613 0.0311694 57.0735 0.0288081C57.1534 0.0156525 57.2333 0.00755679 57.3136 0.00350891C57.3342 0.00249695 57.3545 0.00114766 57.3752 0.00047301C57.4646 -0.0012136 57.5536 0.00148498 57.6419 0.0105927C57.6565 0.0122793 57.6711 0.0149779 57.6856 0.0166645C57.7621 0.0261095 57.8383 0.0399398 57.9131 0.0574806C57.9341 0.0625404 57.9554 0.0669256 57.9764 0.0723228C58.0621 0.0949234 58.1467 0.121572 58.2286 0.153955C58.2408 0.158677 58.2523 0.164749 58.2642 0.169472C58.3363 0.199493 58.4064 0.233563 58.4748 0.271006C58.4944 0.2818 58.514 0.292257 58.533 0.303389C58.6095 0.348253 58.684 0.39649 58.7547 0.450124C58.7632 0.456533 58.771 0.463954 58.7791 0.470364C58.8421 0.51995 58.902 0.573247 58.9596 0.629917C58.9758 0.645771 58.9921 0.661626 59.0076 0.678154C59.0696 0.743258 59.1288 0.81106 59.1827 0.884259C59.1871 0.89033 59.1908 0.897077 59.1955 0.903486C59.2446 0.971963 59.2886 1.04415 59.3296 1.11904C59.3408 1.13961 59.3519 1.16019 59.3624 1.18144C59.4041 1.26442 59.4427 1.3501 59.4735 1.4405C59.4748 1.44489 59.4759 1.44927 59.4772 1.45366C59.5063 1.54035 59.5283 1.63075 59.5463 1.72352C59.551 1.74814 59.5554 1.7731 59.5595 1.79807C59.575 1.89724 59.5869 1.99844 59.5893 2.10402L59.7629 10.1984L59.9366 10.2021L67.8864 10.3715C68.3153 10.3806 68.6911 10.5088 69.0056 10.7108C69.1258 10.7881 69.2399 10.8724 69.3404 10.9702C69.4857 11.1119 69.6096 11.2728 69.7091 11.4472C69.8086 11.6216 69.8845 11.8091 69.9336 12.0038C70.1059 12.6858 69.9522 13.4529 69.3648 14.0378ZM34.0378 16.9395C23.4427 16.9395 14.8226 25.5284 14.8226 36.0852C14.8226 46.6421 23.4427 55.231 34.0378 55.231C44.633 55.231 53.253 46.6421 53.253 36.0852C53.253 33.4811 52.7239 30.9998 51.7736 28.7356L44.8297 35.6545C44.8354 35.7982 44.8456 35.9405 44.8456 36.0856C44.8456 42.0238 39.9972 46.8546 34.0375 46.8546C28.0777 46.8546 23.2294 42.0235 23.2294 36.0856C23.2294 30.1683 28.0445 25.352 33.9752 25.3182L41.0545 18.2645C38.88 17.4104 36.5133 16.9395 34.0378 16.9395ZM64.3049 26.2351C63.3525 27.184 62.061 27.7169 60.7139 27.7169H56.8288C57.7977 30.3261 58.3312 33.1441 58.3312 36.0849C58.3312 49.4321 47.4334 60.2905 34.0378 60.2905C20.6422 60.2905 9.74438 49.4321 9.74438 36.0849C9.74438 22.7377 20.6422 11.8793 34.0378 11.8793C36.8945 11.8793 39.6347 12.3782 42.1815 13.2863V9.25155C42.1815 7.90968 42.7164 6.62246 43.6688 5.67357L45.2752 4.07297C41.7553 2.84275 37.9741 2.17047 34.0375 2.17047C15.2691 2.17081 0 17.3847 0 36.0852C0 54.7857 15.2695 70 34.0378 70C52.8061 70 68.0756 54.7857 68.0756 36.0852C68.0756 32.0232 67.3525 28.1271 66.0318 24.5147L64.3049 26.2351Z" fill="#1F72E4"/>
</svg>
