<svg width="68" height="68" viewBox="0 0 68 68" fill="none" xmlns="http://www.w3.org/2000/svg">
<path d="M34.0664 52.6619C37.7339 52.6619 40.707 49.6889 40.707 46.0215C40.707 42.3542 37.7339 39.3812 34.0664 39.3812C30.3989 39.3812 27.4258 42.3542 27.4258 46.0215C27.4258 49.6889 30.3989 52.6619 34.0664 52.6619Z" fill="#1F72E4"/>
<path d="M66.0078 0H1.99219C0.891969 0 0 0.891836 0 1.99205V49.8022C0 50.9024 0.891969 51.7942 1.99219 51.7942H25.1536C20.5867 44.7683 25.6527 35.3969 34.0664 35.3969C42.4801 35.3969 47.5461 44.7682 42.9792 51.7942H66.0078C67.108 51.7942 68 50.9024 68 49.8022V1.99205C68 0.891836 67.108 0 66.0078 0V0ZM26.0312 8.10116H41.9688C43.069 8.10116 43.9609 8.993 43.9609 10.0932C43.9609 11.1934 43.069 12.0853 41.9688 12.0853H26.0312C24.931 12.0853 24.0391 11.1934 24.0391 10.0932C24.0391 8.993 24.931 8.10116 26.0312 8.10116ZM53.9219 32.0062H14.0781C12.9779 32.0062 12.0859 31.1144 12.0859 30.0142C12.0859 28.9139 12.9779 28.0221 14.0781 28.0221H53.9219C55.0221 28.0221 55.9141 28.9139 55.9141 30.0142C55.9141 31.1144 55.0221 32.0062 53.9219 32.0062ZM53.9219 24.0379H14.0781C12.9779 24.0379 12.0859 23.146 12.0859 22.0458C12.0859 20.9456 12.9779 20.0538 14.0781 20.0538H53.9219C55.0221 20.0538 55.9141 20.9456 55.9141 22.0458C55.9141 23.146 55.0221 24.0379 53.9219 24.0379Z" fill="#1F72E4"/>
<path d="M26.1318 53.076V66.0046C26.1318 67.5842 27.8956 68.5461 29.2248 67.6649L34.1339 64.4105L39.0431 67.6649C40.3519 68.5327 42.136 67.6028 42.136 66.0046V52.9227C37.939 57.8221 30.4251 57.8999 26.1318 53.076Z" fill="#1F72E4"/>
</svg>
