<svg width="59" height="71" viewBox="0 0 59 71" fill="none" xmlns="http://www.w3.org/2000/svg">
<path d="M50.2901 20.0867L55.638 14.7276C56.4431 13.9206 56.4419 12.6135 55.6352 11.8082C54.8285 11.0028 53.5217 11.0039 52.7164 11.811L47.1662 17.3729C42.7526 14.0483 37.3814 11.9347 31.5483 11.5285V6.84919H34.0478C35.9388 6.84919 37.4717 5.31587 37.4717 3.4246C37.4716 1.53333 35.9387 0 34.0477 0H24.9209C23.0299 0 21.497 1.53333 21.497 3.4246C21.497 5.31601 23.0299 6.84919 24.9209 6.84919H27.4205V11.5285C21.5874 11.9346 16.2161 14.0483 11.8026 17.3729L6.25234 11.811C5.44703 11.004 4.14021 11.0029 3.33353 11.8082C2.52684 12.6135 2.5256 13.9206 3.33077 14.7276L8.6786 20.0867C3.3203 25.4388 0 32.8383 0 41.0002C0 57.2891 13.2266 70.5421 29.4844 70.5421C45.7421 70.5421 58.9687 57.2891 58.9687 41.0002C58.9687 32.8383 55.6484 25.4388 50.2901 20.0867ZM29.4844 63.2454C17.2415 63.2454 7.28126 53.2664 7.28126 41.0002C7.28126 28.7327 17.2415 18.7537 29.4844 18.7537C41.7273 18.7537 51.6875 28.7327 51.6875 41.0002C51.6875 53.2664 41.7273 63.2454 29.4844 63.2454Z" fill="#1F72E4"/>
<path d="M29.4825 22.8824C19.5154 22.8824 11.4072 31.0089 11.4072 41.0002C11.4072 50.9902 19.5154 59.1167 29.4825 59.1167C39.4496 59.1167 47.5578 50.9902 47.5578 41.0002C47.5578 31.0089 39.4496 22.8824 29.4825 22.8824ZM36.3496 43.0645H29.4825C28.3432 43.0645 27.4186 42.1398 27.4186 41.0002V31.1658C27.4186 30.0263 28.3432 29.1015 29.4825 29.1015C30.6218 29.1015 31.5464 30.0263 31.5464 31.1658V38.9359H36.3498C37.489 38.9359 38.4137 39.8593 38.4137 41.0002C38.4135 42.1398 37.4889 43.0645 36.3496 43.0645Z" fill="#1F72E4"/>
</svg>
