<svg width="43" height="41" viewBox="0 0 43 41" fill="none" xmlns="http://www.w3.org/2000/svg">
<path d="M1.25977 7.94434C1.95551 7.94434 2.51953 7.38032 2.51953 6.68457C2.51953 5.98882 1.95551 5.4248 1.25977 5.4248C0.564016 5.4248 0 5.98882 0 6.68457C0 7.38032 0.564016 7.94434 1.25977 7.94434Z" fill="white"/>
<path d="M6.38281 7.94434C7.07856 7.94434 7.64258 7.38032 7.64258 6.68457C7.64258 5.98882 7.07856 5.4248 6.38281 5.4248C5.68706 5.4248 5.12305 5.98882 5.12305 6.68457C5.12305 7.38032 5.68706 7.94434 6.38281 7.94434Z" fill="white"/>
<path d="M3.86328 12.9834C4.55903 12.9834 5.12305 12.4194 5.12305 11.7236C5.12305 11.0279 4.55903 10.4639 3.86328 10.4639C3.16753 10.4639 2.60352 11.0279 2.60352 11.7236C2.60352 12.4194 3.16753 12.9834 3.86328 12.9834Z" fill="white"/>
<path d="M1.25977 18.0225C1.95551 18.0225 2.51953 17.4584 2.51953 16.7627C2.51953 16.0669 1.95551 15.5029 1.25977 15.5029C0.564016 15.5029 0 16.0669 0 16.7627C0 17.4584 0.564016 18.0225 1.25977 18.0225Z" fill="white"/>
<path d="M6.38281 18.0225C7.07856 18.0225 7.64258 17.4584 7.64258 16.7627C7.64258 16.0669 7.07856 15.5029 6.38281 15.5029C5.68706 15.5029 5.12305 16.0669 5.12305 16.7627C5.12305 17.4584 5.68706 18.0225 6.38281 18.0225Z" fill="white"/>
<path d="M3.86328 23.0615C4.55903 23.0615 5.12305 22.4975 5.12305 21.8018C5.12305 21.106 4.55903 20.542 3.86328 20.542C3.16753 20.542 2.60352 21.106 2.60352 21.8018C2.60352 22.4975 3.16753 23.0615 3.86328 23.0615Z" fill="white"/>
<path d="M1.25977 28.1006C1.95551 28.1006 2.51953 27.5366 2.51953 26.8408C2.51953 26.1451 1.95551 25.5811 1.25977 25.5811C0.564016 25.5811 0 26.1451 0 26.8408C0 27.5366 0.564016 28.1006 1.25977 28.1006Z" fill="white"/>
<path d="M6.38281 28.1006C7.07856 28.1006 7.64258 27.5366 7.64258 26.8408C7.64258 26.1451 7.07856 25.5811 6.38281 25.5811C5.68706 25.5811 5.12305 26.1451 5.12305 26.8408C5.12305 27.5366 5.68706 28.1006 6.38281 28.1006Z" fill="white"/>
<path d="M38.7588 20.542C32.5293 20.5429 32.9031 20.5394 32.8379 20.5453V23.0581C32.9063 23.0643 32.5731 23.0607 38.7588 23.0615C39.7078 23.0615 40.4805 23.8341 40.4805 24.7832C40.4805 25.7322 39.7078 26.5049 38.7588 26.5049C37.9685 26.5049 37.2823 25.9715 37.0892 25.2073C36.9187 24.5329 36.2342 24.1239 35.5598 24.2944C34.8846 24.4649 34.4764 25.1502 34.6469 25.8246C35.1231 27.7083 36.8137 29.0244 38.7588 29.0244C41.0978 29.0244 43 27.1221 43 24.7832C43 22.4442 41.0978 20.542 38.7588 20.542Z" fill="white"/>
<path d="M38.7588 12.9834C41.0978 12.9834 43 11.0812 43 8.74219C43 6.40322 41.0978 4.50098 38.7588 4.50098C36.8137 4.50098 35.1231 5.81701 34.6469 7.70078C34.4764 8.37518 34.8846 9.06049 35.5598 9.23098C36.2334 9.40146 36.9187 8.99246 37.0892 8.31807C37.2823 7.55381 37.9685 7.02051 38.7588 7.02051C39.7078 7.02051 40.4805 7.79316 40.4805 8.74219C40.4805 9.69121 39.7078 10.4639 38.7588 10.4639C32.5293 10.4648 32.9031 10.4613 32.8379 10.4672V12.98C32.9063 12.9863 32.5731 12.9825 38.7588 12.9834Z" fill="white"/>
<path d="M37.877 16.7627C37.877 16.0673 37.3126 15.5029 36.6172 15.5029H32.8379V18.0225H36.6172C37.3126 18.0225 37.877 17.4581 37.877 16.7627Z" fill="white"/>
<path d="M41.7402 18.0225C42.436 18.0225 43 17.4584 43 16.7627C43 16.0669 42.436 15.5029 41.7402 15.5029C41.0445 15.5029 40.4805 16.0669 40.4805 16.7627C40.4805 17.4584 41.0445 18.0225 41.7402 18.0225Z" fill="white"/>
<path d="M24.0195 7.94434H30.3184V10.4639H24.0195V7.94434Z" fill="white"/>
<path d="M24.0195 12.9834H30.3184V15.5029H24.0195V12.9834Z" fill="white"/>
<path d="M10.1621 23.0615H16.4609V25.5811H10.1621V23.0615Z" fill="white"/>
<path d="M24.0195 23.0615H30.3184V25.5811H24.0195V23.0615Z" fill="white"/>
<path d="M24.0195 18.0225H30.3184V20.542H24.0195V18.0225Z" fill="white"/>
<path d="M29.0586 0.301758H11.4219C10.7261 0.301758 10.1621 0.865797 10.1621 1.56152V5.4248H17.7207C18.4164 5.4248 18.9805 5.98884 18.9805 6.68457V26.8408C18.9805 27.5365 18.4164 28.1006 17.7207 28.1006H10.1621V39.4385C10.1621 40.1342 10.7261 40.6982 11.4219 40.6982H29.0586C29.7543 40.6982 30.3184 40.1342 30.3184 39.4385V28.1006H22.7598C22.064 28.1006 21.5 27.5365 21.5 26.8408V6.68457C21.5 5.98884 22.064 5.4248 22.7598 5.4248H30.3184V1.56152C30.3184 0.865797 29.7543 0.301758 29.0586 0.301758ZM22.7598 34.3994C22.7598 35.0951 22.1957 35.6592 21.5 35.6592H18.9805C18.2847 35.6592 17.7207 35.0951 17.7207 34.3994C17.7207 33.7037 18.2847 33.1396 18.9805 33.1396H21.5C22.1957 33.1396 22.7598 33.7037 22.7598 34.3994Z" fill="white"/>
<path d="M10.1621 18.0225H16.4609V20.542H10.1621V18.0225Z" fill="white"/>
<path d="M10.1621 7.94434H16.4609V10.4639H10.1621V7.94434Z" fill="white"/>
<path d="M10.1621 12.9834H16.4609V15.5029H10.1621V12.9834Z" fill="white"/>
</svg>
