<svg width="34" height="43" viewBox="0 0 34 43" fill="none" xmlns="http://www.w3.org/2000/svg">
<path d="M29.0793 15.2106C31.6743 15.2106 33.7855 13.1086 33.7855 10.5248V4.68583C33.7855 2.10205 31.6743 0 29.0793 0C26.4843 0 24.3732 2.10205 24.3732 4.68583V5.74026H9.41222V4.68583C9.4123 2.10205 7.30114 0 4.70624 0C2.11125 0 0 2.10205 0 4.68583V10.5248C0 13.1086 2.11125 15.2106 4.70624 15.2106C7.30123 15.2106 9.41239 13.1086 9.41239 10.5248V9.47035H15.0196V21.8222H13.1461C12.3702 21.8222 11.7413 22.4485 11.7413 23.221V30.8544C11.7413 31.6269 12.3702 32.2532 13.1461 32.2532H15.0196V33.5297H9.41239V32.4752C9.41239 29.8914 7.30123 27.7894 4.70624 27.7894C2.11125 27.7894 0 29.8914 0 32.4752V38.3142C0 40.8979 2.11125 43 4.70624 43C7.30123 43 9.41239 40.8979 9.41239 38.3142V37.2597H24.3733V38.3142C24.3733 40.8979 26.4845 43 29.0795 43C31.6745 43 33.7857 40.8979 33.7857 38.3142V32.4752C33.7857 29.8914 31.6745 27.7894 29.0795 27.7894C26.4845 27.7894 24.3733 29.8914 24.3733 32.4752V33.5297H18.766V32.2532H20.8127C21.5885 32.2532 22.2175 31.6269 22.2175 30.8544V23.221C22.2175 22.4485 21.5885 21.8222 20.8127 21.8222H18.766V9.47035H24.3733V10.5248C24.3732 13.1086 26.4844 15.2106 29.0793 15.2106Z" fill="#1F72E4"/>
</svg>
