<svg width="43" height="43" viewBox="0 0 43 43" fill="none" xmlns="http://www.w3.org/2000/svg">
<path d="M12.6816 25.2793H15.2012V35.4414H12.6816V25.2793Z" fill="white"/>
<path d="M7.64258 25.2793H10.1621V35.4414H7.64258V25.2793Z" fill="white"/>
<path d="M32.8379 25.2793H35.3574V35.4414H32.8379V25.2793Z" fill="white"/>
<path d="M17.7207 25.2793H20.2402V35.4414H17.7207V25.2793Z" fill="white"/>
<path d="M22.7598 25.2793H25.2793V35.4414H22.7598V25.2793Z" fill="white"/>
<path d="M27.7988 25.2793H30.3184V35.4414H27.7988V25.2793Z" fill="white"/>
<path d="M22.7598 7.55859H25.2793V17.7207H22.7598V7.55859Z" fill="white"/>
<path d="M32.8379 7.55859H35.3574V17.7207H32.8379V7.55859Z" fill="white"/>
<path d="M12.6816 7.55859H15.2012V17.7207H12.6816V7.55859Z" fill="white"/>
<path d="M7.64258 7.55859H10.1621V17.7207H7.64258V7.55859Z" fill="white"/>
<path d="M0 39C0 41.2091 1.79086 43 4 43H39C41.2091 43 43 41.2091 43 39V4C43 1.79086 41.2091 0 39 0H4C1.79086 0 0 1.79086 0 4V39ZM5.12305 5.03906H37.877V20.2402H5.12305V5.03906ZM5.12305 22.7598H37.877V37.9609H5.12305V22.7598Z" fill="white"/>
<path d="M17.7207 7.55859H20.2402V17.7207H17.7207V7.55859Z" fill="white"/>
<path d="M27.7988 7.55859H30.3184V17.7207H27.7988V7.55859Z" fill="white"/>
<path d="M5.76092 6.40788L5.76088 6.40793C4.27989 8.36014 3.19738 10.0511 2.49081 11.477C1.77378 12.9241 1.5 13.9875 1.5 14.7159C1.5 18.9743 5.05744 22.5 9.4999 22.5C13.9423 22.5 17.4998 18.9745 17.5 14.7162L5.76092 6.40788ZM5.76092 6.40788C6.84185 4.9829 7.93436 3.68917 8.76155 2.74685C9.04299 2.42623 9.29272 2.14743 9.49961 1.91923M5.76092 6.40788L9.49961 1.91923M9.49961 1.91923C10.3134 2.81695 11.7843 4.49115 13.2385 6.40796M9.49961 1.91923L17.5 14.7159C17.4998 13.9873 17.2258 12.9239 16.5088 11.477C15.8021 10.051 14.7195 8.36019 13.2385 6.40796M13.2385 6.40796L14.4335 5.50135L13.2385 6.40796ZM10.1414 1.22393C10.1406 1.22481 10.1398 1.22568 10.1389 1.22656L10.1414 1.22393Z" fill="white" stroke="#1F72E4" stroke-width="3"/>
</svg>
