<svg width="43" height="40" viewBox="0 0 43 40" fill="none" xmlns="http://www.w3.org/2000/svg">
<rect width="43" height="32" rx="4" fill="#1F72E4"/>
<path d="M35.1348 37.0234H26.9883V34H16.4062V37.0234H8.25977C7.56404 37.0234 7 37.5875 7 38.2832C7 38.9789 7.56404 39.543 8.25977 39.543H35.1348C35.8305 39.543 36.3945 38.9789 36.3945 38.2832C36.3945 37.5875 35.8305 37.0234 35.1348 37.0234Z" fill="#1F72E4"/>
<path d="M22 8C17.5784 8 14 11.5781 14 16C14 20.4216 17.5781 24 22 24C26.4216 24 30 20.4219 30 16C30 11.5784 26.4219 8 22 8ZM20.0964 19.3747C20.0964 19.3747 17.3332 16.6104 17.1346 16.4121C16.6928 15.9703 16.6928 15.2513 17.1346 14.8098C17.5776 14.3668 18.294 14.3668 18.7369 14.8098L20.5258 16.5987C20.7483 16.8211 21.1093 16.8196 21.3298 16.596L25.2576 12.6116C25.6991 12.1637 26.4204 12.1607 26.8656 12.6059C27.304 13.0444 27.3067 13.7604 26.8713 14.2022C22.6058 18.5299 21.7958 19.3743 21.7958 19.3743C21.3275 19.8426 20.5651 19.843 20.0964 19.3747Z" fill="white"/>
</svg>
