<svg width="43" height="42" viewBox="0 0 43 42" fill="none" xmlns="http://www.w3.org/2000/svg">
<path d="M35.0706 25.0496H13.445L12.1475 30.8164H36.3682L35.0706 25.0496Z" fill="#1F72E4"/>
<path d="M39.7562 13.877H8.7595C6.97078 13.877 5.51562 15.3321 5.51562 17.1208V27.5731C5.51562 29.3618 6.97078 30.817 8.7595 30.817H9.93089L11.5251 23.7316C11.6361 23.2381 12.0743 22.8876 12.5801 22.8876H35.9358C36.4415 22.8876 36.8797 23.2381 36.9907 23.7316L38.5849 30.817H39.7563C41.545 30.817 43.0002 29.3619 43.0002 27.5731V17.1208C43.0001 15.3321 41.545 13.877 39.7562 13.877ZM30.0247 21.4459H28.583C27.9858 21.4459 27.5017 20.9617 27.5017 20.3646C27.5017 19.7675 27.9859 19.2834 28.583 19.2834H30.0247C30.6219 19.2834 31.106 19.7675 31.106 20.3646C31.106 20.9617 30.6219 21.4459 30.0247 21.4459ZM35.0707 21.4459H33.629C33.0318 21.4459 32.5477 20.9617 32.5477 20.3646C32.5477 19.7675 33.0319 19.2834 33.629 19.2834H35.0707C35.6679 19.2834 36.1519 19.7675 36.1519 20.3646C36.1519 20.9617 35.6679 21.4459 35.0707 21.4459Z" fill="#1F72E4"/>
<path d="M24.9789 35.7424C24.9789 35.4413 25.0351 35.3476 25.1853 35.0975C25.3902 34.756 25.6998 34.24 25.6998 33.3398C25.6998 32.7426 25.2156 32.2585 24.6185 32.2585C24.0214 32.2585 23.5373 32.7427 23.5373 33.3398C23.5373 33.6409 23.4811 33.7346 23.3309 33.9847C23.126 34.3262 22.8164 34.8422 22.8164 35.7424C22.8164 36.6426 23.126 37.1587 23.3309 37.5002C23.481 37.7505 23.5373 37.8442 23.5373 38.1454C23.5373 38.4466 23.4811 38.5403 23.3309 38.7905C23.126 39.132 22.8164 39.6481 22.8164 40.5483C22.8164 41.1455 23.3006 41.6296 23.8977 41.6296C24.4948 41.6296 24.9789 41.1454 24.9789 40.5483C24.9789 40.2471 25.0351 40.1534 25.1853 39.9032C25.3902 39.5617 25.6998 39.0457 25.6998 38.1454C25.6998 37.2451 25.3902 36.7291 25.1853 36.3876C25.0352 36.1373 24.9789 36.0437 24.9789 35.7424Z" fill="#1F72E4"/>
<path d="M19.2114 35.7424C19.2114 35.4413 19.2675 35.3476 19.4177 35.0975C19.6226 34.756 19.9322 34.24 19.9322 33.3398C19.9322 32.7426 19.4481 32.2585 18.8509 32.2585C18.2538 32.2585 17.7697 32.7427 17.7697 33.3398C17.7697 33.6409 17.7135 33.7346 17.5634 33.9847C17.3584 34.3262 17.0488 34.8422 17.0488 35.7424C17.0488 36.6426 17.3584 37.1587 17.5633 37.5002C17.7134 37.7505 17.7697 37.8442 17.7697 38.1454C17.7697 38.4466 17.7135 38.5403 17.5633 38.7905C17.3584 39.132 17.0488 39.6481 17.0488 40.5483C17.0488 41.1455 17.533 41.6296 18.1301 41.6296C18.7272 41.6296 19.2114 41.1454 19.2114 40.5483C19.2114 40.2471 19.2675 40.1534 19.4177 39.9032C19.6226 39.5617 19.9322 39.0457 19.9322 38.1454C19.9322 37.2451 19.6226 36.7291 19.4177 36.3876C19.2676 36.1373 19.2114 36.0437 19.2114 35.7424Z" fill="#1F72E4"/>
<path d="M30.7446 35.7424C30.7446 35.4413 30.8007 35.3476 30.9509 35.0975C31.1558 34.756 31.4654 34.24 31.4654 33.3398C31.4654 32.7426 30.9813 32.2585 30.3841 32.2585C29.787 32.2585 29.3029 32.7427 29.3029 33.3398C29.3029 33.6409 29.2467 33.7346 29.0966 33.9847C28.8916 34.3262 28.582 34.8422 28.582 35.7424C28.582 36.6426 28.8916 37.1587 29.0965 37.5002C29.2466 37.7505 29.3029 37.8442 29.3029 38.1454C29.3029 38.4466 29.2467 38.5403 29.0965 38.7905C28.8916 39.132 28.582 39.6481 28.582 40.5483C28.582 41.1455 29.0662 41.6296 29.6633 41.6296C30.2604 41.6296 30.7446 41.1454 30.7446 40.5483C30.7446 40.2471 30.8007 40.1534 30.9509 39.9032C31.1558 39.5617 31.4654 39.0457 31.4654 38.1454C31.4654 37.2451 31.1558 36.7291 30.9509 36.3876C30.8008 36.1373 30.7446 36.0437 30.7446 35.7424Z" fill="#1F72E4"/>
<path d="M9.42822 3.84658L8.52261 4.55473C8.5341 4.66394 8.54395 4.7916 8.54395 4.92666C8.54395 5.06173 8.5345 5.18939 8.52261 5.2986L9.42905 6.00716C9.59737 6.14016 9.64334 6.37622 9.53619 6.57285L8.59445 8.20224C8.49386 8.38614 8.27341 8.48057 8.04969 8.39806L6.98109 7.96907C6.77625 8.11685 6.56153 8.24165 6.33944 8.3414L6.17688 9.47485C6.15019 9.68997 5.96299 9.85254 5.74173 9.85254L3.85333 9.85254C3.63205 9.85254 3.44527 9.68997 3.41899 9.47814L3.25602 8.34058C3.04089 8.24369 2.82949 8.12053 2.6156 7.96824L1.54413 8.39846C1.34337 8.47605 1.10321 8.38903 1.00345 8.20593L0.0604958 6.5745C-0.0507495 6.38648 -0.00477735 6.14222 0.167238 6.00592L1.07285 5.29777C1.05847 5.15943 1.05151 5.03914 1.05151 4.92624C1.05151 4.81334 1.05849 4.69307 1.07285 4.55431L0.166411 3.84575C-0.00191 3.71234 -0.0474781 3.47628 0.0596685 3.28006L1.00142 1.65069C1.102 1.46719 1.32039 1.37195 1.54617 1.45487L2.61477 1.88386C2.81921 1.73648 3.03391 1.61168 3.25602 1.51152L3.41858 0.378477C3.44525 0.162548 3.63205 -1.89347e-05 3.85373 -1.89262e-05L5.74213 -1.88541e-05C5.96341 -1.88456e-05 6.15061 0.162548 6.17688 0.374378L6.33985 1.51152C6.55497 1.60882 6.76597 1.73157 6.98026 1.88428L8.05173 1.45406C8.10345 1.43395 8.15724 1.42368 8.21266 1.42368C8.37194 1.42368 8.51849 1.51071 8.59239 1.64619L9.53823 3.28417C9.64334 3.4763 9.59735 3.71234 9.42822 3.84658ZM4.79752 3.28417C3.89191 3.28417 3.15543 4.02065 3.15543 4.92626C3.15543 5.83187 3.89191 6.56835 4.79752 6.56835C5.70313 6.56835 6.4396 5.83187 6.4396 4.92626C6.4396 4.02065 5.70313 3.28417 4.79752 3.28417Z" fill="#1F72E4"/>
<path d="M21.1876 6.46644L20.4819 7.01826C20.4909 7.10335 20.4985 7.20283 20.4985 7.30808C20.4985 7.41333 20.4912 7.51281 20.4819 7.5979L21.1882 8.15003C21.3194 8.25368 21.3552 8.43762 21.2717 8.59084L20.5379 9.86051C20.4595 10.0038 20.2877 10.0774 20.1134 10.0131L19.2807 9.67882C19.1211 9.79398 18.9538 9.89122 18.7807 9.96896L18.654 10.8522C18.6332 11.0198 18.4874 11.1465 18.315 11.1465L16.8435 11.1465C16.671 11.1465 16.5255 11.0198 16.505 10.8547L16.378 9.96831C16.2104 9.89281 16.0457 9.79685 15.879 9.67817L15.0441 10.0134C14.8876 10.0739 14.7005 10.0061 14.6227 9.86339L13.888 8.59213C13.8013 8.44562 13.8371 8.25528 13.9711 8.14908L14.6768 7.59726C14.6656 7.48946 14.6602 7.39573 14.6602 7.30775C14.6602 7.21977 14.6656 7.12606 14.6768 7.01793L13.9705 6.4658C13.8393 6.36184 13.8038 6.17789 13.8873 6.02499L14.6212 4.75533C14.6995 4.61234 14.8697 4.53813 15.0456 4.60274L15.8783 4.93703C16.0376 4.82218 16.2049 4.72494 16.378 4.64689L16.5047 3.76398C16.5255 3.59573 16.671 3.46905 16.8438 3.46905L18.3153 3.46905C18.4877 3.46905 18.6336 3.59572 18.654 3.76079L18.781 4.64689C18.9487 4.7227 19.1131 4.81836 19.2801 4.93736L20.115 4.60211C20.1553 4.58644 20.1972 4.57844 20.2404 4.57844C20.3645 4.57844 20.4787 4.64626 20.5363 4.75182L21.2733 6.0282C21.3552 6.17791 21.3194 6.36184 21.1876 6.46644ZM17.5792 6.0282C16.8735 6.0282 16.2996 6.60209 16.2996 7.30777C16.2996 8.01345 16.8735 8.58733 17.5792 8.58733C18.2849 8.58733 18.8588 8.01345 18.8588 7.30777C18.8588 6.60209 18.2849 6.0282 17.5792 6.0282Z" fill="#1F72E4"/>
</svg>
