<svg width="43" height="43" viewBox="0 0 43 43" fill="none" xmlns="http://www.w3.org/2000/svg">
<g clip-path="url(#clip0)">
<path d="M42.9919 20.9232C41.6702 9.49262 33.9535 1.74767 22.1675 0.0313648C21.4131 -0.0784027 20.7471 0.53208 20.7471 1.29449V9.78035C23.9679 10.0694 26.9442 11.467 29.2644 13.7872C31.5847 16.1075 32.9823 19.1007 33.2713 22.3214H41.7235C42.4706 22.3214 43.0777 21.6654 42.9919 20.9232Z" fill="#1F72E4"/>
<path d="M24.9912 22.5175C24.4566 20.3166 22.6513 18.5115 20.4504 17.9767C15.7705 16.8398 11.6374 20.9727 12.7743 25.6528C13.3091 27.8537 15.1142 29.659 17.3151 30.1936C21.9952 31.3304 26.1281 27.1975 24.9912 22.5175ZM18.8829 27.8644C16.7989 27.8644 15.1036 26.1691 15.1036 24.0851C15.1036 22.0011 16.7989 20.3058 18.8829 20.3058C20.9668 20.3058 22.6622 22.0011 22.6622 24.0851C22.6622 26.1691 20.9668 27.8644 18.8829 27.8644Z" fill="#1F72E4"/>
<path d="M18.8828 22.8252C18.1878 22.8252 17.623 23.3899 17.623 24.085C17.623 24.78 18.1878 25.3447 18.8828 25.3447C19.5779 25.3447 20.1426 24.78 20.1426 24.085C20.1426 23.3899 19.5779 22.8252 18.8828 22.8252Z" fill="#1F72E4"/>
<path d="M31.4668 25.3447C30.7598 25.3446 30.2366 24.7529 30.2341 24.046C30.2241 21.0377 29.044 18.2074 26.9089 16.0723C24.7739 13.9373 21.9435 12.7571 18.9353 12.747C18.2284 12.7447 17.6366 12.2215 17.6366 11.5146V5.2522C7.59345 5.91912 -0.334081 14.4447 0.0108428 24.7308C0.337962 34.4864 8.49486 42.6434 18.2506 42.9705C28.5366 43.3154 37.0621 35.3879 37.7291 25.3447H31.4668ZM9.0977 14.2861C9.58968 13.7942 10.3873 13.7942 10.8793 14.2861C11.3713 14.7781 11.3713 15.5757 10.8793 16.0677C10.3873 16.5597 9.58968 16.5597 9.0977 16.0677C8.60572 15.5757 8.6058 14.7781 9.0977 14.2861ZM6.29875 25.3446C5.60303 25.3446 5.03899 24.7806 5.03899 24.0849C5.03899 23.389 5.60303 22.8251 6.29875 22.8251C6.99448 22.8251 7.55852 23.389 7.55852 24.0849C7.55852 24.7806 6.99448 25.3446 6.29875 25.3446ZM10.8793 33.8836C10.3873 34.3755 9.58968 34.3755 9.0977 33.8836C8.60572 33.3915 8.60572 32.5938 9.0977 32.1018C9.58968 31.6099 10.3873 31.6099 10.8793 32.1018C11.3713 32.5938 11.3713 33.3915 10.8793 33.8836ZM18.8964 37.9423C18.2007 37.9423 17.6366 37.3782 17.6366 36.6825C17.6366 35.9866 18.2007 35.4227 18.8964 35.4227C19.5921 35.4227 20.1562 35.9866 20.1562 36.6825C20.1562 37.3782 19.5921 37.9423 18.8964 37.9423ZM20.6246 32.7378C14.4231 33.9229 9.05831 28.5582 10.2433 22.3567C10.9019 18.9101 13.7217 16.0905 17.1682 15.4319C23.3697 14.2468 28.7344 19.6116 27.5494 25.8129C26.8908 29.2595 24.0711 32.0791 20.6246 32.7378ZM28.6951 33.8836C28.2031 34.3755 27.4055 34.3755 26.9136 33.8836C26.4215 33.3915 26.4215 32.5938 26.9136 32.1018C27.4055 31.6099 28.2031 31.6099 28.6951 32.1018C29.1871 32.5938 29.1871 33.3915 28.6951 33.8836Z" fill="#1F72E4"/>
</g>
<defs>
<clipPath id="clip0">
<rect width="43" height="43" fill="white"/>
</clipPath>
</defs>
</svg>
