<svg width="44" height="32" viewBox="0 0 44 32" fill="none" xmlns="http://www.w3.org/2000/svg">
<path d="M34.3058 12.817H9.49822L8.00977 19.4324H35.7943L34.3058 12.817Z" fill="#1F72E4"/>
<path d="M39.6811 0H4.12352C2.07161 0 0.402344 1.66927 0.402344 3.72109V15.7114C0.402344 17.7632 2.07161 19.4326 4.12352 19.4326H5.46726L7.2961 11.3046C7.42342 10.7386 7.92607 10.3364 8.50623 10.3364H35.2985C35.8786 10.3364 36.3813 10.7386 36.5086 11.3046L38.3374 19.4326H39.6812C41.733 19.4326 43.4023 17.7633 43.4023 15.7114V3.72109C43.4023 1.66927 41.733 0 39.6811 0ZM28.5177 8.68262H26.8638C26.1788 8.68262 25.6235 8.12724 25.6235 7.44226C25.6235 6.75728 26.1789 6.2019 26.8638 6.2019H28.5177C29.2027 6.2019 29.758 6.75728 29.758 7.44226C29.758 8.12724 29.2027 8.68262 28.5177 8.68262ZM34.3061 8.68262H32.6523C31.9672 8.68262 31.4119 8.12724 31.4119 7.44226C31.4119 6.75728 31.9673 6.2019 32.6523 6.2019H34.3061C34.9912 6.2019 35.5465 6.75728 35.5465 7.44226C35.5465 8.12724 34.9912 8.68262 34.3061 8.68262Z" fill="#1F72E4"/>
<path d="M22.7298 25.0828C22.7298 24.7373 22.7942 24.6299 22.9664 24.343C23.2015 23.9513 23.5567 23.3593 23.5567 22.3267C23.5567 21.6416 23.0013 21.0863 22.3163 21.0863C21.6313 21.0863 21.0759 21.6417 21.0759 22.3267C21.0759 22.6721 21.0115 22.7795 20.8393 23.0665C20.6042 23.4582 20.249 24.0501 20.249 25.0828C20.249 26.1154 20.6042 26.7075 20.8392 27.0992C21.0114 27.3864 21.0759 27.4938 21.0759 27.8393C21.0759 28.1848 21.0115 28.2924 20.8392 28.5794C20.6042 28.9712 20.249 29.5632 20.249 30.5958C20.249 31.2809 20.8044 31.8362 21.4894 31.8362C22.1744 31.8362 22.7298 31.2808 22.7298 30.5958C22.7298 30.2502 22.7942 30.1427 22.9665 29.8558C23.2015 29.4641 23.5567 28.8721 23.5567 27.8393C23.5567 26.8066 23.2015 26.2146 22.9665 25.8228C22.7943 25.5358 22.7298 25.4284 22.7298 25.0828Z" fill="#1F72E4"/>
<path d="M16.1135 25.0828C16.1135 24.7373 16.178 24.6299 16.3502 24.343C16.5853 23.9513 16.9404 23.3593 16.9404 22.3267C16.9404 21.6416 16.3851 21.0863 15.7001 21.0863C15.0151 21.0863 14.4597 21.6417 14.4597 22.3267C14.4597 22.6721 14.3953 22.7795 14.2231 23.0665C13.988 23.4582 13.6328 24.0501 13.6328 25.0828C13.6328 26.1154 13.988 26.7075 14.223 27.0992C14.3952 27.3864 14.4597 27.4938 14.4597 27.8393C14.4597 28.1848 14.3953 28.2924 14.223 28.5794C13.988 28.9712 13.6328 29.5632 13.6328 30.5958C13.6328 31.2809 14.1882 31.8362 14.8732 31.8362C15.5581 31.8362 16.1135 31.2808 16.1135 30.5958C16.1135 30.2502 16.178 30.1427 16.3503 29.8558C16.5853 29.4641 16.9404 28.8721 16.9404 27.8393C16.9404 26.8066 16.5853 26.2146 16.3503 25.8228C16.178 25.5358 16.1135 25.4284 16.1135 25.0828Z" fill="#1F72E4"/>
<path d="M29.344 25.0828C29.344 24.7373 29.4084 24.6299 29.5807 24.343C29.8157 23.9513 30.1709 23.3593 30.1709 22.3267C30.1709 21.6416 29.6155 21.0863 28.9306 21.0863C28.2456 21.0863 27.6902 21.6417 27.6902 22.3267C27.6902 22.6721 27.6258 22.7795 27.4535 23.0665C27.2185 23.4582 26.8633 24.0501 26.8633 25.0828C26.8633 26.1154 27.2185 26.7075 27.4534 27.0992C27.6257 27.3864 27.6902 27.4938 27.6902 27.8393C27.6902 28.1848 27.6258 28.2924 27.4534 28.5794C27.2185 28.9712 26.8633 29.5632 26.8633 30.5958C26.8633 31.2809 27.4187 31.8362 28.1036 31.8362C28.7886 31.8362 29.344 31.2808 29.344 30.5958C29.344 30.2502 29.4084 30.1427 29.5808 29.8558C29.8157 29.4641 30.1709 28.8721 30.1709 27.8393C30.1709 26.8066 29.8157 26.2146 29.5808 25.8228C29.4085 25.5358 29.344 25.4284 29.344 25.0828Z" fill="#1F72E4"/>
</svg>
