<svg width="43" height="43" viewBox="0 0 43 43" fill="none" xmlns="http://www.w3.org/2000/svg">
<g clip-path="url(#clip0)">
<path d="M42.4031 34.236L39.0988 27.2607C38.6829 26.3799 37.2387 26.3799 36.8229 27.2607L33.5382 34.2015C33.1347 34.9372 32.9219 35.7738 32.9219 36.6177C32.9219 39.3967 35.1818 41.6566 37.9608 41.6566C40.7399 41.6566 42.9998 39.3967 42.9998 36.6177C42.9997 35.7861 42.7931 34.9643 42.4031 34.236Z" fill="white"/>
<path d="M39.5355 22.9967C39.4556 22.4431 39.0213 22.0077 38.4677 21.9277L25.6925 20.1119L24.3331 15.0397C24.0759 14.0776 23.435 13.2411 22.5726 12.7441L18.022 10.1168L19.2816 7.93536C21.0714 8.62462 23.234 11.1664 24.2752 9.36368C24.6234 8.76084 24.4167 7.9907 23.8139 7.64259L15.0868 2.60362C14.484 2.25425 13.7127 2.46093 13.3657 3.06494C13.0175 3.66778 13.2242 4.43792 13.827 4.78603L17.0994 6.67551L15.8399 8.85692L10.5606 5.80879L7.73156 2.6158C6.01685 0.686428 2.9227 0.99717 1.63086 3.23459L0.506478 5.18076C-0.306741 6.59186 -0.128359 8.35839 0.953022 9.57758L4.43114 13.5002L2.99527 15.9873L26.7788 29.7184L38.8097 24.3216C39.319 24.0904 39.6142 23.5503 39.5355 22.9967ZM5.75893 11.2007L2.83771 7.90689C2.47725 7.49965 2.41821 6.91041 2.68889 6.44044L3.81336 4.49419C4.2421 3.75034 5.27586 3.64393 5.84695 4.2875L8.21018 6.95459C8.06413 7.20772 5.60188 11.4728 5.75893 11.2007Z" fill="white"/>
<path d="M1.73549 18.1697L1.10561 19.2606C0.0624372 21.0696 0.680225 23.3777 2.48958 24.4226L16.6395 32.5925C17.6959 33.2022 18.9879 33.2635 20.0939 32.7598L23.9601 31.0008L1.73549 18.1697Z" fill="white"/>
</g>
<defs>
<clipPath id="clip0">
<rect width="43" height="43" fill="white"/>
</clipPath>
</defs>
</svg>
