<svg width="43" height="43" viewBox="0 0 43 43" fill="none" xmlns="http://www.w3.org/2000/svg">
<path d="M7.64258 25.2793H10.1621V35.4414H7.64258V25.2793Z" fill="white"/>
<path d="M32.8379 25.2793H35.3574V35.4414H32.8379V25.2793Z" fill="white"/>
<path d="M32.8379 7.55859H35.3574V17.7207H32.8379V7.55859Z" fill="white"/>
<path d="M7.64258 7.55859H10.1621V17.7207H7.64258V7.55859Z" fill="white"/>
<path fill-rule="evenodd" clip-rule="evenodd" d="M13.6294 17.7207H12.6816V7.55859H15.2012V15.0016C14.5903 15.9653 14.0662 16.8721 13.6294 17.7207Z" fill="white"/>
<path fill-rule="evenodd" clip-rule="evenodd" d="M4 43C1.79086 43 0 41.2091 0 39V4C0 1.79086 1.79086 0 4 0H39C41.2091 0 43 1.79086 43 4V39C43 41.2091 41.2091 43 39 43H4ZM37.877 5.03906H5.12305V20.2402H12.5291C12.2041 21.182 12.0283 22.0228 12.0032 22.7598H5.12305V37.9609H37.877V22.7598H30.9968C30.9715 22.0228 30.7957 21.182 30.4706 20.2402H37.877V5.03906Z" fill="white"/>
<path fill-rule="evenodd" clip-rule="evenodd" d="M29.3702 17.7207C28.9335 16.8723 28.4095 15.9659 27.7988 15.0026V7.55859H30.3184V17.7207H29.3702Z" fill="white"/>
<path fill-rule="evenodd" clip-rule="evenodd" d="M27.7988 30.4652C28.8938 29.4364 29.7635 28.1444 30.3184 26.6838V35.4414H27.7988V30.4652Z" fill="white"/>
<path fill-rule="evenodd" clip-rule="evenodd" d="M22.7598 32.912C23.6434 32.7875 24.4891 32.5338 25.2793 32.1697V35.4414H22.7598V32.912Z" fill="white"/>
<path fill-rule="evenodd" clip-rule="evenodd" d="M17.7207 32.1697C18.5109 32.5338 19.3566 32.7874 20.2402 32.9119V35.4414H17.7207V32.1697Z" fill="white"/>
<path fill-rule="evenodd" clip-rule="evenodd" d="M12.6816 26.6838C13.2365 28.1444 14.1062 29.4364 15.2012 30.4652V35.4414H12.6816V26.6838Z" fill="white"/>
<path fill-rule="evenodd" clip-rule="evenodd" d="M17.7207 11.3633V7.55859H20.2402V8.16526C19.6205 8.91079 18.7086 10.0384 17.7207 11.3633Z" fill="white"/>
<path fill-rule="evenodd" clip-rule="evenodd" d="M25.2793 11.3643V7.55859H22.7598V8.16619C23.3796 8.91191 24.2915 10.0395 25.2793 11.3643Z" fill="white"/>
<path d="M25.3949 15.5845C23.6437 13.1479 21.8676 11.1767 21.8499 11.157C21.7593 11.0569 21.6325 11 21.4998 11C21.367 11 21.2402 11.0569 21.1496 11.157C21.1318 11.1767 19.3556 13.1479 17.6046 15.5845C15.2127 18.9126 14 21.4961 14 23.2632C14 27.5292 17.3645 31 21.4999 31C25.6354 31 29 27.5293 29 23.2632C28.9997 21.4959 27.7868 18.9126 25.3949 15.5845Z" fill="white"/>
</svg>
