<svg width="43" height="43" viewBox="0 0 43 43" fill="none" xmlns="http://www.w3.org/2000/svg">
<path d="M39.6406 33.2108V9.78922C41.5956 9.09584 43 7.22879 43 5.03906C43 2.26052 40.7395 0 37.9609 0C35.1824 0 32.9219 2.26052 32.9219 5.03906C32.9219 7.22879 34.3263 9.09576 36.2812 9.78922V19.8203H23.1797V9.78922C25.1347 9.09584 26.5391 7.22879 26.5391 5.03906C26.5391 2.26052 24.2785 0 21.5 0C18.7215 0 16.4609 2.26052 16.4609 5.03906C16.4609 7.22879 17.8653 9.09576 19.8203 9.78922V19.8203H5.03906C4.11137 19.8203 3.35938 20.5723 3.35938 21.5V33.2108C1.40439 33.9042 0 35.7712 0 37.9609C0 40.7395 2.26052 43 5.03906 43C7.8176 43 10.0781 40.7395 10.0781 37.9609C10.0781 35.7712 8.67374 33.9042 6.71875 33.2108V23.1797H19.8203V33.2108C17.8653 33.9042 16.4609 35.7712 16.4609 37.9609C16.4609 40.7395 18.7215 43 21.5 43C24.2785 43 26.5391 40.7395 26.5391 37.9609C26.5391 35.7712 25.1347 33.9042 23.1797 33.2108V23.1797H36.2812V33.2108C34.3263 33.9042 32.9219 35.7712 32.9219 37.9609C32.9219 40.7395 35.1824 43 37.9609 43C40.7395 43 43 40.7395 43 37.9609C43 35.7712 41.5956 33.9042 39.6406 33.2108ZM5.03906 39.6406C4.11288 39.6406 3.35938 38.8871 3.35938 37.9609C3.35938 37.0348 4.11288 36.2812 5.03906 36.2812C5.96524 36.2812 6.71875 37.0348 6.71875 37.9609C6.71875 38.8871 5.96524 39.6406 5.03906 39.6406ZM21.5 39.6406C20.5738 39.6406 19.8203 38.8871 19.8203 37.9609C19.8203 37.0348 20.5738 36.2812 21.5 36.2812C22.4262 36.2812 23.1797 37.0348 23.1797 37.9609C23.1797 38.8871 22.4262 39.6406 21.5 39.6406ZM21.5 6.71875C20.5738 6.71875 19.8203 5.96524 19.8203 5.03906C19.8203 4.11288 20.5738 3.35938 21.5 3.35938C22.4262 3.35938 23.1797 4.11288 23.1797 5.03906C23.1797 5.96524 22.4262 6.71875 21.5 6.71875ZM37.9609 3.35938C38.8871 3.35938 39.6406 4.11288 39.6406 5.03906C39.6406 5.96524 38.8871 6.71875 37.9609 6.71875C37.0348 6.71875 36.2812 5.96524 36.2812 5.03906C36.2812 4.11288 37.0348 3.35938 37.9609 3.35938ZM37.9609 39.6406C37.0348 39.6406 36.2812 38.8871 36.2812 37.9609C36.2812 37.0348 37.0348 36.2812 37.9609 36.2812C38.8871 36.2812 39.6406 37.0348 39.6406 37.9609C39.6406 38.8871 38.8871 39.6406 37.9609 39.6406Z" fill="#1F72E4"/>
<path d="M28.5399 25.3229V25.3227C28.5398 24.2092 28.2375 23.1141 27.6726 22.1464L23.5732 14.2856C23.5731 14.2855 23.573 14.2853 23.573 14.2852C23.0867 13.3499 22.0837 13 21.2699 13C20.4561 13 19.4531 13.3499 18.9669 14.2851C18.9668 14.2853 18.9667 14.2854 18.9666 14.2856L14.894 22.1031C14.31 23.0816 14 24.1949 14 25.3229C14 29.1045 17.3523 32.0184 21.2699 32.0184C25.1876 32.0184 28.5399 29.1045 28.5399 25.3229Z" fill="#1F72E4" stroke="white" stroke-width="2"/>
</svg>
