<svg width="51" height="39" viewBox="0 0 51 39" fill="none" xmlns="http://www.w3.org/2000/svg">
<path d="M34.3058 19.8169H9.49822L8.00977 26.4322H35.7943L34.3058 19.8169Z" fill="#1F72E4"/>
<path d="M22.7288 32.0827C22.7288 31.7372 22.7932 31.6298 22.9654 31.3428C23.2005 30.9511 23.5557 30.3592 23.5557 29.3265C23.5557 28.6415 23.0003 28.0862 22.3153 28.0862C21.6303 28.0862 21.075 28.6416 21.075 29.3265C21.075 29.672 21.0105 29.7794 20.8383 30.0664C20.6032 30.4581 20.248 31.05 20.248 32.0827C20.248 33.1153 20.6032 33.7073 20.8382 34.0991C21.0105 34.3863 21.075 34.4937 21.075 34.8392C21.075 35.1847 21.0105 35.2923 20.8382 35.5793C20.6032 35.971 20.248 36.563 20.248 37.5957C20.248 38.2808 20.8034 38.8361 21.4884 38.8361C22.1734 38.8361 22.7288 38.2807 22.7288 37.5957C22.7288 37.2501 22.7932 37.1426 22.9655 36.8556C23.2005 36.4639 23.5557 35.8719 23.5557 34.8392C23.5557 33.8064 23.2005 33.2145 22.9655 32.8227C22.7933 32.5357 22.7288 32.4282 22.7288 32.0827Z" fill="#1F72E4"/>
<path d="M16.1135 32.0827C16.1135 31.7372 16.178 31.6298 16.3502 31.3428C16.5853 30.9511 16.9404 30.3592 16.9404 29.3265C16.9404 28.6415 16.3851 28.0862 15.7001 28.0862C15.0151 28.0862 14.4597 28.6416 14.4597 29.3265C14.4597 29.672 14.3953 29.7794 14.2231 30.0664C13.988 30.4581 13.6328 31.05 13.6328 32.0827C13.6328 33.1153 13.988 33.7073 14.223 34.0991C14.3952 34.3863 14.4597 34.4937 14.4597 34.8392C14.4597 35.1847 14.3953 35.2923 14.223 35.5793C13.988 35.971 13.6328 36.563 13.6328 37.5957C13.6328 38.2808 14.1882 38.8361 14.8732 38.8361C15.5581 38.8361 16.1135 38.2807 16.1135 37.5957C16.1135 37.2501 16.178 37.1426 16.3503 36.8556C16.5853 36.4639 16.9404 35.8719 16.9404 34.8392C16.9404 33.8064 16.5853 33.2145 16.3503 32.8227C16.178 32.5357 16.1135 32.4282 16.1135 32.0827Z" fill="#1F72E4"/>
<path d="M29.344 32.0827C29.344 31.7372 29.4084 31.6298 29.5807 31.3428C29.8157 30.9511 30.1709 30.3592 30.1709 29.3265C30.1709 28.6415 29.6155 28.0862 28.9306 28.0862C28.2456 28.0862 27.6902 28.6416 27.6902 29.3265C27.6902 29.672 27.6258 29.7794 27.4535 30.0664C27.2185 30.4581 26.8633 31.05 26.8633 32.0827C26.8633 33.1153 27.2185 33.7073 27.4534 34.0991C27.6257 34.3863 27.6902 34.4937 27.6902 34.8392C27.6902 35.1847 27.6258 35.2923 27.4534 35.5793C27.2185 35.971 26.8633 36.563 26.8633 37.5957C26.8633 38.2808 27.4187 38.8361 28.1036 38.8361C28.7886 38.8361 29.344 38.2807 29.344 37.5957C29.344 37.2501 29.4084 37.1426 29.5808 36.8556C29.8157 36.4639 30.1709 35.8719 30.1709 34.8392C30.1709 33.8064 29.8157 33.2145 29.5808 32.8227C29.4085 32.5357 29.344 32.4282 29.344 32.0827Z" fill="#1F72E4"/>
<path fill-rule="evenodd" clip-rule="evenodd" d="M33.0494 7H4.12352C2.07161 7 0.402344 8.66927 0.402344 10.7211V22.7114C0.402344 24.7632 2.07161 26.4326 4.12352 26.4326H5.46726L7.2961 18.3046C7.42342 17.7386 7.92607 17.3364 8.50623 17.3364H35.2985C35.8786 17.3364 36.3813 17.7386 36.5086 18.3046L38.3374 26.4326H39.6812C41.733 26.4326 43.4023 24.7633 43.4023 22.7114V17.9918C43.2689 17.9971 43.1348 17.9998 43 17.9998C40.0293 17.9998 37.3611 16.7044 35.5295 14.6476C35.4317 15.2349 34.9212 15.6826 34.3061 15.6826H32.6523C31.9672 15.6826 31.4119 15.1272 31.4119 14.4423C31.4119 13.7573 31.9673 13.2019 32.6523 13.2019H34.3061C34.3596 13.2019 34.4123 13.2053 34.464 13.2119C33.5353 11.6941 33 9.90944 33 7.99976C33 7.66234 33.0167 7.32883 33.0494 7ZM26.8638 15.6826H28.5177C29.2027 15.6826 29.758 15.1272 29.758 14.4423C29.758 13.7573 29.2027 13.2019 28.5177 13.2019H26.8638C26.1789 13.2019 25.6235 13.7573 25.6235 14.4423C25.6235 15.1272 26.1788 15.6826 26.8638 15.6826Z" fill="#1F72E4"/>
<path d="M49.5201 5.54582C49.2386 5.44382 48.9289 5.50847 48.7119 5.71467L48.3168 6.08993L47.9156 6.13653C47.7317 5.6446 47.4768 5.18752 47.1543 4.77139L47.4054 4.45428L47.9324 4.31574C48.222 4.23964 48.4399 4.01033 48.5012 3.71731C48.5626 3.42428 48.4549 3.12681 48.2202 2.94099L46.7004 1.73756C46.4657 1.55171 46.1515 1.51509 45.8803 1.64196C45.6092 1.76882 45.4359 2.03357 45.4282 2.33283L45.4142 2.87756L45.1631 3.19464C44.6841 2.97611 44.1807 2.83277 43.6598 2.76659L43.6132 2.36538L43.8879 1.89478C44.0388 1.63622 44.0307 1.31995 43.8669 1.0694C43.7031 0.818847 43.4166 0.684633 43.1192 0.719179L41.1936 0.942869C40.8963 0.977411 40.6482 1.1737 40.5461 1.45516C40.4441 1.73662 40.5088 2.04628 40.715 2.26335L41.0902 2.65846L41.1368 3.05966C40.6449 3.24354 40.1878 3.49842 39.7717 3.82093L39.4546 3.56982L39.3161 3.04282C39.2399 2.75327 39.0106 2.53532 38.7176 2.47399C38.4246 2.41263 38.1271 2.52037 37.9413 2.75504L36.7378 4.27481C36.552 4.50949 36.5153 4.82375 36.6422 5.09491C36.7691 5.36607 37.0338 5.53931 37.3331 5.54702L37.8778 5.56106L38.1949 5.81216C37.9764 6.29114 37.8331 6.79448 37.7669 7.31546L37.3657 7.36207L36.8951 7.08737C36.6366 6.93648 36.3203 6.94449 36.0697 7.10829C35.8191 7.27212 35.6849 7.55861 35.7195 7.856L35.9432 9.78161C35.9777 10.079 36.174 10.3271 36.4555 10.4291C36.7369 10.5311 37.0466 10.4664 37.2637 10.2602L37.6588 9.88499L38.06 9.83838C38.2438 10.3303 38.4987 10.7874 38.8212 11.2035L38.5701 11.5206L38.0431 11.6592C37.7536 11.7353 37.5356 11.9646 37.4743 12.2576C37.413 12.5506 37.5207 12.8481 37.7554 13.0339L39.2751 14.2374C39.5098 14.4232 39.8241 14.4599 40.0952 14.333C40.3664 14.2061 40.5396 13.9414 40.5473 13.6421L40.5614 13.0974L40.8125 12.7803C41.2915 12.9988 41.7948 13.1421 42.3158 13.2083L42.3624 13.6095L42.0877 14.0801C41.9368 14.3387 41.9448 14.6549 42.1086 14.9055C42.2724 15.156 42.5589 15.2903 42.8563 15.2557L44.7819 15.032C45.0793 14.9975 45.3274 14.8012 45.4294 14.5198C45.5314 14.2383 45.4667 13.9286 45.2606 13.7116L44.8853 13.3165L44.8387 12.9153C45.3306 12.7314 45.7877 12.4765 46.2038 12.154L46.5209 12.4051L46.6595 12.9321C46.7356 13.2217 46.9649 13.4396 47.2579 13.5009C47.5509 13.5623 47.8484 13.4545 48.0342 13.2199L49.2377 11.7001C49.4235 11.4654 49.4602 11.1512 49.3333 10.88C49.2064 10.6088 48.9417 10.4356 48.6424 10.4279L48.0977 10.4139L47.7806 10.1628C47.9991 9.68378 48.1424 9.18044 48.2086 8.65946L48.6098 8.61286L49.0804 8.88755C49.339 9.03847 49.6552 9.03043 49.9058 8.86663C50.1564 8.70281 50.2906 8.41631 50.256 8.11895L50.0323 6.19334C49.9978 5.89595 49.8015 5.64784 49.5201 5.54582ZM43.6062 9.62262C43.5254 8.92705 44.0256 8.29542 44.7212 8.21462C45.4167 8.13382 46.0484 8.63397 46.1292 9.32954C46.21 10.0251 45.7098 10.6567 45.0142 10.7375C44.3187 10.8183 43.687 10.3182 43.6062 9.62262Z" fill="#1F72E4"/>
</svg>
