<svg width="43" height="43" viewBox="0 0 43 43" fill="none" xmlns="http://www.w3.org/2000/svg">
<path d="M12.6816 25.2793H15.2012V35.4414H12.6816V25.2793Z" fill="#1F72E4"/>
<path d="M7.64258 25.2793H10.1621V35.4414H7.64258V25.2793Z" fill="#1F72E4"/>
<path d="M32.8379 25.2793H35.3574V35.4414H32.8379V25.2793Z" fill="#1F72E4"/>
<path d="M17.7207 25.2793H20.2402V35.4414H17.7207V25.2793Z" fill="#1F72E4"/>
<path d="M22.7598 25.2793H25.2793V35.4414H22.7598V25.2793Z" fill="#1F72E4"/>
<path d="M27.7988 25.2793H30.3184V35.4414H27.7988V25.2793Z" fill="#1F72E4"/>
<path d="M22.7598 7.55859H25.2793V17.7207H22.7598V7.55859Z" fill="#1F72E4"/>
<path d="M32.8379 7.55859H35.3574V17.7207H32.8379V7.55859Z" fill="#1F72E4"/>
<path d="M12.6816 7.55859H15.2012V17.7207H12.6816V7.55859Z" fill="#1F72E4"/>
<path d="M7.64258 7.55859H10.1621V17.7207H7.64258V7.55859Z" fill="#1F72E4"/>
<path d="M0 39C0 41.2091 1.79086 43 4 43H39C41.2091 43 43 41.2091 43 39V4C43 1.79086 41.2091 0 39 0H4C1.79086 0 0 1.79086 0 4V39ZM5.12305 5.03906H37.877V20.2402H5.12305V5.03906ZM5.12305 22.7598H37.877V37.9609H5.12305V22.7598Z" fill="#1F72E4"/>
<path d="M17.7207 7.55859H20.2402V17.7207H17.7207V7.55859Z" fill="#1F72E4"/>
<path d="M27.7988 7.55859H30.3184V17.7207H27.7988V7.55859Z" fill="#1F72E4"/>
</svg>
