<svg width="53" height="41" viewBox="0 0 53 41" fill="none" xmlns="http://www.w3.org/2000/svg">
<path d="M34.3058 21.8169H9.49822L8.00977 28.4322H35.7943L34.3058 21.8169Z" fill="#1F72E4"/>
<path d="M39.6811 9H4.12352C2.07161 9 0.402344 10.6693 0.402344 12.7211V24.7114C0.402344 26.7632 2.07161 28.4326 4.12352 28.4326H5.46726L7.2961 20.3046C7.42342 19.7386 7.92607 19.3364 8.50623 19.3364H35.2985C35.8786 19.3364 36.3813 19.7386 36.5086 20.3046L38.3374 28.4326H39.6812C41.733 28.4326 43.4023 26.7633 43.4023 24.7114V12.7211C43.4023 10.6693 41.733 9 39.6811 9ZM28.5177 17.6826H26.8638C26.1788 17.6826 25.6235 17.1272 25.6235 16.4423C25.6235 15.7573 26.1789 15.2019 26.8638 15.2019H28.5177C29.2027 15.2019 29.758 15.7573 29.758 16.4423C29.758 17.1272 29.2027 17.6826 28.5177 17.6826ZM34.3061 17.6826H32.6523C31.9672 17.6826 31.4119 17.1272 31.4119 16.4423C31.4119 15.7573 31.9673 15.2019 32.6523 15.2019H34.3061C34.9912 15.2019 35.5465 15.7573 35.5465 16.4423C35.5465 17.1272 34.9912 17.6826 34.3061 17.6826Z" fill="#1F72E4"/>
<path d="M22.7298 34.0829C22.7298 33.7375 22.7942 33.6301 22.9664 33.3431C23.2015 32.9514 23.5567 32.3595 23.5567 31.3268C23.5567 30.6417 23.0013 30.0864 22.3163 30.0864C21.6313 30.0864 21.0759 30.6418 21.0759 31.3268C21.0759 31.6722 21.0115 31.7796 20.8393 32.0666C20.6042 32.4583 20.249 33.0502 20.249 34.0829C20.249 35.1156 20.6042 35.7076 20.8392 36.0994C21.0114 36.3865 21.0759 36.4939 21.0759 36.8394C21.0759 37.1849 21.0115 37.2925 20.8392 37.5795C20.6042 37.9713 20.249 38.5633 20.249 39.596C20.249 40.281 20.8044 40.8363 21.4894 40.8363C22.1744 40.8363 22.7298 40.2809 22.7298 39.596C22.7298 39.2504 22.7942 39.1429 22.9665 38.8559C23.2015 38.4642 23.5567 37.8722 23.5567 36.8394C23.5567 35.8067 23.2015 35.2148 22.9665 34.823C22.7943 34.5359 22.7298 34.4285 22.7298 34.0829Z" fill="#1F72E4"/>
<path d="M16.1135 34.0829C16.1135 33.7375 16.178 33.6301 16.3502 33.3431C16.5853 32.9514 16.9404 32.3595 16.9404 31.3268C16.9404 30.6417 16.3851 30.0864 15.7001 30.0864C15.0151 30.0864 14.4597 30.6418 14.4597 31.3268C14.4597 31.6722 14.3953 31.7796 14.2231 32.0666C13.988 32.4583 13.6328 33.0502 13.6328 34.0829C13.6328 35.1156 13.988 35.7076 14.223 36.0994C14.3952 36.3865 14.4597 36.4939 14.4597 36.8394C14.4597 37.1849 14.3953 37.2925 14.223 37.5795C13.988 37.9713 13.6328 38.5633 13.6328 39.596C13.6328 40.281 14.1882 40.8363 14.8732 40.8363C15.5581 40.8363 16.1135 40.2809 16.1135 39.596C16.1135 39.2504 16.178 39.1429 16.3503 38.8559C16.5853 38.4642 16.9404 37.8722 16.9404 36.8394C16.9404 35.8067 16.5853 35.2148 16.3503 34.823C16.178 34.5359 16.1135 34.4285 16.1135 34.0829Z" fill="#1F72E4"/>
<path d="M29.344 34.0829C29.344 33.7375 29.4084 33.6301 29.5807 33.3431C29.8157 32.9514 30.1709 32.3595 30.1709 31.3268C30.1709 30.6417 29.6155 30.0864 28.9306 30.0864C28.2456 30.0864 27.6902 30.6418 27.6902 31.3268C27.6902 31.6722 27.6258 31.7796 27.4535 32.0666C27.2185 32.4583 26.8633 33.0502 26.8633 34.0829C26.8633 35.1156 27.2185 35.7076 27.4534 36.0994C27.6257 36.3865 27.6902 36.4939 27.6902 36.8394C27.6902 37.1849 27.6258 37.2925 27.4534 37.5795C27.2185 37.9713 26.8633 38.5633 26.8633 39.596C26.8633 40.281 27.4187 40.8363 28.1036 40.8363C28.7886 40.8363 29.344 40.2809 29.344 39.596C29.344 39.2504 29.4084 39.1429 29.5808 38.8559C29.8157 38.4642 30.1709 37.8722 30.1709 36.8394C30.1709 35.8067 29.8157 35.2148 29.5808 34.823C29.4085 34.5359 29.344 34.4285 29.344 34.0829Z" fill="#1F72E4"/>
<circle cx="43" cy="9.99976" r="10" fill="white"/>
<path d="M49.5201 7.54582C49.2386 7.44382 48.9289 7.50847 48.7119 7.71467L48.3168 8.08993L47.9156 8.13653C47.7317 7.6446 47.4768 7.18752 47.1543 6.77139L47.4054 6.45428L47.9324 6.31574C48.222 6.23964 48.4399 6.01033 48.5012 5.71731C48.5626 5.42428 48.4549 5.12681 48.2202 4.94099L46.7004 3.73756C46.4657 3.55171 46.1515 3.51509 45.8803 3.64196C45.6092 3.76882 45.4359 4.03357 45.4282 4.33283L45.4142 4.87756L45.1631 5.19464C44.6841 4.97611 44.1807 4.83277 43.6598 4.76659L43.6132 4.36538L43.8879 3.89478C44.0388 3.63622 44.0307 3.31995 43.8669 3.0694C43.7031 2.81885 43.4166 2.68463 43.1192 2.71918L41.1936 2.94287C40.8963 2.97741 40.6482 3.1737 40.5461 3.45516C40.4441 3.73662 40.5088 4.04628 40.715 4.26335L41.0902 4.65846L41.1368 5.05966C40.6449 5.24354 40.1878 5.49842 39.7717 5.82093L39.4546 5.56982L39.3161 5.04282C39.2399 4.75327 39.0106 4.53532 38.7176 4.47399C38.4246 4.41263 38.1271 4.52037 37.9413 4.75504L36.7378 6.27481C36.552 6.50949 36.5153 6.82375 36.6422 7.09491C36.7691 7.36607 37.0338 7.53931 37.3331 7.54702L37.8778 7.56106L38.1949 7.81216C37.9764 8.29114 37.8331 8.79448 37.7669 9.31546L37.3657 9.36207L36.8951 9.08737C36.6366 8.93648 36.3203 8.94449 36.0697 9.10829C35.8191 9.27212 35.6849 9.55861 35.7195 9.856L35.9432 11.7816C35.9777 12.079 36.174 12.3271 36.4555 12.4291C36.7369 12.5311 37.0466 12.4664 37.2637 12.2602L37.6588 11.885L38.06 11.8384C38.2438 12.3303 38.4987 12.7874 38.8212 13.2035L38.5701 13.5206L38.0431 13.6592C37.7536 13.7353 37.5356 13.9646 37.4743 14.2576C37.413 14.5506 37.5207 14.8481 37.7554 15.0339L39.2751 16.2374C39.5098 16.4232 39.8241 16.4599 40.0952 16.333C40.3664 16.2061 40.5396 15.9414 40.5473 15.6421L40.5614 15.0974L40.8125 14.7803C41.2915 14.9988 41.7948 15.1421 42.3158 15.2083L42.3624 15.6095L42.0877 16.0801C41.9368 16.3387 41.9448 16.6549 42.1086 16.9055C42.2724 17.156 42.5589 17.2903 42.8563 17.2557L44.7819 17.032C45.0793 16.9975 45.3274 16.8012 45.4294 16.5198C45.5314 16.2383 45.4667 15.9286 45.2606 15.7116L44.8853 15.3165L44.8387 14.9153C45.3306 14.7314 45.7877 14.4765 46.2038 14.154L46.5209 14.4051L46.6595 14.9321C46.7356 15.2217 46.9649 15.4396 47.2579 15.5009C47.5509 15.5623 47.8484 15.4545 48.0342 15.2199L49.2377 13.7001C49.4235 13.4654 49.4602 13.1512 49.3333 12.88C49.2064 12.6088 48.9417 12.4356 48.6424 12.4279L48.0977 12.4139L47.7806 12.1628C47.9991 11.6838 48.1424 11.1804 48.2086 10.6595L48.6098 10.6129L49.0804 10.8875C49.339 11.0385 49.6552 11.0304 49.9058 10.8666C50.1564 10.7028 50.2906 10.4163 50.256 10.119L50.0323 8.19334C49.9978 7.89595 49.8015 7.64784 49.5201 7.54582ZM43.6062 11.6226C43.5254 10.927 44.0256 10.2954 44.7212 10.2146C45.4167 10.1338 46.0484 10.634 46.1292 11.3295C46.21 12.0251 45.7098 12.6567 45.0142 12.7375C44.3187 12.8183 43.687 12.3182 43.6062 11.6226Z" fill="#1F72E4"/>
</svg>
