<svg width="35" height="43" viewBox="0 0 35 43" fill="none" xmlns="http://www.w3.org/2000/svg">
<path d="M4.62012 24.5236H29.8154C30.5112 24.5236 31.0752 23.9595 31.0752 23.2638C31.0752 21.1765 29.3832 19.4845 27.2959 19.4845H7.13965C5.05238 19.4845 3.36035 21.1765 3.36035 23.2638C3.36035 23.9595 3.92439 24.5236 4.62012 24.5236Z" fill="#1F72E4"/>
<path d="M18.0572 7.72668H16.3775C11.0153 7.72668 6.58048 11.7683 5.95605 16.965H28.4787C27.8542 11.7683 23.4194 7.72668 18.0572 7.72668Z" fill="#1F72E4"/>
<path d="M18.0566 5.20703C18.7702 5.20703 19.4716 5.26515 20.1562 5.37668C20.1562 4.2486 19.4614 3.28345 18.4766 2.88419V1.25977C18.4766 0.564039 17.9125 0 17.2168 0C16.5211 0 15.957 0.564039 15.957 1.25977V2.88411C14.9722 3.28337 14.2773 4.2486 14.2773 5.3766C14.962 5.26506 15.6634 5.20695 16.377 5.20695H18.0566V5.20703Z" fill="#1F72E4"/>
<path d="M17.2168 27.043C16.5211 27.043 15.957 27.607 15.957 28.3027V29.5625C15.957 30.2582 16.5211 30.8223 17.2168 30.8223C17.9125 30.8223 18.4766 30.2582 18.4766 29.5625V28.3027C18.4766 27.607 17.9125 27.043 17.2168 27.043Z" fill="#1F72E4"/>
<path d="M17.2168 32.5018C16.5211 32.5018 15.957 33.0659 15.957 33.7616V36.2811C15.957 36.9769 16.5211 37.5409 17.2168 37.5409C17.9125 37.5409 18.4766 36.9769 18.4766 36.2811V33.7616C18.4766 33.0659 17.9125 32.5018 17.2168 32.5018Z" fill="#1F72E4"/>
<path d="M17.2168 39.2208C16.5211 39.2208 15.957 39.7849 15.957 40.4806V41.7404C15.957 42.4361 16.5211 43.0001 17.2168 43.0001C17.9125 43.0001 18.4766 42.4361 18.4766 41.7404V40.4806C18.4766 39.7849 17.9125 39.2208 17.2168 39.2208Z" fill="#1F72E4"/>
<path d="M23.5334 30.3639C24.2185 30.2431 24.6761 29.5897 24.5553 28.9045L24.3366 27.6639C24.2158 26.9788 23.5625 26.5214 22.8772 26.642C22.1921 26.7627 21.7345 27.4162 21.8553 28.1014L22.074 29.342C22.1817 29.9531 22.7133 30.3832 23.3132 30.3832C23.3857 30.3832 23.4594 30.3769 23.5334 30.3639Z" fill="#1F72E4"/>
<path d="M24.7006 36.9809C25.3857 36.8601 25.8432 36.2067 25.7224 35.5214L25.2848 33.0402C25.164 32.3551 24.5107 31.8976 23.8254 32.0184C23.1402 32.1392 22.6827 32.7926 22.8035 33.4778L23.2411 35.9591C23.3489 36.5702 23.8804 37.0002 24.4803 37.0002C24.5529 37.0003 24.6266 36.9939 24.7006 36.9809Z" fill="#1F72E4"/>
<path d="M26.4508 39.6568C26.3301 38.9717 25.6772 38.514 24.9914 38.6348C24.3063 38.7556 23.8488 39.4091 23.9695 40.0942L24.1882 41.3348C24.296 41.946 24.8275 42.3761 25.4274 42.3761C25.5 42.3761 25.5736 42.3698 25.6476 42.3568C26.3328 42.236 26.7903 41.5825 26.6695 40.8974L26.4508 39.6568Z" fill="#1F72E4"/>
<path d="M30.1932 28.2159L29.7623 27.0321C29.5244 26.3783 28.8016 26.0411 28.1477 26.2791C27.4938 26.517 27.1567 27.2399 27.3947 27.8938L27.8255 29.0776C28.0117 29.5892 28.4948 29.9069 29.0094 29.9069C29.1525 29.9069 29.298 29.8823 29.4402 29.8306C30.094 29.5926 30.4311 28.8698 30.1932 28.2159Z" fill="#1F72E4"/>
<path d="M32.4903 34.5297L31.6285 32.1622C31.3905 31.5084 30.6677 31.1712 30.0138 31.4093C29.3601 31.6473 29.0229 32.3701 29.2609 33.024L30.1226 35.3915C30.3089 35.9031 30.792 36.2207 31.3066 36.2207C31.4496 36.2207 31.5952 36.1962 31.7374 36.1445C32.3911 35.9064 32.7282 35.1835 32.4903 34.5297Z" fill="#1F72E4"/>
<path d="M34.3582 39.6591L33.9274 38.4754C33.6894 37.8215 32.9663 37.4843 32.3127 37.7224C31.6589 37.9604 31.3218 38.6832 31.5597 39.337L31.9905 40.5208C32.1768 41.0324 32.6598 41.3501 33.1745 41.3501C33.3175 41.3501 33.4631 41.3255 33.6052 41.2738C34.259 41.0357 34.5962 40.3129 34.3582 39.6591Z" fill="#1F72E4"/>
<path d="M11.5567 26.642C10.8716 26.5212 10.2182 26.9787 10.0974 27.664L9.87871 28.9046C9.75794 29.5897 10.2154 30.2431 10.9006 30.364C10.9745 30.377 11.0481 30.3833 11.1208 30.3833C11.7206 30.3833 12.2522 29.9532 12.3599 29.3421L12.5786 28.1014C12.6994 27.4162 12.242 26.7628 11.5567 26.642Z" fill="#1F72E4"/>
<path d="M10.6086 32.0184C9.92378 31.8976 9.27005 32.3551 9.1492 33.0403L8.71172 35.5215C8.59095 36.2067 9.04841 36.8601 9.73356 36.9809C9.80755 36.9939 9.88112 37.0002 9.95385 37.0002C10.5537 37.0002 11.0852 36.5701 11.193 35.959L11.6304 33.4778C11.7512 32.7926 11.2937 32.1392 10.6086 32.0184Z" fill="#1F72E4"/>
<path d="M9.44265 38.6348C8.75751 38.514 8.10411 38.9716 7.98326 39.6567L7.76448 40.8974C7.64362 41.5825 8.10117 42.2359 8.78631 42.3567C8.8603 42.3698 8.93387 42.3761 9.00661 42.3761C9.60642 42.3761 10.138 41.946 10.2457 41.3348L10.4645 40.0942C10.5853 39.4091 10.1278 38.7558 9.44265 38.6348Z" fill="#1F72E4"/>
<path d="M6.28687 26.279C5.63313 26.0412 4.9102 26.3782 4.67219 27.032L4.24135 28.2159C4.00342 28.8696 4.34045 29.5925 4.99427 29.8306C5.13654 29.8823 5.28191 29.9068 5.42502 29.9068C5.93951 29.9068 6.42267 29.5891 6.60887 29.0776L7.03971 27.8937C7.2778 27.24 6.94069 26.517 6.28687 26.279Z" fill="#1F72E4"/>
<path d="M4.41986 31.4092C3.76629 31.1713 3.04319 31.5083 2.80517 32.1622L1.94349 34.5297C1.70557 35.1834 2.0426 35.9064 2.69641 36.1444C2.8386 36.1961 2.98415 36.2206 3.12717 36.2206C3.64174 36.2206 4.12482 35.903 4.31101 35.3914L5.17269 33.0238C5.41071 32.3701 5.07368 31.6472 4.41986 31.4092Z" fill="#1F72E4"/>
<path d="M2.12183 37.7222C1.46801 37.4845 0.745159 37.8213 0.507147 38.4752L0.076307 39.6589C-0.161621 40.3127 0.175409 41.0357 0.829227 41.2737C0.971496 41.3254 1.11687 41.3499 1.25998 41.3499C1.77447 41.3499 2.25763 41.0323 2.44383 40.5208L2.87467 39.337C3.11268 38.6832 2.77556 37.9602 2.12183 37.7222Z" fill="#1F72E4"/>
</svg>
