<svg width="45" height="45" viewBox="0 0 45 45" fill="none" xmlns="http://www.w3.org/2000/svg">
<path d="M13.76 2.3004L13.7604 2.30024C14.3639 2.0185 14.6256 1.3006 14.3439 0.69584C14.0621 0.0922909 13.3454 -0.167074 12.7395 0.112329L3.98689 4.19345C3.38334 4.47519 3.12164 5.19309 3.40338 5.79784C3.6085 6.23626 4.04346 6.49442 4.49846 6.49442C4.66906 6.49442 4.84224 6.45756 5.00697 6.38144L6.02769 8.57015L14.7806 4.48854L13.76 2.3004Z" fill="#1F72E4"/>
<path d="M2.17286 17.3815C0.820908 18.6851 0 20.5199 0 22.5237C0 25.6622 2.02801 28.3419 4.82839 29.3318V28.5593C4.82839 27.4004 5.19061 26.2658 5.81814 25.276L2.17286 17.3815Z" fill="#1F72E4"/>
<path d="M35.1665 34.5948H6.03522C5.36858 34.5948 4.82812 35.1351 4.82812 35.8019V38.2161C4.82812 38.892 5.35917 39.4232 6.03522 39.4232H35.1665C35.8426 39.4232 36.3736 38.892 36.3736 38.2161V35.8019C36.3736 35.1351 35.8332 34.5948 35.1665 34.5948Z" fill="#1F72E4"/>
<path d="M37.943 15.2326L36.8807 11.6354L24.3992 5.81738L21.1159 7.26598L17.6716 5.81738L5.19036 11.6357L4.12811 15.2328C4.05561 15.4741 4.07975 15.7398 4.17632 15.9812H4.15217L8.32881 24.9137C8.3322 24.9213 8.32898 24.93 8.3322 24.9378H14.412L10.0031 15.6217C9.77331 15.1384 9.65654 14.6162 9.65654 14.0739C9.65654 12.0439 11.3149 10.4526 13.2778 10.4526C14.8175 10.4526 16.1241 11.4546 16.6355 12.8668H24.541C24.9063 11.8522 25.6882 11.0225 26.7168 10.6589C28.7102 9.95516 31.0654 11.2742 31.478 13.3749C31.5448 13.3749 31.6681 14.5079 31.267 15.466C31.0374 15.9677 27.0257 24.437 26.7887 24.9377H33.7315L37.7498 16.3432C37.931 15.9443 38.0597 15.7 37.943 15.2326Z" fill="#1F72E4"/>
<path d="M20.5207 20.1101C18.4909 20.1101 16.8994 21.7525 16.8994 23.7314C16.8994 25.7622 18.557 27.3527 20.5207 27.3527C22.4884 27.3527 24.303 25.7581 24.303 23.7314C24.303 21.7345 22.5176 20.1101 20.5207 20.1101ZM20.5207 24.9385C19.8541 24.9385 19.3136 24.398 19.3136 23.7314C19.3136 23.0646 19.8541 22.5243 20.5207 22.5243C21.1874 22.5243 21.8888 23.0646 21.8888 23.7314C21.8888 24.398 21.1874 24.9385 20.5207 24.9385Z" fill="#1F72E4"/>
<path d="M24.526 15.2816H16.6839C16.2366 16.5443 15.2175 17.4805 13.6289 17.636L15.1972 20.9497C16.3364 18.768 18.4283 17.6958 20.5213 17.6958C22.8404 17.6958 24.9959 19.0254 26.0062 20.949L27.5634 17.6593C26.1526 17.5168 24.9866 16.5733 24.526 15.2816Z" fill="#1F72E4"/>
<path d="M27.9239 12.8674C27.2725 12.8674 26.7168 13.3919 26.7168 14.0745C26.7168 14.7405 27.2579 15.2816 27.9239 15.2816C28.6113 15.2816 29.131 14.7225 29.131 14.0745C29.0537 13.2645 28.5299 12.8674 27.9239 12.8674Z" fill="#1F72E4"/>
<path d="M32.7522 27.3522H25.5096C25.4905 27.3522 25.4745 27.3421 25.4555 27.3413C24.3279 28.8243 22.4231 29.7664 20.5203 29.7664C18.6178 29.7664 16.8744 28.8248 15.7461 27.3413C15.7271 27.3422 15.7112 27.3522 15.6919 27.3522H8.44929C7.78265 27.3522 7.24219 27.8924 7.24219 28.5593V32.1806H33.9593V28.5593C33.9593 27.8925 33.4188 27.3522 32.7522 27.3522Z" fill="#1F72E4"/>
<path d="M14.4621 13.84C14.3513 13.2765 13.8538 12.8674 13.2774 12.8674C12.7057 12.8674 12.2082 13.2729 12.0939 13.8305C11.904 14.7944 12.8523 15.5138 13.6782 15.2133C14.4192 14.9508 14.3937 14.4758 14.5346 13.8256L14.4621 13.84Z" fill="#1F72E4"/>
<path d="M39.6079 18.009L35.8418 26.1207C36.2038 26.9175 36.3728 27.714 36.3728 28.5591V29.3316C39.1732 28.3417 41.2012 25.662 41.2012 22.5236C41.2012 20.8336 40.6218 19.2643 39.6079 18.009Z" fill="#1F72E4"/>
<path d="M38.0826 4.19357L29.33 0.112616C28.7288 -0.164373 28.0098 0.0949119 27.7256 0.696128C27.4439 1.30088 27.7056 2.01879 28.3091 2.30052L28.3095 2.30068L27.2891 4.48859L36.0421 8.56979L37.0625 6.38164C37.6802 6.66732 38.3896 6.38921 38.6661 5.79797C38.9479 5.19321 38.6862 4.47531 38.0826 4.19357Z" fill="#1F72E4"/>
<path d="M43.0985 37.3044V37.3043C43.0984 36.1907 42.7961 35.0956 42.2312 34.128L38.1318 26.2671C38.1317 26.267 38.1316 26.2669 38.1316 26.2668C37.6453 25.3315 36.6423 24.9816 35.8285 24.9816C35.0146 24.9816 34.0117 25.3315 33.5255 26.2667C33.5254 26.2668 33.5253 26.267 33.5252 26.2671L29.4526 34.0847C28.8686 35.0631 28.5586 36.1765 28.5586 37.3044C28.5586 41.0861 31.9109 44 35.8285 44C39.7462 44 43.0985 41.0861 43.0985 37.3044Z" fill="#1F72E4" stroke="white" stroke-width="2"/>
</svg>
