<svg width="43" height="39" viewBox="0 0 43 39" fill="none" xmlns="http://www.w3.org/2000/svg">
<path d="M31.4941 8.49951V11.8574H34.8521C34.4072 10.2288 33.1227 8.94421 31.4941 8.49951Z" fill="#1F72E4"/>
<path d="M39.2207 0.435547H3.7793C1.69539 0.435547 0 2.13094 0 4.21484V26.7227C0 28.8066 1.69539 30.502 3.7793 30.502H39.2207C41.3046 30.502 43 28.8066 43 26.7227V4.21484C43 2.13094 41.3046 0.435547 39.2207 0.435547ZM7.51744 19.4664C6.66542 20.1388 5.45898 19.5433 5.45898 18.4922C5.45898 17.7697 6.07829 17.1681 6.84305 17.2382C7.955 17.3559 8.38366 18.736 7.51744 19.4664ZM7.9718 13.2406C7.91763 13.9042 7.29849 14.4419 6.59445 14.3702C5.92686 14.3146 5.39239 13.6943 5.4657 12.9936C5.52105 12.3093 6.18251 11.7353 6.96482 11.8818C7.62721 12.0193 8.03579 12.6235 7.9718 13.2406ZM7.97264 7.8664C7.85909 8.96214 6.48359 9.41868 5.74453 8.5408C5.28136 7.95484 5.41254 7.18277 5.92006 6.76788C6.79518 6.05477 8.08551 6.7662 7.97264 7.8664ZM14.1094 25.127H12.0938C11.398 25.127 10.834 24.5629 10.834 23.8672C10.834 23.1715 11.398 22.6074 12.0938 22.6074H14.1094C14.8051 22.6074 15.3691 23.1715 15.3691 23.8672C15.3691 24.5629 14.8051 25.127 14.1094 25.127ZM18.8125 19.752H12.0938C11.398 19.752 10.834 19.1879 10.834 18.4922C10.834 17.7965 11.398 17.2324 12.0938 17.2324H18.8125C19.5082 17.2324 20.0723 17.7965 20.0723 18.4922C20.0723 19.1879 19.5082 19.752 18.8125 19.752ZM18.8125 14.377H12.0938C11.398 14.377 10.834 13.8129 10.834 13.1172C10.834 12.4215 11.398 11.8574 12.0938 11.8574H18.8125C19.5082 11.8574 20.0723 12.4215 20.0723 13.1172C20.0723 13.8129 19.5082 14.377 18.8125 14.377ZM18.8125 9.00195H12.0938C11.398 9.00195 10.834 8.43791 10.834 7.74219C10.834 7.04646 11.398 6.48242 12.0938 6.48242H18.8125C19.5082 6.48242 20.0723 7.04646 20.0723 7.74219C20.0723 8.43791 19.5082 9.00195 18.8125 9.00195ZM26.2031 25.127H24.1875C23.4918 25.127 22.9277 24.5629 22.9277 23.8672C22.9277 23.1715 23.4918 22.6074 24.1875 22.6074H26.2031C26.8989 22.6074 27.4629 23.1715 27.4629 23.8672C27.4629 24.5629 26.8989 25.127 26.2031 25.127ZM30.2344 20.4238C26.2055 20.4238 22.9277 17.1461 22.9277 13.1172C22.9277 9.08829 26.2055 5.81055 30.2344 5.81055C34.2633 5.81055 37.541 9.08829 37.541 13.1172C37.541 17.1461 34.2633 20.4238 30.2344 20.4238Z" fill="#1F72E4"/>
<path d="M28.9746 13.1171V8.49951C26.9444 9.05406 25.4473 10.9136 25.4473 13.1171C25.4473 15.7568 27.5947 17.9043 30.2344 17.9043C32.438 17.9043 34.2975 16.4071 34.8521 14.3769H30.2344C29.5386 14.3769 28.9746 13.8129 28.9746 13.1171Z" fill="#1F72E4"/>
<path d="M34.9375 36.0449H26.791V33.0215H16.209V36.0449H8.0625C7.36677 36.0449 6.80273 36.609 6.80273 37.3047C6.80273 38.0004 7.36677 38.5645 8.0625 38.5645H34.9375C35.6332 38.5645 36.1973 38.0004 36.1973 37.3047C36.1973 36.609 35.6332 36.0449 34.9375 36.0449Z" fill="#1F72E4"/>
</svg>
