<svg width="43" height="43" viewBox="0 0 43 43" fill="none" xmlns="http://www.w3.org/2000/svg">
<g clip-path="url(#clip0)">
<path d="M42.8653 19.1126C42.7974 18.5082 42.0925 18.0536 41.4829 18.0536C39.5128 18.0536 37.7644 16.8973 37.0312 15.1076C36.2827 13.2749 36.7656 11.1381 38.2334 9.79155C38.6957 9.36887 38.7521 8.66111 38.3645 8.1698C37.3559 6.88928 36.21 5.73243 34.9585 4.72992C34.4689 4.33717 33.7494 4.39185 33.3245 4.86214C32.043 6.28138 29.741 6.80876 27.9621 6.0666C26.1116 5.28798 24.9436 3.41221 25.0584 1.39883C25.0961 0.766005 24.6334 0.216122 24.0029 0.142668C22.3967 -0.0432916 20.7765 -0.0486844 19.1657 0.130023C18.5431 0.198828 18.0808 0.735693 18.1014 1.36052C18.1712 3.35419 16.99 5.19686 15.1573 5.94758C13.3998 6.66557 11.1138 6.1421 9.83497 4.73531C9.41228 4.2719 8.70545 4.215 8.21247 4.59938C6.92415 5.61044 5.75241 6.76804 4.73447 8.03814C4.33782 8.53186 4.3964 9.24744 4.8626 9.67161C6.35939 11.0271 6.84195 13.1823 6.06483 15.0364C5.32285 16.8039 3.48761 17.9425 1.38683 17.9425C0.705098 17.9206 0.219929 18.3786 0.144615 18.9986C-0.0443196 20.6133 -0.0463652 22.2594 0.135503 23.8873C0.203379 24.4943 0.929179 24.945 1.54545 24.945C3.41806 24.8974 5.2148 26.056 5.96961 27.8908C6.72071 29.7234 6.23721 31.8594 4.76701 33.2078C4.30714 33.6305 4.24837 34.3365 4.63666 34.8273C5.63507 36.0998 6.78207 37.2574 8.0373 38.2685C8.53009 38.6653 9.24678 38.6097 9.67393 38.1389C10.9604 36.7163 13.262 36.1898 15.0337 36.9335C16.8895 37.71 18.057 39.5856 17.943 41.5996C17.9056 42.2324 18.3694 42.784 18.9978 42.8557C19.8197 42.9519 20.6459 42.9995 21.4747 42.9995C22.2613 42.9995 23.0481 42.9565 23.8349 42.8689C24.4583 42.8001 24.9198 42.2627 24.8988 41.6377C24.8268 39.645 26.0107 37.8021 27.8411 37.0529C29.6103 36.3302 31.8861 36.8591 33.1656 38.2638C33.5906 38.7263 34.2931 38.7825 34.7881 38.3996C36.0742 37.3911 37.2437 36.2341 38.2661 34.9606C38.6632 34.4678 38.6068 33.7513 38.138 33.3264C36.6416 31.9719 36.1564 29.8157 36.9336 27.9635C37.664 26.2198 39.431 25.049 41.3315 25.049L41.5974 25.056C42.2144 25.1061 42.7814 24.6309 42.856 24.0015C43.0459 22.3853 43.0479 20.741 42.8653 19.1126ZM21.5006 33.8945C14.6549 33.8945 9.10564 28.3453 9.10564 21.4998C9.10564 14.6542 14.655 9.10499 21.5006 9.10499C28.3461 9.10499 33.8955 14.6542 33.8955 21.4998C33.8955 23.8233 33.2549 25.9966 32.1423 27.8551L26.7149 22.4275C27.1078 21.5011 27.3154 20.4967 27.3152 19.4602C27.3152 17.4304 26.5247 15.5223 25.0892 14.0872C23.6542 12.6522 21.7461 11.8618 19.7167 11.8618C19.0394 11.8618 18.3653 11.9518 17.7132 12.1294C17.4275 12.2074 17.1939 12.4428 17.1179 12.729C17.0402 13.0217 17.1277 13.3216 17.3565 13.5505C17.3565 13.5505 20.036 16.2507 20.9325 17.147C21.0264 17.2409 21.0262 17.465 21.013 17.5457L21.0046 17.6046C20.9143 18.5902 20.74 19.7733 20.5963 20.228C20.5769 20.2471 20.5587 20.2633 20.539 20.283C20.5184 20.3037 20.4994 20.3236 20.4795 20.344C20.0189 20.4919 18.8176 20.6681 17.8164 20.7578L17.8165 20.7524L17.7715 20.7637C17.7635 20.7647 17.7487 20.7658 17.729 20.7658C17.6207 20.7658 17.4615 20.7355 17.3169 20.591C16.3837 19.6578 13.8093 17.1018 13.8093 17.1018C13.5783 16.8716 13.3414 16.8232 13.1835 16.8232C12.8155 16.8232 12.486 17.0892 12.3822 17.4706C11.6736 20.0932 12.4248 22.9142 14.3434 24.8329C15.7788 26.2681 17.6871 27.0585 19.7169 27.0585C20.7534 27.0585 21.7578 26.8511 22.684 26.4582L28.1704 31.9445C26.2442 33.1771 23.9569 33.8945 21.5006 33.8945Z" fill="#1F72E4"/>
</g>
<defs>
<clipPath id="clip0">
<rect width="43" height="43" fill="white"/>
</clipPath>
</defs>
</svg>
