<svg width="43" height="43" viewBox="0 0 43 43" fill="none" xmlns="http://www.w3.org/2000/svg">
<path fill-rule="evenodd" clip-rule="evenodd" d="M43 5.03906C43 7.22879 41.5956 9.09584 39.6406 9.78922V33.2108C41.5956 33.9042 43 35.7712 43 37.9609C43 40.7395 40.7395 43 37.9609 43C35.1824 43 32.9219 40.7395 32.9219 37.9609C32.9219 35.7712 34.3263 33.9042 36.2812 33.2108V23.1797H29.2711C29.1857 23.005 29.0931 22.8331 28.9934 22.6645L27.5056 19.8203H36.2812V9.78922C34.3263 9.09576 32.9219 7.22879 32.9219 5.03906C32.9219 2.26052 35.1824 0 37.9609 0C40.7395 0 43 2.26052 43 5.03906ZM23.1797 11.6666V9.78922C25.1347 9.09584 26.5391 7.22879 26.5391 5.03906C26.5391 2.26052 24.2785 0 21.5 0C18.7215 0 16.4609 2.26052 16.4609 5.03906C16.4609 7.22879 17.8653 9.09576 19.8203 9.78922V11.6664C20.6297 10.7778 22.3704 10.7779 23.1797 11.6666ZM15.4984 19.8203H5.03906C4.11137 19.8203 3.35938 20.5723 3.35938 21.5V33.2108C1.40439 33.9042 0 35.7712 0 37.9609C0 40.7395 2.26052 43 5.03906 43C7.8176 43 10.0781 40.7395 10.0781 37.9609C10.0781 35.7712 8.67374 33.9042 6.71875 33.2108V23.1797H13.7293C13.8239 22.9866 13.9274 22.7971 14.0397 22.6117L15.4984 19.8203ZM18.9167 33.6368C17.447 34.5179 16.4609 36.1261 16.4609 37.9609C16.4609 40.7395 18.7215 43 21.5 43C24.2785 43 26.5391 40.7395 26.5391 37.9609C26.5391 36.1261 25.553 34.5179 24.0833 33.6368C23.2683 33.8727 22.4003 34 21.5 34C20.5997 34 19.7316 33.8727 18.9167 33.6368ZM3.35938 37.9609C3.35938 38.8871 4.11288 39.6406 5.03906 39.6406C5.96524 39.6406 6.71875 38.8871 6.71875 37.9609C6.71875 37.0348 5.96524 36.2812 5.03906 36.2812C4.11288 36.2812 3.35938 37.0348 3.35938 37.9609ZM19.8203 37.9609C19.8203 38.8871 20.5738 39.6406 21.5 39.6406C22.4262 39.6406 23.1797 38.8871 23.1797 37.9609C23.1797 37.0348 22.4262 36.2812 21.5 36.2812C20.5738 36.2812 19.8203 37.0348 19.8203 37.9609ZM19.8203 5.03906C19.8203 5.96524 20.5738 6.71875 21.5 6.71875C22.4262 6.71875 23.1797 5.96524 23.1797 5.03906C23.1797 4.11288 22.4262 3.35938 21.5 3.35938C20.5738 3.35938 19.8203 4.11288 19.8203 5.03906ZM39.6406 5.03906C39.6406 4.11288 38.8871 3.35938 37.9609 3.35938C37.0348 3.35938 36.2812 4.11288 36.2812 5.03906C36.2812 5.96524 37.0348 6.71875 37.9609 6.71875C38.8871 6.71875 39.6406 5.96524 39.6406 5.03906ZM36.2812 37.9609C36.2812 38.8871 37.0348 39.6406 37.9609 39.6406C38.8871 39.6406 39.6406 38.8871 39.6406 37.9609C39.6406 37.0348 38.8871 36.2812 37.9609 36.2812C37.0348 36.2812 36.2812 37.0348 36.2812 37.9609Z" fill="#1F72E4"/>
<path d="M26.7974 22.6309L22.6858 14.7467C22.1684 13.7511 20.3713 13.7511 19.854 14.7467L15.7669 22.5919C15.2648 23.4235 15 24.369 15 25.3229C15 28.464 17.812 31.0184 21.2699 31.0184C24.7279 31.0184 27.5399 28.464 27.5399 25.3229C27.5398 24.383 27.2826 23.454 26.7974 22.6309Z" fill="#1F72E4"/>
</svg>
