<svg width="19" height="18" viewBox="0 0 19 18" fill="none" xmlns="http://www.w3.org/2000/svg">
<path d="M18 3.52176H15.9159C15.5771 4.64949 14.5409 5.47827 13.3044 5.47827C12.0679 5.47827 11.0325 4.64949 10.6928 3.52176H0.782598C0.350597 3.52176 0 3.17112 0 2.73912C0 2.30712 0.350597 1.95653 0.782598 1.95653H10.6928C11.0316 0.828796 12.0678 1.14441e-05 13.3043 1.14441e-05C14.5408 1.14441e-05 15.5763 0.828796 15.9159 1.95653H18C18.4328 1.95653 18.7826 2.30712 18.7826 2.73912C18.7826 3.17112 18.4328 3.52176 18 3.52176ZM13.3044 1.56521C12.6572 1.56521 12.1305 2.09189 12.1305 2.73912C12.1305 3.38635 12.6572 3.91304 13.3044 3.91304C13.9516 3.91304 14.4783 3.38635 14.4783 2.73912C14.4783 2.09189 13.9516 1.56521 13.3044 1.56521Z" fill="#1F72E4"/>
<path d="M18 16.0435H15.9159C15.5763 17.1712 14.5409 18 13.3044 18C12.0679 18 11.0325 17.1712 10.6928 16.0435H0.782598C0.350597 16.0435 0 15.6929 0 15.2609C0 14.8289 0.350597 14.4783 0.782598 14.4783H10.6928C11.0325 13.3505 12.0679 12.5217 13.3044 12.5217C14.5409 12.5217 15.5763 13.3505 15.9159 14.4783H18C18.4328 14.4783 18.7826 14.8289 18.7826 15.2609C18.7826 15.6929 18.4328 16.0435 18 16.0435ZM13.3044 14.087C12.6572 14.087 12.1305 14.6137 12.1305 15.2609C12.1305 15.9081 12.6572 16.4348 13.3044 16.4348C13.9516 16.4348 14.4783 15.9081 14.4783 15.2609C14.4783 14.6137 13.9516 14.087 13.3044 14.087Z" fill="#1F72E4"/>
<path d="M18 9.7825H8.08985C7.75019 10.9102 6.7148 11.739 5.4783 11.739C4.2418 11.739 3.20637 10.9102 2.86674 9.7825H0.782598C0.350597 9.7825 0 9.4319 0 8.9999C0 8.5679 0.350597 8.2173 0.782598 8.2173H2.8667C3.20637 7.08957 4.24176 6.26079 5.47826 6.26079C6.71476 6.26079 7.75019 7.08957 8.08982 8.2173H18C18.4328 8.2173 18.7826 8.5679 18.7826 8.9999C18.7826 9.4319 18.4328 9.7825 18 9.7825ZM5.47826 7.82598C4.83103 7.82598 4.30434 8.35267 4.30434 8.9999C4.30434 9.64713 4.83103 10.1738 5.47826 10.1738C6.12549 10.1738 6.65217 9.64713 6.65217 8.9999C6.65217 8.35267 6.12549 7.82598 5.47826 7.82598Z" fill="#1F72E4"/>
</svg>
