<svg width="73" height="21" viewBox="0 0 73 21" fill="none" xmlns="http://www.w3.org/2000/svg">
<path d="M23.6418 7.25852C23.8279 8.56133 23.8279 9.86414 24.0141 11.3531C24.0141 11.5392 24.0141 11.7253 24.3864 11.7253C25.131 11.7253 25.6895 11.7253 26.4341 11.5392C27.9233 11.3531 28.854 10.6086 29.5987 9.3058C29.971 8.56134 29.971 7.63076 29.971 6.70018C29.7848 5.02513 29.0402 3.90843 27.551 3.35008C26.6202 2.79173 25.5033 2.97785 24.3864 2.97785C24.2002 2.97785 24.0141 3.16396 24.0141 3.35008C23.8279 4.46678 23.8279 5.9557 23.6418 7.25852ZM23.8279 14.3309C23.0833 14.3309 22.3387 14.3309 21.5941 14.3309C21.0356 14.3309 21.0356 14.3309 20.8495 13.7726C20.6633 12.842 20.4772 11.9114 20.4772 10.9808C20.291 9.30579 20.291 7.44464 20.291 5.7696C20.291 3.90844 20.4772 2.23339 21.0356 0.372227C21.0356 -5.68536e-06 21.2218 0 21.5941 0C23.0833 0 24.5725 0 26.0617 0C28.1094 0.186116 30.1571 0.744459 31.6463 2.23339C32.5771 3.16397 33.1356 4.46678 33.3217 5.95571C33.5079 7.81687 33.3217 9.67804 32.2048 11.167C31.274 12.4698 29.971 13.4003 28.2956 13.7726C27.3648 13.9587 26.4341 14.1448 25.3171 14.1448C24.7587 14.3309 24.3864 14.3309 23.8279 14.3309Z" fill="black"/>
<path d="M64.7807 3.72241V7.44474C65.7114 7.44474 66.6422 7.44474 67.573 7.44474C68.5037 7.25862 69.0622 6.51415 69.0622 5.58357C69.0622 4.65299 68.5037 3.90852 67.573 3.90852C66.6422 3.72241 65.7114 3.72241 64.7807 3.72241ZM61.2438 0.930664C62.3607 0.930664 63.4776 0.930664 64.5945 0.930664C65.7114 0.930664 66.8284 0.930664 67.9453 0.930664C69.2483 1.11678 70.3653 1.489 71.1099 2.41959C73.3437 4.8391 72.2268 8.74754 69.0622 9.67813C68.3176 9.86424 67.573 9.86424 66.8284 10.0504C66.0837 10.0504 65.3391 10.0504 64.5945 10.0504V13.4005H61.0576V0.930664H61.2438Z" fill="black"/>
<path d="M54.9152 8.56135C54.3567 7.25854 53.7983 5.95573 53.426 4.65291H53.2398C52.6813 5.95573 52.1229 7.25854 51.7506 8.56135H54.9152ZM49.7029 13.5865H46.166C46.166 13.4004 46.166 13.4004 46.3522 13.2142C48.0275 9.3058 49.7029 5.39737 51.5644 1.48893C51.7506 1.30281 51.7506 1.1167 52.1229 1.1167C53.0537 1.1167 53.9844 1.1167 54.9152 1.1167C55.1013 1.1167 55.2875 1.11669 55.4736 1.48893C57.149 5.39737 59.0105 9.49193 60.6859 13.4004V13.5865H59.9413C59.1967 13.5865 58.2659 13.5865 57.5213 13.5865C57.3352 13.5865 57.149 13.5865 56.9629 13.2142C56.7767 12.6559 56.4044 12.0976 56.2183 11.5392C56.0321 11.167 56.0321 11.167 55.6598 11.167C54.1706 11.167 52.6814 11.167 51.1921 11.167C51.006 11.167 50.8198 11.3531 50.6337 11.5392C50.2614 12.0976 49.8891 12.842 49.7029 13.5865Z" fill="black"/>
<path d="M45.2359 13.4004H34.2529C34.2529 12.6559 34.2529 12.0975 34.2529 11.3531C34.2529 11.167 34.4391 10.9809 34.4391 10.9809C36.3006 8.74746 38.1621 6.51406 39.8375 4.46678C40.0237 4.28067 40.2098 4.09456 40.396 3.90844H34.2529V1.1167H44.8636C44.8636 1.86116 44.8636 2.41951 44.8636 3.16398C44.8636 3.35009 44.6775 3.5362 44.6775 3.5362C42.816 5.7696 40.9544 8.00301 39.0929 10.2364C38.9067 10.4225 38.9068 10.6086 38.7206 10.7948H45.2359V13.4004Z" fill="black"/>
<path d="M0.558594 13.4004V1.1167H3.90934V10.7948H8.93549V13.4004H0.558594Z" fill="black"/>
<path d="M10.6113 13.4003V10.7947C10.7975 10.7947 10.9836 10.7947 11.1698 10.7947C13.5898 10.7947 15.8236 10.7947 18.2436 10.7947C18.9882 10.7947 18.9882 10.7947 18.9882 11.5391C18.9882 12.0975 19.1743 12.8419 19.1743 13.4003H10.6113Z" fill="black"/>
<path d="M19.1743 1.1167C18.9882 2.04728 18.9882 2.79173 18.802 3.53619H10.6113V1.1167H19.1743Z" fill="black"/>
<path d="M18.6159 5.95557H10.6113V8.56122H18.6159V5.95557Z" fill="black"/>
<path d="M0.930766 18.4254C0.930766 18.6115 0.744615 18.7976 0.744615 18.9837H2.04768V17.1226H1.11692V17.4948C1.11692 18.0531 0.930766 18.2392 0.930766 18.4254ZM3.16461 18.9837V20.1004H2.60615V19.5421H0.558465V20.1004H0V18.9837H0.18615C0.372303 18.9837 0.558465 18.7976 0.558465 18.6115C0.558465 18.4254 0.744615 18.0531 0.744615 17.4948V16.5642H2.97845V18.9837H3.16461Z" fill="black"/>
<path d="M5.2125 18.0531C5.39865 18.0531 5.39865 17.867 5.39865 17.6809C5.39865 17.4948 5.39865 17.3087 5.2125 17.3087C5.02634 17.3087 5.02633 17.1226 4.84018 17.1226H4.28173V18.0531H4.84018C5.02633 18.2393 5.2125 18.2393 5.2125 18.0531ZM5.5848 16.7503C5.77095 16.7503 5.95711 16.9364 5.95711 17.1226C6.14327 17.3087 6.14326 17.4948 6.14326 17.6809C6.14326 17.867 6.14327 18.0532 5.95711 18.2393C5.77096 18.4254 5.77095 18.6115 5.5848 18.6115C5.39864 18.6115 5.21249 18.7976 4.84018 18.7976H4.28173V19.5421H3.53711V16.5642H4.84018C5.02633 16.5642 5.39864 16.7503 5.5848 16.7503Z" fill="black"/>
<path d="M9.121 16.5643L7.81795 18.7977C7.63179 18.9838 7.63179 19.1699 7.44563 19.356C7.25948 19.5421 7.07334 19.5422 6.88719 19.5422C6.70104 19.5422 6.51488 19.5421 6.32873 19.356L6.51488 18.7977C6.70103 18.7977 6.70104 18.7977 6.88719 18.7977H7.07334L7.25949 18.6116L6.14258 16.3782H6.88719L7.63178 17.8671L8.37639 16.3782H9.121V16.5643Z" fill="black"/>
<path d="M11.5415 18.2393C11.7276 18.4254 11.7276 18.4254 11.7276 18.6115C11.7276 18.7976 11.7276 18.9837 11.5415 18.9837C11.3553 19.1698 11.3553 19.1698 10.983 19.3559C10.7968 19.3559 10.6107 19.5421 10.4245 19.5421C10.2384 19.5421 10.0522 19.5421 9.86608 19.5421C9.67993 19.5421 9.49377 19.3559 9.30762 19.3559L9.49377 18.7976C9.67992 18.7976 9.67993 18.9837 9.86608 18.9837C10.0522 18.9837 10.2384 18.9837 10.2384 18.9837C10.4245 18.9837 10.6107 18.9837 10.7968 18.7976C10.983 18.7976 10.983 18.6115 10.983 18.4254C10.983 18.2392 10.983 18.2393 10.7968 18.2393C10.7968 18.2393 10.6107 18.2393 10.4245 18.2393H9.67993V17.6809H10.4245C10.6107 17.6809 10.6107 17.6809 10.7968 17.6809L10.983 17.4948C10.983 17.3087 10.983 17.3087 10.7968 17.3087C10.6107 17.3087 10.6107 17.1226 10.4245 17.1226C10.2384 17.1226 10.2384 17.1226 10.0522 17.1226C9.86608 17.1226 9.86608 17.1226 9.67993 17.3087L9.49377 16.7503C9.86607 16.5642 10.0522 16.5642 10.4245 16.5642C10.6107 16.5642 10.7968 16.5642 10.983 16.7503C11.1691 16.7503 11.3553 16.9364 11.3553 17.1226C11.3553 17.3087 11.5415 17.3087 11.5415 17.4948C11.5415 17.6809 11.5414 17.6809 11.3553 17.867C11.3553 18.0531 11.1691 18.0531 10.983 18.0531C11.3553 18.0531 11.3553 18.2393 11.5415 18.2393Z" fill="black"/>
<path d="M13.9611 18.9837C14.1473 18.9837 14.1473 18.7976 14.1473 18.6115C14.1473 18.2393 13.9611 18.2393 13.5888 18.2393H13.0304V19.1698H13.5888C13.5888 19.1698 13.775 18.9837 13.9611 18.9837ZM14.3334 17.867C14.5196 18.0531 14.7057 18.2393 14.7057 18.6115C14.7057 18.9837 14.5196 19.1698 14.3334 19.3559C14.1473 19.5421 13.775 19.5421 13.4027 19.5421H12.0996V16.5642H12.8442V17.4948H13.5888C13.9611 17.6809 14.1473 17.6809 14.3334 17.867Z" fill="black"/>
<path d="M15.6368 17.3087C15.4507 17.3087 15.4507 17.4948 15.4507 17.6809C15.4507 17.867 15.4507 18.0531 15.6368 18.0531C15.823 18.0531 15.823 18.2393 16.0091 18.2393H16.5676V17.1226H16.0091C15.823 17.1226 15.823 17.3087 15.6368 17.3087ZM17.3122 16.5642V19.5421H16.5676V18.7976H16.0091L15.4507 19.5421H14.7061L15.2645 18.6115C15.0784 18.6115 14.8922 18.4254 14.8922 18.2393C14.7061 18.0532 14.7061 17.867 14.7061 17.6809C14.7061 17.4948 14.7061 17.3087 14.8922 17.1226C15.0784 16.9364 15.0784 16.7503 15.2645 16.7503C15.4507 16.7503 15.6368 16.5642 16.0091 16.5642H17.3122Z" fill="black"/>
<path d="M19.7319 19.356C19.5458 19.1698 19.3596 18.9837 19.1735 18.7976C18.9873 18.6115 18.9873 18.2393 18.9873 18.0531C18.9873 17.6809 18.9873 17.4948 19.1735 17.3087C19.3596 17.1226 19.5458 16.9365 19.7319 16.7503C19.9181 16.5642 20.2904 16.5642 20.4765 16.5642C20.6627 16.5642 21.035 16.5642 21.2211 16.7503C21.4073 16.7503 21.5934 16.9364 21.7796 17.1226L21.4073 17.4948C21.2211 17.3087 21.035 17.1226 20.6627 17.1226C20.4765 17.1226 20.2904 17.1226 20.1042 17.3087C19.9181 17.3087 19.9181 17.4948 19.7319 17.6809C19.7319 17.867 19.5458 18.0532 19.5458 18.2393C19.5458 18.4254 19.5458 18.6115 19.7319 18.7976C19.7319 18.9837 19.9181 18.9837 20.1042 19.1699C20.2904 19.1699 20.4765 19.356 20.6627 19.356C21.035 19.356 21.2211 19.1698 21.4073 18.9837L21.7796 19.356C21.5934 19.5421 21.4073 19.7282 21.2211 19.7282C21.035 19.7282 20.8488 19.9143 20.4765 19.9143C20.2904 19.5421 20.1042 19.5421 19.7319 19.356Z" fill="black"/>
<path d="M24.1994 18.6116C24.1994 18.4254 24.0133 18.2393 23.641 18.2393H22.8964V18.9838H23.641C24.0133 19.1699 24.1994 18.9838 24.1994 18.6116ZM22.8964 17.8671H23.4548C23.641 17.8671 23.641 17.8671 23.8271 17.8671C24.0133 17.8671 24.0133 17.681 24.0133 17.681C24.0133 17.4949 24.0133 17.4949 23.8271 17.4949C23.8271 17.4949 23.641 17.4949 23.4548 17.4949H22.8964V17.8671ZM24.7579 18.2393C24.944 18.4255 24.944 18.4254 24.944 18.6116C24.944 18.7977 24.7579 18.9838 24.5717 19.1699C24.3856 19.356 24.0133 19.356 23.8271 19.356H22.3379V16.3782H23.641C24.0133 16.3782 24.1994 16.3782 24.3856 16.5643C24.5717 16.7504 24.7579 16.9365 24.7579 17.1226C24.7579 17.3087 24.7579 17.3087 24.5717 17.4949C24.5717 17.681 24.3856 17.681 24.1994 17.681C24.3856 18.0532 24.5717 18.2393 24.7579 18.2393Z" fill="black"/>
<path d="M27.5503 18.9837V19.5421H25.3164V16.5642H27.5503V17.1226H26.061V17.867H27.3641V18.4254H26.061V18.9837H27.5503Z" fill="black"/>
<path d="M30.3428 17.1226H29.4121V19.5421H28.8536V17.1226H27.9229V16.5642H30.3428V17.1226Z" fill="black"/>
<path d="M32.3904 18.4254L32.0181 17.3087L31.6458 18.4254H32.3904ZM32.5766 18.9837H31.2735L31.0874 19.5421H30.3428L31.6458 16.5642H32.3904L33.6935 19.5421H32.9489L32.5766 18.9837Z" fill="black"/>
</svg>
