<svg width="103" height="25" viewBox="0 0 103 25" fill="none" xmlns="http://www.w3.org/2000/svg">
<path d="M6.51505 18.0532C5.39813 16.9365 4.65352 15.4476 4.46737 13.9587H2.79199C3.1643 16.5643 4.65352 18.7977 6.51505 20.2866C7.0735 20.6588 7.81811 21.0311 8.37657 21.4033V3.53613C7.63196 3.90837 7.0735 4.28061 6.51505 4.65284V18.0532Z" fill="black"/>
<path d="M18.243 10.2364C17.8706 10.9809 17.3122 11.5392 16.5676 11.9114V5.39736C16.9399 5.58348 17.3122 5.7696 17.4983 5.95572L17.6845 6.14183C18.8014 7.25853 18.9876 8.93359 18.243 10.2364ZM20.2906 8.56135C20.2906 7.63077 20.1045 6.8863 19.7322 6.14183C18.8014 4.6529 17.4983 3.16398 14.7061 2.79175V18.0533C16.0091 17.681 16.5676 17.1227 16.5676 17.1227V13.5865C16.7537 13.5865 16.9399 13.4004 16.9399 13.4004C17.126 13.4004 17.3122 13.2143 17.4983 13.2143C18.0568 14.1448 18.4291 15.0754 18.4291 16.1921V20.2867C19.7322 19.3561 20.2906 18.6116 20.2906 18.6116V16.1921C20.2906 14.7032 19.7322 13.2143 18.8014 12.0976C19.546 11.3531 19.9183 10.4225 20.1045 9.49193C20.2906 9.30581 20.2906 8.93358 20.2906 8.56135Z" fill="black"/>
<path d="M12.4729 20.6589V2.79175C11.7282 2.79175 11.1698 2.79175 10.6113 2.97786V22.1478C11.1698 22.3339 11.9144 22.334 12.4729 22.334C13.9621 22.334 15.2651 21.9617 16.3821 21.5895V19.7283C15.2651 20.2867 13.9621 20.6589 12.4729 20.6589Z" fill="black"/>
<path d="M12.6584 23.4507C6.51535 23.4507 1.48922 18.6116 1.48922 12.4698C1.48922 6.32795 6.51535 1.48892 12.6584 1.48892C18.8014 1.48892 23.8276 6.32795 23.8276 12.4698C23.8276 18.6116 18.8014 23.4507 12.6584 23.4507ZM12.6584 0C5.58458 0 0 5.58348 0 12.4698C0 19.3561 5.58458 24.9396 12.6584 24.9396C19.7322 24.9396 25.3168 19.3561 25.3168 12.4698C25.3168 5.58348 19.546 0 12.6584 0Z" fill="black"/>
<path d="M34.4382 9.67805L35.3689 6.88631L36.2997 9.67805H34.4382ZM35.7412 3.90845H34.8105L31.832 13.2143H33.3213L34.0659 10.7947H36.4859L37.2305 13.2143H38.9059L35.7412 3.90845Z" fill="black"/>
<path d="M46.1657 12.0975C45.6072 12.0975 45.2349 11.9114 44.8626 11.7253C44.4903 11.5391 44.3041 10.9808 44.118 10.4225C43.9318 9.8641 43.7457 9.30575 43.7457 8.56129C43.7457 7.81682 43.7457 7.25847 43.9318 6.70012C44.118 6.14177 44.3042 5.76954 44.6765 5.58343C45.0488 5.39731 45.4211 5.21118 45.9795 5.21118C46.3518 5.21118 46.538 5.21118 46.9103 5.3973C47.2826 5.58342 47.4688 5.58342 47.6549 5.76954V4.09449C47.4688 3.90837 47.0964 3.72226 46.7241 3.72226C46.3518 3.72226 46.1657 3.53613 45.7934 3.53613C45.0488 3.53613 44.3042 3.72226 43.7457 4.09449C43.1872 4.46672 42.8149 5.02507 42.4426 5.76954C42.0703 6.51401 42.0703 7.44459 42.0703 8.37517C42.0703 9.49187 42.2565 10.2363 42.4426 10.9808C42.8149 11.7253 43.1872 12.2836 43.7457 12.6558C44.3042 13.0281 45.0488 13.2142 45.7934 13.2142C46.1657 13.2142 46.538 13.2142 46.7241 13.0281C47.0964 13.0281 47.2826 12.842 47.6549 12.6558V11.1669C47.4688 11.353 47.0964 11.5392 46.7241 11.5392C46.9103 12.0975 46.538 12.0975 46.1657 12.0975Z" fill="black"/>
<path d="M54.9147 9.67805L55.8455 6.88631L56.7763 9.67805H54.9147ZM55.287 3.90845L52.3086 13.2143H53.7978L54.5424 10.7947H56.9624L57.707 13.2143H59.3824L56.404 3.90845H55.287Z" fill="black"/>
<path d="M65.3398 11.9114V5.39737H66.0844C66.829 5.39737 67.5736 5.7696 67.9459 6.32795C68.3182 6.8863 68.5044 7.63077 68.5044 8.74747C68.5044 10.9809 67.7598 12.0976 66.0844 12.0976H65.3398V11.9114ZM69.0629 12.0976C69.8075 11.3531 69.9936 10.0503 69.9936 8.56136C69.9936 7.07242 69.6213 5.95572 69.0629 5.02514C68.3182 4.28068 67.3875 3.90845 66.0844 3.90845H63.8506V13.2143H66.0844C67.3875 13.2143 68.5044 12.842 69.0629 12.0976Z" fill="black"/>
<path d="M76.3232 9.1197H78.9294V7.81689H76.3232V5.21126H79.1155V3.90845H74.834V13.2143H79.1155V11.9114H76.3232V9.1197Z" fill="black"/>
<path d="M92.5183 13.2143L91.4014 3.90845H90.4707L88.0507 10.6086L85.6307 3.90845H84.5138L83.583 13.2143H85.0722L85.6307 7.63077L87.6784 13.2143H88.423L90.2845 7.63077L91.0291 13.2143H92.5183Z" fill="black"/>
<path d="M100.15 13.2143V8.93358L102.57 3.90845H100.709L99.4054 7.63077L97.9162 3.90845H96.0547L98.4747 8.93358V13.2143H100.15Z" fill="black"/>
<path d="M31.6464 21.4033C31.6464 21.5894 31.6464 21.7755 31.6464 21.7755L31.4602 21.9617C31.2741 21.9617 31.274 21.9617 31.0879 21.7755V22.3339C31.274 22.3339 31.4602 22.52 31.6464 22.52C31.8325 22.52 32.0187 22.52 32.2048 22.3339C32.391 22.1478 32.391 21.9617 32.391 21.5894V18.6116H31.6464V21.4033Z" fill="black"/>
<path d="M35.1823 20.8448L35.5546 19.7281L35.927 20.8448H35.1823ZM35.3685 18.4253L34.0654 22.1476H34.6239L34.9962 21.217H35.927L36.2993 22.1476H37.0439L35.7408 18.4253H35.3685Z" fill="black"/>
<path d="M40.9536 21.7754C40.7674 21.7754 40.7674 21.7754 40.7674 21.9615H40.5813C40.3951 21.9615 40.2089 21.9615 40.0228 21.7754C39.8366 21.5893 39.8366 21.5893 39.6505 21.217C39.6505 21.0309 39.4643 20.6587 39.4643 20.4726C39.4643 19.9142 39.4643 19.7281 39.6505 19.3559C39.8366 19.1698 40.0228 18.9836 40.3951 18.9836C40.5812 18.9836 40.7674 18.9836 40.9536 18.9836C41.1397 18.9836 41.3259 19.1698 41.512 19.1698V18.6114C41.3259 18.4253 41.1397 18.4253 40.9536 18.4253C40.7674 18.4253 40.5812 18.4253 40.3951 18.4253C40.0228 18.4253 39.8366 18.4253 39.4643 18.6114C39.2782 18.7975 39.092 18.9836 38.9059 19.3559C38.7197 19.7281 38.7197 20.1004 38.7197 20.4726C38.7197 20.8448 38.7197 21.2171 38.9059 21.5893C39.092 21.9615 39.2782 22.1476 39.4643 22.3338C39.6505 22.5199 40.0228 22.5199 40.2089 22.5199C40.5812 22.5199 40.9536 22.3337 41.3259 22.1476V20.6587H40.9536V21.7754Z" fill="black"/>
<path d="M45.6082 21.0311C45.6082 21.4033 45.6082 21.5894 45.4221 21.5894C45.2359 21.7755 45.2359 21.7755 44.8636 21.7755C44.6775 21.7755 44.4913 21.7755 44.3052 21.5894C44.119 21.4033 44.119 21.2172 44.119 21.0311V18.6116H43.5605V21.0311C43.5605 21.4033 43.5605 21.5894 43.7467 21.7755C43.9328 21.9617 43.9328 22.1478 44.119 22.3339C44.3051 22.52 44.4913 22.52 44.8636 22.52C45.0498 22.52 45.4221 22.52 45.6082 22.3339C45.7944 22.1478 45.9805 21.9617 45.9805 21.7755C46.1667 21.5894 46.1667 21.2172 46.1667 21.0311V18.6116H45.6082V21.0311Z" fill="black"/>
<path d="M49.1443 20.8448L49.5166 19.7281L49.8889 20.8448H49.1443ZM49.3304 18.4253L48.0273 22.1476H48.5858L48.9581 21.217H49.8889L50.2612 22.1476H51.0058L49.7027 18.4253H49.3304Z" fill="black"/>
<path d="M54.5423 20.1005C54.5423 20.2866 54.3562 20.2866 54.17 20.2866H53.7977V18.9838H54.17C54.3562 18.9838 54.5423 18.9838 54.5423 19.1699C54.5423 19.356 54.7285 19.356 54.7285 19.5422C54.7285 19.9144 54.5423 19.9144 54.5423 20.1005ZM55.1008 20.2866C55.287 20.1005 55.287 19.9144 55.287 19.7283C55.287 19.5421 55.287 19.356 55.1008 19.1699C55.1008 18.9838 54.9147 18.7977 54.7285 18.7977C54.5423 18.7977 54.3562 18.6116 54.17 18.6116H53.2393V22.3339H53.7977V20.6588H54.17L54.7285 22.3339H55.287L54.5423 20.6588C54.9147 20.4727 54.9147 20.4727 55.1008 20.2866Z" fill="black"/>
<path d="M57.7073 21.5896C57.5211 21.5896 57.5211 21.5896 57.5211 21.7757L57.335 21.9618V22.1479C57.335 22.1479 57.335 22.3341 57.5211 22.3341H57.7073H57.8934C57.8934 22.3341 58.0796 22.3341 58.0796 22.1479V21.9618C58.0796 21.7757 58.0796 21.7757 57.8934 21.7757C57.8934 21.7757 57.8934 21.5896 57.7073 21.5896Z" fill="black"/>
<path d="M61.0581 18.4253H60.3135V22.3338H61.9889V21.7754H61.0581V18.4253Z" fill="black"/>
<path d="M64.9675 20.8448L65.3398 19.7281L65.7121 20.8448H64.9675ZM65.1536 18.4253L63.8506 22.1476H64.409L64.7813 21.217H65.7121L66.0844 22.1476H66.829L65.5259 18.4253H65.1536Z" fill="black"/>
<path d="M70.9246 21.0309L69.2493 18.4253H68.877V22.3338H69.6216V19.9142L71.2969 22.3338H71.6693V18.4253H70.9246V21.0309Z" fill="black"/>
<path d="M75.0196 21.7754H74.8335V18.9836H75.0196C75.3919 18.9836 75.5781 19.1698 75.7642 19.3559C75.9504 19.542 75.9504 19.9142 75.9504 20.2865C75.9504 21.217 75.5781 21.7754 75.0196 21.7754ZM75.0196 18.4253H74.0889V22.1476H75.0196C75.5781 22.1476 75.9504 21.9615 76.1365 21.5893C76.3227 21.217 76.5089 20.8448 76.5089 20.1003C76.5089 19.542 76.3227 18.9837 76.1365 18.6114C75.9504 18.6114 75.3919 18.4253 75.0196 18.4253Z" fill="black"/>
<path d="M82.8386 20.1005C82.8386 20.2866 82.6524 20.2866 82.4663 20.2866H82.094V18.9838H82.4663C82.6524 18.9838 82.8386 18.9838 82.8386 19.1699C82.8386 19.356 83.0247 19.356 83.0247 19.5422C83.0247 19.9144 83.0248 19.9144 82.8386 20.1005ZM83.5832 20.2866C83.7694 20.1005 83.7694 19.9144 83.7694 19.7283C83.7694 19.5421 83.7694 19.356 83.5832 19.1699C83.5832 18.9838 83.3971 18.7977 83.2109 18.7977C83.0247 18.7977 82.8386 18.6116 82.6524 18.6116H81.7217V22.3339H82.2801V20.6588H82.6524L83.2109 22.3339H83.7694L83.0247 20.6588C83.2109 20.4727 83.3971 20.4727 83.5832 20.2866Z" fill="black"/>
<path d="M88.0503 21.217C88.0503 21.4032 87.8641 21.5893 87.6779 21.7754C87.4918 21.9615 87.3056 21.9615 87.1195 21.9615C86.9333 21.9615 86.7472 21.9615 86.561 21.7754C86.3749 21.5893 86.3749 21.4032 86.1887 21.217C86.1887 21.0309 86.0026 20.6587 86.0026 20.4726C86.0026 20.1004 86.0026 19.9142 86.1887 19.7281C86.1887 19.542 86.3749 19.3559 86.561 19.1698C86.7472 18.9836 86.9333 18.9836 87.1195 18.9836C87.3056 18.9836 87.4918 18.9836 87.6779 19.1698C87.8641 19.3559 87.8641 19.542 88.0503 19.7281C88.0503 19.9142 88.2364 20.2865 88.2364 20.4726C88.2364 20.6587 88.2364 21.0309 88.0503 21.217ZM88.0503 18.6114C87.8641 18.4253 87.4918 18.4253 87.3056 18.4253C87.1195 18.4253 86.7472 18.4253 86.561 18.6114C86.3749 18.7975 86.1887 18.9836 86.0026 19.3559C85.8164 19.7281 85.8164 20.1004 85.8164 20.4726C85.8164 20.8448 85.8164 21.2171 86.0026 21.5893C86.1887 21.9615 86.3749 22.1476 86.561 22.3338C86.7472 22.5199 87.1195 22.5199 87.3056 22.5199C87.6779 22.5199 87.8641 22.5199 88.0503 22.3338C88.2364 22.1476 88.4226 21.9615 88.6087 21.5893C88.7949 21.2171 88.7949 20.8448 88.7949 20.4726C88.7949 20.1004 88.7949 19.7281 88.6087 19.3559C88.4226 18.9836 88.2364 18.7975 88.0503 18.6114Z" fill="black"/>
<path d="M92.1455 21.217H91.9593L91.2147 18.4253H90.6562L91.7732 22.3338H92.3316L93.4485 18.4253H92.8901L92.1455 21.217Z" fill="black"/>
<path d="M96.2411 20.6587H97.1718V20.1003H96.2411V18.9836H97.358V18.4253H95.6826V22.3338H97.358V21.7754H96.2411V20.6587Z" fill="black"/>
<path d="M100.894 20.1005C100.894 20.2866 100.708 20.2866 100.522 20.2866H100.15V18.9838H100.522C100.708 18.9838 100.894 18.9838 100.894 19.1699C100.894 19.356 101.08 19.356 101.08 19.5422C101.08 19.9144 101.08 19.9144 100.894 20.1005ZM101.639 20.2866C101.825 20.1005 101.825 19.9144 101.825 19.7283C101.825 19.5421 101.825 19.356 101.639 19.1699C101.639 18.9838 101.453 18.7977 101.267 18.7977C101.08 18.7977 100.894 18.6116 100.708 18.6116H99.7773V22.3339H100.336V20.6588H100.708L101.267 22.3339H101.825L101.08 20.6588C101.267 20.4727 101.453 20.4727 101.639 20.2866Z" fill="black"/>
</svg>
