<svg width="66" height="21" viewBox="0 0 66 21" fill="none" xmlns="http://www.w3.org/2000/svg">
<path d="M5.21228 18.6116V20.1005H0.744614C0.558461 20.1005 0.37231 20.1005 0.186157 19.9144C4.25793e-06 19.7283 0 19.5422 0 19.3561V13.5864H5.21228V15.0754H0.744614L1.86153 15.6337V16.1921H4.83998V17.681H1.86153V18.9838H5.21228V18.6116ZM10.983 13.2142H12.2861V19.9144H10.7969L7.81842 16.3782V19.3561C7.81842 19.5422 7.81842 19.5422 7.81842 19.7283L7.63227 19.9144C7.63227 19.9144 7.44611 19.9144 7.25996 19.9144H5.95689V13.7726C5.95689 13.5864 5.95689 13.4003 6.14304 13.4003C6.32919 13.2142 6.3292 13.2142 6.51536 13.2142H7.44612L11.7276 18.4255L10.4246 16.1921V13.7726C10.4246 13.5864 10.4246 13.5864 10.6107 13.4003C10.6107 13.4003 10.7969 13.2142 10.983 13.2142ZM17.8707 17.1226V16.9365C17.8707 16.9365 17.8707 16.7504 18.0568 16.7504C18.0568 16.7504 18.243 16.7504 18.243 16.5643H18.4291H19.5461V19.3561C19.1737 19.5422 18.8014 19.9144 18.243 19.9144C17.6845 20.1005 17.3122 20.1005 16.7538 20.1005C15.6368 20.1005 14.8922 19.7283 14.1476 19.1699C13.403 18.6116 13.0307 17.681 13.0307 16.7504C13.0307 15.8198 13.403 14.8892 14.1476 14.3309C14.8922 13.7725 15.823 13.4003 16.7538 13.4003C18.0568 13.4003 18.9876 13.7726 19.7322 14.7031L18.9876 15.4476C18.8014 15.6337 18.8014 15.6337 18.6153 15.6337C18.4291 15.6337 18.243 15.6337 18.243 15.4476C17.8707 15.2615 17.4984 15.0754 16.9399 15.0754C16.5676 15.0754 16.1953 15.0754 16.0091 15.2615C15.6368 15.4476 15.4507 15.6337 15.2645 16.006C15.0784 16.3782 15.0784 16.5643 15.0784 16.9365C15.0784 17.4949 15.2645 17.8671 15.6368 18.2394C16.0091 18.6116 16.5676 18.7977 16.9399 18.7977C17.4984 18.7977 18.243 18.6116 18.8014 18.0532L17.8707 17.8671V17.1226ZM20.4768 13.2142H22.3383V19.9144H20.4768V13.2142ZM28.1091 13.2142H29.4121V19.9144H27.9229L24.9445 16.3782V19.3561C24.9445 19.5422 24.9445 19.5422 24.9445 19.7283L24.7583 19.9144C24.7583 19.9144 24.5722 19.9144 24.386 19.9144H23.0829V13.7726C23.0829 13.5864 23.083 13.4003 23.2691 13.4003C23.4553 13.4003 23.4553 13.2142 23.6414 13.2142H24.5722L28.8537 18.4255L27.5506 16.1921V13.7726C27.5506 13.5864 27.5506 13.5864 27.7368 13.4003C27.7368 13.4003 27.9229 13.2142 28.1091 13.2142ZM35.5552 18.6116V20.1005H31.0875C30.9014 20.1005 30.7152 20.1005 30.5291 19.9144C30.3429 19.7283 30.3429 19.5422 30.3429 19.3561V13.5864H35.5552V15.0754H31.0875L32.2044 15.6337V16.1921H35.1829V17.681H32.0183V18.9838H35.5552V18.6116ZM41.5121 18.6116V20.1005H37.0444C36.8583 20.1005 36.6721 20.1005 36.486 19.9144C36.2998 19.7283 36.2998 19.5422 36.2998 19.3561V13.5864H41.5121V15.0754H37.0444L38.1613 15.6337V16.1921H41.1398V17.681H38.1613V18.9838H41.5121V18.6116ZM46.5382 19.9144L45.4213 18.0532H44.3044V19.1699C44.3044 19.3561 44.3044 19.5422 44.1182 19.5422C43.9321 19.7283 43.9321 19.7283 43.7459 19.7283H42.4428V13.0281H45.4213C46.352 13.0281 47.0967 13.2142 47.6551 13.7726C48.2136 14.1448 48.3997 14.8893 48.3997 15.6337C48.3997 16.5643 48.0274 17.3088 47.0967 17.681L48.5859 19.7283H46.5382V19.9144ZM46.352 15.8198C46.352 15.4476 46.1659 15.2615 45.9797 15.0754C45.7936 14.8893 45.4213 14.8892 45.049 14.8892H42.8152L43.9321 15.4476V16.9365H45.049C45.4213 16.9365 45.7936 16.9365 45.9797 16.7504C46.3521 16.3782 46.352 16.0059 46.352 15.8198ZM49.1443 13.2142H51.0059V19.9144H49.1443V13.2142ZM56.9628 13.2142H58.2658V19.9144H56.7766L53.7982 16.3782V19.3561C53.7982 19.5422 53.7982 19.5422 53.7982 19.7283L53.612 19.9144C53.612 19.9144 53.4259 19.9144 53.2397 19.9144H51.9366V13.7726C51.9366 13.5864 51.9366 13.4003 52.1228 13.4003C52.3089 13.2142 52.3089 13.2142 52.4951 13.2142H53.4259L57.7074 18.4255L56.4043 16.1921V13.7726C56.4043 13.5864 56.4043 13.5864 56.5905 13.4003C56.5905 13.4003 56.7766 13.2142 56.9628 13.2142ZM63.8504 17.1226V16.9365C63.8504 16.9365 63.8504 16.7504 64.0366 16.7504C64.0366 16.7504 64.2227 16.7504 64.2227 16.5643H64.4089H65.5258V19.3561C65.1535 19.5422 64.7812 19.9144 64.2227 19.9144C63.6643 20.1005 63.292 20.1005 62.7335 20.1005C61.6166 20.1005 60.872 19.7283 60.1274 19.1699C59.3827 18.4255 59.0104 17.681 59.0104 16.7504C59.0104 15.8198 59.3827 14.8892 60.1274 14.3309C60.872 13.7725 61.8027 13.4003 62.7335 13.4003C64.0366 13.4003 64.9673 13.7726 65.7119 14.7031L64.9673 15.4476C64.7812 15.6337 64.7812 15.6337 64.595 15.6337C64.4089 15.6337 64.2227 15.6337 64.2227 15.4476C63.8504 15.2615 63.4781 15.0754 62.9197 15.0754C62.5473 15.0754 62.175 15.0754 61.9889 15.2615C61.6166 15.4476 61.4304 15.6337 61.2443 16.006C61.0581 16.3782 61.0581 16.5643 61.0581 16.9365C61.0581 17.4949 61.2443 17.8671 61.6166 18.2394C61.9889 18.6116 62.5473 18.7977 62.9197 18.7977C63.4781 18.7977 64.2227 18.6116 64.7812 18.0532L63.8504 17.8671V17.1226Z" fill="black"/>
<path d="M5.77074 9.86419L4.09536 7.25857H2.60613V8.93361C2.60613 9.11972 2.60614 9.30585 2.41999 9.49196C2.23383 9.67808 2.04768 9.67806 1.86153 9.67806H0V0.186128H4.09536C5.39843 0.186128 6.32919 0.558361 7.25995 1.11671C8.00457 1.67506 8.37688 2.60563 8.37688 3.72233C8.37688 5.21127 7.81842 6.14186 6.51536 6.70021L8.56303 9.67806H5.77074V9.86419ZM5.58459 3.72233C5.58459 3.3501 5.39843 2.97788 5.21228 2.60565C4.83997 2.41953 4.46767 2.23339 3.90921 2.23339H0.744614L2.41999 2.97788V5.02515H3.90921C4.46767 5.02515 4.83997 4.83903 5.21228 4.65292C5.58458 4.65292 5.58459 4.28068 5.58459 3.72233ZM17.3122 7.8169V9.86419H10.983C10.6107 9.86419 10.4246 9.67808 10.0522 9.49196C9.67994 9.30585 9.67995 8.93361 9.67995 8.56138V0.186128H17.1261V2.23339H10.6107L12.2861 2.97788V3.72233H16.5676V5.76963H12.2861V7.44467H17.3122V7.8169ZM27.1783 0.186128H29.0398L24.9445 9.67806H22.3383L18.243 0.186128H20.4768C20.663 0.186128 20.8491 0.186111 21.0353 0.372228C21.2214 0.558344 21.4076 0.558367 21.4076 0.744484L23.2691 5.3974L22.8968 8.18915L26.0614 0.930583C26.0614 0.744467 26.2475 0.558344 26.4337 0.372228C26.806 0.372228 26.9922 0.186128 27.1783 0.186128ZM37.789 7.8169V9.86419H31.4598C31.0875 9.86419 30.9014 9.67808 30.5291 9.49196C30.3429 9.30585 30.1568 8.93361 30.1568 8.56138V0.186128H37.6029V2.23339H31.0875L32.7629 2.97788V3.72233H37.0444V5.76963H32.7629V7.44467H37.789V7.8169ZM44.6767 9.86419L43.0013 7.25857H41.5121V8.93361C41.5121 9.11972 41.5121 9.30585 41.3259 9.49196C41.1398 9.67808 40.9536 9.67806 40.7675 9.67806H38.9059V0.186128H43.1875C44.4905 0.186128 45.4213 0.558361 46.352 1.11671C47.0967 1.67506 47.469 2.60563 47.469 3.72233C47.469 5.21127 46.9105 6.14186 45.6074 6.70021L47.6551 9.67806H44.6767V9.86419ZM44.6767 3.72233C44.6767 3.3501 44.4905 2.97788 44.3044 2.60565C43.9321 2.41953 43.5598 2.23339 43.0013 2.23339H39.8367L41.5121 2.97788V5.02515H43.0013C43.5598 5.02515 43.9321 4.83903 44.3044 4.65292C44.4905 4.65292 44.6767 4.28068 44.6767 3.72233ZM49.3305 9.30583C49.1443 9.30583 48.9582 9.11971 48.772 8.74748C48.772 8.56136 48.772 8.37526 48.772 8.00302L49.3305 6.70021C49.5167 6.88633 49.889 7.07245 50.2613 7.25857C50.6336 7.44468 51.0059 7.44468 51.3782 7.6308C51.7505 7.6308 52.1228 7.8169 52.4951 7.8169C53.612 7.8169 53.9843 7.63079 53.9843 7.07244C53.9843 6.88632 53.9843 6.70021 53.7982 6.70021C53.612 6.5141 53.4259 6.5141 53.2397 6.32798C53.0536 6.32798 52.6812 6.14186 52.3089 6.14186C51.9366 6.14186 51.5643 5.95573 51.3782 5.95573C51.0059 5.95573 50.6336 5.76962 50.4474 5.5835C50.0751 5.39738 49.889 5.21126 49.5167 5.02515C49.3305 4.83903 49.1443 4.65292 48.9582 4.28069C48.772 3.90846 48.772 3.53621 48.772 3.16398C48.772 2.23339 49.1443 1.48893 49.889 0.930583C50.6336 0.372233 51.7505 0 53.0536 0C54.3566 0 55.4735 0.186134 56.4043 0.744484L55.8458 2.0473C55.8458 2.23341 55.6597 2.41952 55.4735 2.41952C55.2874 2.41952 55.1012 2.41952 54.9151 2.41952C54.1705 2.23341 53.612 2.0473 53.0536 2.0473C51.9366 2.0473 51.5643 2.41953 51.5643 2.97788C51.5643 3.164 51.7505 3.35012 51.9366 3.53623C52.1228 3.72235 52.4951 3.72235 52.8674 3.90846C53.2397 3.90846 53.7982 4.09457 54.1705 4.28069C54.7289 4.46681 55.1012 4.65293 55.4735 4.83905C55.8458 5.02516 56.2181 5.21128 56.4043 5.76963C56.5905 6.14186 56.7766 6.70022 56.7766 7.25857C56.7766 8.18915 56.4043 8.93361 55.6597 9.49196C54.9151 10.0503 53.7982 10.4225 52.4951 10.4225C51.3782 10.0503 50.2613 9.86419 49.3305 9.30583ZM65.5258 7.8169V9.86419H59.1966C58.8243 9.86419 58.6381 9.67808 58.2658 9.49196C58.0797 9.30585 57.8935 8.93361 57.8935 8.56138V0.186128H65.3396V2.23339H58.8243L60.4997 2.97788V3.72233H64.7812V5.76963H60.4997V7.44467H65.5258V7.8169Z" fill="black"/>
</svg>
