<svg width="98" height="23" viewBox="0 0 98 23" fill="none" xmlns="http://www.w3.org/2000/svg">
<path d="M40.0225 11.5392C40.0225 12.4698 40.7671 13.2143 41.884 13.2143H45.9793L42.0701 15.8199H44.8624L48.7716 13.2143V12.2837H43.1871C42.6286 12.2837 42.2563 11.9115 42.2563 11.3531C42.2563 10.7948 42.6286 10.4225 43.1871 10.4225H48.7716V9.49194H41.884C40.9532 9.67806 40.0225 10.6087 40.0225 11.5392Z" fill="black"/>
<path d="M53.7982 9.67798H51.0059V10.6086H53.7982V15.8198H56.2181V10.6086H59.0104V9.67798H56.2181H53.7982Z" fill="black"/>
<path d="M14.334 10.9808V14.517C14.334 15.2615 14.8924 15.8198 15.6371 15.8198H23.8278V14.8892H16.754V13.2142H22.3386V12.2836H16.754V10.6086H23.8278V9.67798H15.6371C14.8924 9.67798 14.334 10.2363 14.334 10.9808Z" fill="black"/>
<path d="M8.93534 12.2836V12.6558V15.0754H2.60614L4.09536 10.7947H8.93534V12.2836ZM9.67995 9.67798H8.93534H2.04768L0 15.6337H0.74461H1.11692H2.23383H8.93534H11.1692V12.4697V12.0975V10.9808C11.1692 10.4224 10.4246 9.67798 9.67995 9.67798Z" fill="black"/>
<path d="M34.0666 13.2144C34.4389 13.2144 34.8112 13.5866 34.8112 14.1449C34.8112 14.7033 34.4389 15.0755 33.8804 15.0755H29.0405V10.7948H33.8804C34.4389 10.7948 34.8112 11.1671 34.8112 11.7254C34.8112 12.0977 34.4389 12.4699 34.0666 12.656H31.6466H30.7159V13.5866H34.0666V13.2144ZM35.3697 9.86426H27.7374H26.8066V10.2365V10.6087V14.8894V15.2617V15.6339H35.3697C36.3004 15.6339 37.2312 14.8894 37.2312 13.9588C37.2312 13.4005 37.045 13.0282 36.6727 12.656C37.045 12.2838 37.2312 11.9115 37.2312 11.3532C37.2312 10.6087 36.3004 9.86426 35.3697 9.86426Z" fill="black"/>
<path d="M69.9931 12.2838H66.27H65.3393V13.2144H68.5039C69.0623 13.2144 69.4346 13.5866 69.4346 14.1449C69.4346 14.7033 69.0623 15.0755 68.5039 15.0755H63.6639V9.86426H61.6162V15.0755V15.4478V15.82H70.1792C71.11 15.82 72.0408 15.0755 72.0408 14.1449C71.8546 13.2144 71.11 12.2838 69.9931 12.2838Z" fill="black"/>
<path d="M91.5878 15.6338H88.4232V10.0503H85.8171L91.4017 5.39736V15.6338H91.5878ZM83.5833 15.6338H80.2325V10.0503H77.8125L83.3971 5.39736V15.6338H83.5833ZM85.631 0C79.1156 0 73.9033 5.02512 73.9033 11.3531C73.9033 17.681 79.1156 22.7062 85.631 22.7062C92.1463 22.7062 97.3586 17.681 97.3586 11.3531C97.3586 5.02512 92.1463 0 85.631 0Z" fill="black"/>
<path d="M37.9753 19.9146H36.8584V20.2868H37.9753V22.334H38.9061V20.2868H40.023V19.9146H38.9061H37.9753Z" fill="black"/>
<path d="M64.781 19.9146H63.6641V20.2868H64.781V22.334H65.7117V20.2868H66.8287V19.9146H65.7117H64.781Z" fill="black"/>
<path d="M40.5811 20.473V21.7758C40.5811 21.9619 40.7672 22.3342 41.1395 22.3342H44.3041V21.9619H41.5118V21.2175H43.7457V20.8452H41.5118V20.1007H44.3041V19.7285H41.1395C40.9534 19.9146 40.5811 20.1008 40.5811 20.473Z" fill="black"/>
<path d="M54.3564 20.473V21.7758C54.3564 21.9619 54.5426 22.3342 54.9149 22.3342H58.0795V21.9619H55.2872V21.2175H57.521V20.8452H55.2872V20.1007H58.0795V19.7285H54.9149C54.5426 19.9146 54.3564 20.1008 54.3564 20.473Z" fill="black"/>
<path d="M70.924 19.9146H67.5732V20.1006V20.2868V22.334H68.504V20.2868H70.3655C70.5517 20.2868 70.7378 20.4729 70.7378 20.659C70.7378 20.8451 70.5517 21.0312 70.3655 21.0312H69.0625V21.4035H69.4348H70.924C71.2963 21.4035 71.6686 21.0312 71.6686 20.659C71.6686 20.2868 71.2963 19.9146 70.924 19.9146Z" fill="black"/>
<path d="M47.6552 19.9146L46.5383 20.8451L45.4214 19.9146H44.8629L46.3521 21.0312L44.6768 22.334H45.7937L46.9106 21.4035L47.8413 22.334H48.3998L47.0967 21.2173L48.7721 19.9146H47.6552Z" fill="black"/>
<path d="M52.8673 19.9146H51.9366V21.9618H51.3781H50.4474V19.9146H49.5166V21.7757C49.5166 22.1479 49.7028 22.334 50.0751 22.334H51.5643H52.8673H53.4258V21.9618H52.8673V19.9146Z" fill="black"/>
<path d="M61.803 20.8451H59.9415V19.9146H59.0107V21.7757C59.0107 21.9618 59.1969 22.334 59.5692 22.334H59.9415V21.2173H61.803V22.334H62.1753C62.3615 22.334 62.7338 22.1479 62.7338 21.7757V19.9146H61.803V20.8451Z" fill="black"/>
</svg>
