<svg width="96" height="27" viewBox="0 0 96 27" fill="none" xmlns="http://www.w3.org/2000/svg">
<path d="M4.46767 13.7725C3.5369 13.9586 2.60614 14.1447 1.67537 14.5169V9.11955C1.67537 8.37509 2.23383 7.81673 2.97844 7.81673H4.46767V13.7725ZM2.60614 5.95557C1.11692 5.95557 0 7.07227 0 8.5612V15.0753V17.3087V20.1004V22.1477C0.558458 21.7755 1.11692 21.5893 1.86153 21.4032V19.3559V16.7503C2.60614 16.5642 3.5369 16.192 4.65382 16.0058V18.6115V20.6588C5.21228 20.4726 5.95689 20.2865 6.51535 20.1004V18.2393V15.6336V13.7725V8.18897V6.32781H4.65382H2.60614V5.95557Z" fill="#1D1D1B"/>
<path d="M70.7377 10.6085V12.2835V13.7725C70.7377 14.1447 70.5515 14.3308 70.1792 14.3308C69.6208 14.3308 69.0623 14.1447 68.5039 14.1447C68.3177 14.1447 68.1315 13.9586 68.1315 13.5864V12.0974V10.4224V8.37509C68.1315 8.18897 68.3177 7.81673 68.69 7.81673H70.5515C70.7377 7.81673 71.11 8.00285 71.11 8.37509V10.6085H70.7377ZM71.11 5.95557H70.9238H68.1315H67.9454C67.0146 5.95557 66.27 6.70004 66.27 7.63062V8.00286V10.2363V11.9113V13.9586V14.3308C66.27 15.0753 66.8285 15.8197 67.7592 16.0059C67.9454 16.0059 67.9454 16.0059 68.1315 16.0059C69.0623 16.0059 69.9931 16.192 70.9238 16.192C70.9238 16.192 70.9238 16.192 71.11 16.192C72.0408 16.3781 72.7854 15.6336 72.7854 14.5169V12.4696V10.7946V7.81673V7.4445C72.5992 6.70004 72.0408 5.95557 71.11 5.95557Z" fill="#1D1D1B"/>
<path d="M78.3701 10.7946C78.3701 11.1668 77.9978 11.3529 77.8117 11.3529C77.0671 11.3529 76.5086 11.1668 75.764 11.1668V7.81673H77.9978C78.3701 7.81673 78.5563 8.00285 78.5563 8.37508V10.7946H78.3701ZM78.7424 5.95557H78.3701H75.5778H73.7163V7.81673V10.9807V12.6558V14.703V16.5642C74.2748 16.5642 75.0194 16.7503 75.5778 16.7503V14.8892V12.8419C76.5086 13.028 77.4394 13.028 78.3701 13.2141H78.5563C79.4871 13.4002 80.2317 12.6558 80.2317 11.7252V8.00286V7.63062C80.2317 6.70003 79.6732 5.95557 78.7424 5.95557Z" fill="#1D1D1B"/>
<path d="M85.8159 11.9113C85.8159 12.2835 85.4436 12.4696 85.2575 12.4696C84.5129 12.2835 83.7683 12.2835 83.0236 12.0974V7.81673H85.2575C85.6298 7.81673 85.8159 8.00285 85.8159 8.37509V11.9113ZM85.8159 5.95557H83.0236H81.1621V7.81673V11.9113V13.5863V15.8197V17.6809C81.7206 17.867 82.4652 17.867 83.0236 18.0531V16.192V13.9586C83.9544 14.1447 84.8852 14.3308 85.8159 14.3308C86.7467 14.5169 87.6775 13.7725 87.6775 12.8419V7.81673C87.6775 6.70003 86.7467 5.95557 85.8159 5.95557Z" fill="#1D1D1B"/>
<path d="M40.7676 7.81673H42.6291V5.95557H40.7676H37.9753H36.1138V7.81673V9.86402V11.5391V13.4002V15.0753C36.6722 15.0753 37.4168 15.0753 37.9753 15.0753C38.9061 15.0753 39.8368 15.0753 40.7676 15.0753C41.326 15.0753 42.0707 15.0753 42.6291 15.0753V13.4002C42.0707 13.4002 41.326 13.4002 40.7676 13.4002C39.8368 13.4002 38.9061 13.4002 37.9753 13.4002V11.5391C38.9061 11.5391 39.8368 11.5391 40.7676 11.5391C41.326 11.5391 42.0707 11.5391 42.6291 11.5391V9.86402C42.0707 9.86402 41.326 9.86402 40.7676 9.86402C39.8368 9.86402 38.9061 9.86402 37.9753 9.86402V7.81673H40.7676Z" fill="#1D1D1B"/>
<path d="M30.715 7.81673H32.9489C33.135 7.81673 33.3212 8.00285 33.3212 8.18897V9.49178C33.3212 9.67789 33.135 9.86402 32.9489 9.86402C32.2043 9.86402 31.4597 9.86402 30.5289 10.0501V7.81673H30.715ZM30.715 13.7725V11.9113C31.6458 11.9113 32.5766 11.7252 33.5073 11.7252H33.6935C34.6243 11.7252 35.3689 10.9807 35.3689 10.0501V7.81673V7.63062C35.3689 6.70003 34.6243 5.95557 33.6935 5.95557H33.5073H30.715H28.8535V7.81673V10.2362V11.9113V13.9586V15.6336C29.412 15.6336 30.1566 15.4475 30.715 15.4475V13.7725Z" fill="#1D1D1B"/>
<path d="M26.0615 10.6085V12.2835V13.7725C26.0615 14.1447 25.8754 14.3308 25.5031 14.5169C24.9446 14.5169 24.5723 14.5169 24.0139 14.703C23.6416 14.703 23.2692 14.5169 23.2692 13.9586V12.6558V10.9807V8.74731C23.2692 8.37508 23.6416 8.00286 24.0139 8.00286H25.5031C25.8754 8.00286 26.2477 8.37508 26.2477 8.74731V10.6085H26.0615ZM26.2477 5.95557H23.0831C22.1523 5.95557 21.4077 6.70003 21.4077 7.63061V7.81673V10.9807V12.6558V14.703C21.4077 15.6336 22.3385 16.3781 23.2692 16.3781C24.2 16.192 25.1308 16.192 26.0615 16.0058C26.2477 16.0058 26.2477 16.0058 26.4338 16.0058C27.3646 16.0058 27.9231 15.2614 27.9231 14.3308V12.0974V10.4224V7.81673V7.63061C27.9231 6.70003 27.1785 5.95557 26.2477 5.95557Z" fill="#1D1D1B"/>
<path d="M12.0995 15.6338C12.0995 16.006 11.9133 16.1921 11.541 16.1921C10.7964 16.3782 10.0518 16.5644 9.30721 16.5644V14.1448C10.0518 13.9587 10.7964 13.9587 11.7272 13.7726C11.9133 13.7726 12.0995 13.9587 12.0995 14.1448V15.6338ZM9.30721 7.81688H10.7964C11.3549 7.81688 11.7272 8.18912 11.7272 8.74746L11.3549 11.9115C11.3549 12.0976 11.1687 12.2837 10.7964 12.4698C10.238 12.4698 9.86567 12.6559 9.49336 12.6559V7.81688H9.30721ZM13.0303 12.0976L13.5887 8.93359C13.7749 7.44466 12.658 6.14185 11.1687 6.14185H9.49336H7.63184V8.00301V13.0281V14.8893V17.3088V19.17C8.19029 18.9839 8.9349 18.7978 9.49336 18.7978C10.4241 18.6116 11.3549 18.4255 12.2857 18.2394C13.4026 18.0533 14.1472 17.1227 14.1472 16.006C13.961 13.4004 13.961 12.842 13.0303 12.0976Z" fill="#1D1D1B"/>
<path d="M48.3999 12.8419C48.3999 13.028 48.2138 13.2141 48.0276 13.2141C47.283 13.2141 46.3522 13.2141 45.6076 13.2141V11.3529C46.3522 11.3529 47.283 11.3529 48.0276 11.3529C48.2138 11.3529 48.3999 11.5391 48.3999 11.7252V12.8419ZM45.6076 7.81673H47.0968C47.4691 7.81673 47.8415 8.18897 47.6553 8.5612L47.4692 9.67789C47.4692 9.67789 46.5384 9.67789 45.6076 9.67789V7.81673ZM47.6553 5.95557H45.6076H43.7461V7.81673V9.67789V11.3529V13.2141V14.8892C44.3046 14.8892 45.0492 14.8892 45.6076 14.8892C46.3522 14.8892 47.283 14.8892 48.0276 14.8892H48.3999H48.5861C49.5168 14.8892 50.2614 14.1447 50.2614 13.2141C50.2614 11.5391 50.2614 10.7946 49.3307 9.86402L49.703 8.5612C49.8891 7.25838 48.9584 5.95557 47.6553 5.95557Z" fill="#1D1D1B"/>
<path d="M55.8457 14.8892C56.4042 14.8892 57.1488 14.8892 57.7072 14.8892V13.2141V11.3529V10.2362V9.86402V7.81673V5.95557H55.8457V7.81673V9.49178L53.0534 12.4696V11.3529V9.67789V7.81673V5.95557H51.1919V7.81673V9.67789V11.3529V13.2141V14.8892C51.7504 14.8892 52.495 14.8892 53.0534 14.8892L55.8457 12.0974V13.2141V14.8892Z" fill="#1D1D1B"/>
<path d="M64.2222 10.2362L64.5945 8.37508C64.9668 7.07227 64.036 5.95557 62.7329 5.95557H60.6853H58.8237V7.81673H60.6853H62.1745C62.5468 7.81673 62.7329 8.18897 62.7329 8.5612L62.3606 10.0501C61.8022 10.0501 61.2437 10.0501 60.6853 10.0501C60.1268 10.0501 59.3822 10.0501 58.8237 10.0501V11.7252C59.3822 11.7252 60.1268 11.7252 60.6853 11.7252C61.4299 11.7252 62.1745 11.7252 62.9191 11.9113C63.1052 11.9113 63.2914 12.0974 63.2914 12.2835V13.4002C63.2914 13.5863 63.1052 13.7725 62.9191 13.7725C62.1745 13.7725 61.4299 13.7725 60.6853 13.5863C60.1268 13.5863 59.3822 13.5863 58.8237 13.5863V15.2614C59.3822 15.2614 60.1268 15.2614 60.6853 15.2614C61.616 15.2614 62.5468 15.4475 63.4776 15.4475C63.4776 15.4475 63.4776 15.4475 63.6637 15.4475C64.5945 15.4475 65.3391 14.703 65.3391 13.7725C65.1529 11.5391 65.1529 10.7946 64.2222 10.2362Z" fill="#1D1D1B"/>
<path d="M93.2622 14.3308V16.3781V18.4254C93.2622 18.7976 92.8899 18.9837 92.7038 18.7976C92.1453 18.6115 91.773 18.4254 91.2145 18.2393C90.8422 18.0531 90.4699 17.6809 90.4699 17.3087V15.4475V13.5863V8.37508C90.4699 8.18897 90.6561 7.81673 91.0284 7.81673H92.8899C93.0761 7.81673 93.4484 8.00285 93.4484 8.37508V14.3308H93.2622ZM93.8207 5.95557H93.2622H90.4699H89.9115C89.1669 5.95557 88.6084 6.51392 88.6084 7.25839V7.81673V13.2141V15.0753V17.6809V18.0531C88.6084 18.9837 89.1669 19.7282 90.0976 20.1004C90.2838 20.1004 90.2838 20.1004 90.4699 20.2865C91.4007 20.6588 92.3315 20.8449 93.2622 21.2171C94.193 21.5893 95.1237 20.8449 95.1237 19.9143V17.1225V15.0753V8.00286V7.4445C95.1237 6.51392 94.5653 5.95557 93.8207 5.95557Z" fill="#1D1D1B"/>
<path d="M16.5678 5.95557H14.334V7.81673H16.5678V11.5391V13.2141V15.4475V17.3087C17.1263 17.3087 17.8709 17.1225 18.4293 17.1225V15.2614V13.028V11.3529V7.81673H20.6632V5.95557H18.4293H16.5678Z" fill="#1D1D1B"/>
<path d="M30.715 1.86116H59.3826C59.0103 2.04728 58.638 2.2334 58.2657 2.41952H30.715V1.86116ZM30.715 3.16397H56.4041C55.1011 3.72232 53.798 4.46679 52.4949 5.21126H56.7764C59.5687 3.90844 62.361 2.79174 64.9672 1.86116V0H30.715H28.8535V1.86116V2.41952V3.3501V4.6529H30.715V3.16397Z" fill="#1D1D1B"/>
<path d="M62.9196 19.5422C58.2658 18.7977 52.6812 18.4255 46.9105 18.4255C42.0705 18.4255 37.2305 18.7977 32.949 19.1699C33.1352 18.9838 33.5075 18.7977 33.8798 18.6116C37.9751 18.0532 42.4428 17.8671 46.9105 17.8671C52.8674 17.8671 58.2658 18.2393 62.9196 19.1699V19.5422ZM62.9196 18.0532C58.2658 17.3087 52.6812 16.9365 46.9105 16.9365C43.0013 16.9365 38.9059 17.1226 35.1829 17.4949C35.9275 16.9365 36.6721 16.3782 37.6028 15.8198C36.4859 15.8198 35.369 16.0059 34.2521 16.0059C32.3906 17.3088 30.7152 18.4255 29.4121 19.7283V21.5894C34.2521 20.6588 40.7674 20.1005 46.9105 20.1005C53.612 20.1005 59.755 20.6588 64.7811 21.7755V21.4033V20.1005V19.5422V18.6116V17.1226H63.1058V18.0532H62.9196Z" fill="#1D1D1B"/>
<path d="M31.646 24.1952C31.8321 23.8229 32.2045 23.4507 32.7629 23.4507C33.1352 23.4507 33.5075 23.4507 33.6937 23.6368C33.8798 23.8229 34.066 24.1951 34.066 24.5674C34.066 24.9396 34.066 25.3118 33.8798 25.498C33.6937 25.6841 33.3214 25.8702 32.9491 25.8702C32.5768 25.8702 32.3906 25.8702 32.2045 25.6841C32.0183 25.498 31.8321 25.3119 31.8321 25.1257L32.5768 24.9396C32.5768 25.1257 32.7629 25.3119 33.1352 25.3119C33.5075 25.3119 33.5075 25.1257 33.5075 24.7535L32.5768 25.1257V24.7535H33.3214C33.3214 24.3813 33.1352 24.3813 32.7629 24.3813C32.5768 24.3813 32.3906 24.5674 32.3906 24.7535L31.646 24.1952Z" fill="black"/>
<path d="M37.4167 25.6841H36.6721L36.1136 25.1257C36.1136 24.9396 35.9275 24.9396 35.9275 24.9396H35.7413V25.8702H34.9967L34.8105 23.4507H35.5552V24.3813H35.7413C35.7413 24.3813 35.7413 24.1952 35.9275 24.009C35.9275 23.8229 35.9275 23.8229 36.1136 23.6368L36.2998 23.4507C36.4859 23.4507 36.6721 23.4507 36.8582 23.4507V24.009C36.6721 24.009 36.6721 24.009 36.6721 24.1952L36.4859 24.3813C36.4859 24.5674 36.4859 24.5674 36.2998 24.5674L36.1136 24.7535C36.2998 24.7535 36.2998 24.7535 36.4859 24.9396C36.4859 24.9396 36.6721 25.1257 36.8582 25.3119L37.4167 25.6841Z" fill="black"/>
<path d="M39.8365 24.5675L40.5811 24.7537C40.5811 24.9398 40.395 25.1259 40.395 25.312C40.395 25.4981 40.0227 25.312 40.0227 25.312C40.0227 25.312 39.6504 25.4981 39.4642 25.4981C39.2781 25.4981 38.9057 25.4981 38.9057 25.4981C38.7196 25.4981 38.5334 25.312 38.5334 25.1259C38.1611 24.9398 38.1611 24.5676 38.1611 24.3814C38.1611 24.0092 38.1611 23.637 38.3473 23.4508C38.5334 23.2647 38.9057 23.0786 39.278 23.0786C39.6504 23.0786 39.8365 23.0786 40.0227 23.2647C40.2088 23.4508 40.395 23.637 40.395 23.8231L39.8365 24.0092V23.8231L39.6504 23.637H39.4642C39.2781 23.637 39.0919 23.637 39.0919 23.8231C39.0919 24.0092 39.0919 24.0092 39.0919 24.3814C39.0919 24.5676 39.0919 24.7537 39.278 24.9398C39.278 25.1259 39.4642 25.1259 39.6504 25.1259C39.8365 25.1259 39.8365 25.1259 40.0227 24.9398C39.6504 24.7537 39.8365 24.5675 39.8365 24.5675Z" fill="black"/>
<path d="M43.7456 25.3118H43.0009V23.4507H42.2563V25.3118H41.5117V22.8923H43.7456V25.3118Z" fill="black"/>
<path d="M44.8623 22.8923H46.91V23.4507H45.6069V23.8229H46.7238V24.3812H45.6069V24.9396H46.91V25.4979H44.8623V22.8923Z" fill="black"/>
<path d="M48.0273 22.8923H49.3304C49.5166 22.8923 49.8889 22.8923 49.8889 23.0784C50.075 23.2646 50.075 23.4507 50.075 23.6368C50.075 23.8229 50.075 24.009 49.8889 24.1951C49.7027 24.3813 49.5166 24.3813 49.1443 24.3813H48.772V25.3118H48.0273V22.8923ZM48.772 24.009C49.1443 24.009 49.1443 24.009 49.3304 24.009V23.8229V23.6368C49.3304 23.6368 49.1443 23.6368 48.9581 23.6368H48.772V24.009Z" fill="black"/>
<path d="M51.0063 22.8923H53.2402V23.4507H52.4956V25.3118H51.751V23.4507H51.0063V22.8923Z" fill="black"/>
<path d="M56.5899 23.2647L56.4038 25.6843H55.6592V24.3814L54.9145 25.4981H54.1699L54.3561 23.0786H55.1007V24.3814L56.0315 23.0786L56.5899 23.2647Z" fill="black"/>
<path d="M59.1969 24.5674C59.5692 24.7535 59.5692 24.9396 59.5692 25.1257C59.5692 25.3119 59.383 25.498 59.1969 25.6841C59.0107 25.8702 58.8246 25.8702 58.4522 25.8702C57.8938 25.8702 57.5215 25.498 57.5215 25.1257H58.2661C58.2661 25.3119 58.4522 25.3119 58.6384 25.3119C58.8245 25.3119 58.8245 25.3119 58.8245 25.3119C58.8245 25.3119 58.8246 25.1257 59.0107 25.1257V24.9396L58.8245 24.7535H58.6384V24.3813H58.8245C59.0107 24.3813 59.0107 24.3813 59.0107 24.3813C59.0107 24.3813 59.0107 24.1952 59.1969 24.1952C59.1969 24.009 59.1969 24.009 59.0107 24.009C58.8246 24.009 58.8245 24.009 58.6384 24.1952L57.8938 24.009C58.0799 23.6368 58.4522 23.4507 58.8245 23.4507C59.1969 23.4507 59.383 23.6368 59.5692 23.6368C59.7553 23.8229 59.7553 24.009 59.7553 24.1952C59.5692 24.1952 59.383 24.3813 59.1969 24.5674Z" fill="black"/>
<path d="M61.9893 25.6842H61.2447L61.0586 26.0564H60.314L61.4309 23.823H62.1755L62.7339 26.2425H61.9893V25.6842ZM61.9893 25.1258L61.8032 24.1952L61.4309 25.1258H61.9893Z" fill="black"/>
</svg>
