<svg width="18" height="18" viewBox="0 0 18 18" fill="none" xmlns="http://www.w3.org/2000/svg">
<path fill-rule="evenodd" clip-rule="evenodd" d="M9 0H5.21739C4.45852 0 3.78976 0.180207 3.28599 0.315956C3.18364 0.343535 3.0881 0.36928 3 0.391305C2.34783 0.652175 1.82609 0.913045 1.43479 1.43478C0.913048 1.95652 0.65218 2.47826 0.391311 3L0.391308 3C0.130439 3.52174 0 4.30435 0 5.2174V9.00001V12.7826C0 13.5415 0.180208 14.2102 0.315957 14.714C0.343537 14.8164 0.369283 14.9119 0.391308 15C0.652178 15.6522 0.913046 16.1739 1.43479 16.5652C1.95652 16.9565 2.47826 17.3478 3 17.6087C3.52174 17.8696 4.30435 18 5.21739 18H9H12.7826C13.5415 18 14.2102 17.8198 14.714 17.6841C14.8164 17.6565 14.9119 17.6307 15 17.6087C15.6522 17.3478 16.1739 17.087 16.5652 16.5652C16.9565 16.0435 17.3478 15.5218 17.6087 15C17.8696 14.4783 18 13.6957 18 12.7826V9.00001V5.2174C18 4.45853 17.8198 3.78978 17.684 3.28601C17.6565 3.18365 17.6307 3.08811 17.6087 3C17.3478 2.34783 17.087 1.82609 16.5652 1.43478C16.0435 0.91305 15.5217 0.65218 15 0.391313L15 0.391305C14.4783 0.130435 13.6957 0 12.7826 0H9ZM14.9996 4.30422C14.9996 4.95639 14.4778 5.3477 13.9561 5.3477C13.4343 5.3477 12.9126 4.82596 12.9126 4.30422C12.9126 3.65205 13.4343 3.26074 13.9561 3.26074C14.4778 3.26074 14.9996 3.65205 14.9996 4.30422ZM8.99936 12.1302C7.30371 12.1302 5.99936 10.8259 5.99936 9.13023C5.99936 7.43457 7.30371 6.13023 8.99936 6.13023C10.695 6.13023 11.9994 7.43457 11.9994 9.13023C11.9994 10.8259 10.695 12.1302 8.99936 12.1302ZM8.99936 4.43457C6.39067 4.43457 4.30371 6.52153 4.30371 9.13023C4.30371 11.7389 6.39067 13.8259 8.99936 13.8259C11.6081 13.8259 13.695 11.7389 13.695 9.13023C13.695 6.52153 11.6081 4.43457 8.99936 4.43457Z" fill="#4E4E50"/>
</svg>
